<svg width="100" height="125" xmlns="http://www.w3.org/2000/svg">

 <g>
  <title>background</title>
  <rect fill="none" id="canvas_background" height="26.365836" width="21.492669" y="-1" x="-1"/>
 </g>
 <g>
  <title>Layer 1</title>
  <g transform="rotate(17.403331756591797 51.290416717529276,60.639400482177734) " id="svg_1">
   <g id="svg_2">
    <path id="svg_3" d="m45.590417,15.339397l-0.8,0.7c-0.3,0.2 -0.5,0.5 -0.7,0.7c-0.5,0.5 -0.9,1.1 -1.3,1.7c-0.8,1.2 -1.4,2.5 -1.8,3.8c-0.9,2.7 -1.3,5.5 -1.5,8.4c-0.1,2.9 0,5.8 0.1,8.7c0.1,2.9 0.1,5.8 -0.4,8.7c-0.2,1.4 -0.6,2.9 -1,4.3c-0.5,1.4 -1.1,2.7 -1.8,4c-1.4,2.5 -3.2,4.9 -4.9,7.2c-1.7,2.3 -3.3,4.7 -4.6,7.3c-1.2,2.6 -2,5.4 -1.9,8.3l0,-0.1c0.9,0.9 1.5,2.1 1.8,3.3c0.2,1.3 0.2,2.5 -0.1,3.8c-0.5,2.5 -1.9,4.7 -3.3,6.7c-1.4,2.1 -2.8,4.1 -3.7,6.5c-0.8,2.4 -1.2,4.9 -1.1,7.4c-0.2,-2.5 0.2,-5 1,-7.4c0.8,-2.4 2.2,-4.5 3.6,-6.6c1.4,-2.1 2.8,-4.2 3.2,-6.7c0.2,-1.2 0.3,-2.5 0,-3.7c-0.3,-1.2 -0.8,-2.3 -1.7,-3.2l0,0l0,-0.1c-0.2,-2.9 0.6,-5.9 1.8,-8.5c1.2,-2.7 2.9,-5.1 4.5,-7.4c1.7,-2.4 3.4,-4.7 4.8,-7.2c0.7,-1.3 1.3,-2.5 1.8,-3.9c0.5,-1.4 0.8,-2.8 1,-4.2c0.4,-2.8 0.4,-5.7 0.3,-8.6c-0.1,-2.9 -0.3,-5.8 -0.2,-8.7c0.1,-2.9 0.5,-5.9 1.4,-8.7c0.5,-1.4 1.1,-2.8 1.9,-4c0.4,-0.6 0.9,-1.2 1.3,-1.8c0.3,-0.3 0.5,-0.6 0.8,-0.8l0.8,-0.7l0.7,0.8z"/>
   </g>
   <g id="svg_4">
    <path id="svg_5" d="m42.290417,19.139397c0,0 0.2,0.1 0.6,0.4c0.4,0.3 1,0.7 1.7,1.3c1.3,1.2 3,3.2 4.1,6.2c0.5,1.4 0.8,3.1 0.9,4.9c0.1,1.7 -0.1,3.6 0.4,5.3c0.2,0.9 0.7,1.7 1.3,2.2c0.7,0.6 1.6,0.9 2.5,1.3c0.5,0.2 0.9,0.4 1.4,0.7c0.4,0.3 0.8,0.7 1.1,1.1c0.6,0.8 1,1.8 1.2,2.8c0.4,2 0.4,4 0.8,5.9c0.3,1.9 1.1,3.7 2.2,5.2c1.1,1.5 2.4,2.7 3.8,3.8c1.3,1.1 2.7,2 3.7,3.1c1,1.1 1.5,2.5 1.6,3.7c0.1,1.2 -0.1,2.3 -0.3,3.1c-0.2,0.9 -0.4,1.5 -0.5,2c-0.2,0.4 -0.3,0.7 -0.3,0.7s0.1,-0.2 0.2,-0.7c0.1,-0.5 0.3,-1.1 0.5,-2c0.2,-0.9 0.3,-1.9 0.2,-3.1c-0.1,-1.2 -0.6,-2.5 -1.6,-3.6c-1,-1.1 -2.4,-2 -3.7,-3c-1.4,-1.1 -2.7,-2.3 -3.9,-3.8c-1.2,-1.5 -2.1,-3.3 -2.4,-5.3c-0.4,-2 -0.4,-4 -0.9,-5.9c-0.2,-0.9 -0.6,-1.9 -1.2,-2.6c-0.3,-0.4 -0.6,-0.7 -1,-1c-0.4,-0.3 -0.8,-0.5 -1.3,-0.6c-0.9,-0.3 -1.9,-0.6 -2.7,-1.3c-0.8,-0.7 -1.3,-1.6 -1.6,-2.5c-0.5,-1.9 -0.4,-3.8 -0.5,-5.4c-0.1,-1.7 -0.4,-3.2 -0.9,-4.6c-1,-2.7 -2.7,-4.6 -3.9,-5.8c-0.6,-0.6 -1.2,-0.9 -1.5,-1.2c-0.4,-0.3 -0.6,-0.4 -0.6,-0.4l0.6,-0.9z"/>
   </g>
   <g id="svg_6">
    <path id="svg_7" d="m37.090417,54.639397c0,0 -0.1,0.2 -0.2,0.5c-0.1,0.3 -0.3,0.7 -0.4,1.3c-0.1,0.6 -0.3,1.3 -0.3,2.1c-0.1,0.8 -0.1,1.7 -0.1,2.7c0.1,2 0.6,4.3 1.4,6.7c0.4,1.2 0.9,2.4 1.4,3.6c0.5,1.2 1.2,2.4 1.6,3.7c0.4,1.3 0.5,2.8 0.1,4c-0.5,1.3 -1.4,2.3 -2.3,3.2c-0.9,0.9 -1.8,1.7 -2.5,2.7c-0.7,0.9 -1,2 -1.1,3c-0.1,1 0,1.9 0.2,2.7c0.2,0.8 0.4,1.5 0.6,2.1c0.4,1.1 0.7,1.7 0.7,1.7s-0.3,-0.6 -0.7,-1.7c-0.2,-0.6 -0.4,-1.2 -0.6,-2.1c-0.2,-0.8 -0.3,-1.7 -0.2,-2.8c0.1,-1 0.4,-2.1 1.1,-3.1c0.7,-1 1.6,-1.8 2.5,-2.7c0.9,-0.9 1.8,-1.9 2.2,-3.1c0.4,-1.3 0.3,-2.6 -0.1,-3.9c-0.4,-1.3 -1,-2.5 -1.6,-3.7c-0.6,-1.2 -1.1,-2.4 -1.5,-3.6c-0.8,-2.4 -1.3,-4.8 -1.5,-6.8c-0.1,-1 -0.1,-2 0,-2.8c0.1,-0.8 0.2,-1.6 0.3,-2.1c0.1,-0.6 0.3,-1 0.4,-1.3c0.1,-0.3 0.2,-0.5 0.2,-0.5l0.4,0.2z"/>
   </g>
   <g id="svg_8">
    <path id="svg_9" d="m37.690417,68.839397c0,0 -0.3,0.1 -0.6,0.2c-0.3,0.1 -0.8,0.4 -1.3,0.8c-0.5,0.4 -1,1.1 -1.4,1.8c-0.4,0.8 -0.7,1.6 -0.8,2.6c-0.2,0.9 -0.2,1.9 -0.2,2.7c0,0.9 0,1.7 -0.1,2.4c-0.1,0.7 -0.3,1.3 -0.5,1.6c-0.2,0.4 -0.4,0.5 -0.4,0.5s0.2,-0.2 0.4,-0.5c0.2,-0.4 0.4,-0.9 0.4,-1.6c0.1,-1.4 -0.2,-3.3 0,-5.2c0.1,-1 0.3,-1.9 0.7,-2.8c0.4,-0.9 0.9,-1.6 1.4,-2.1c0.5,-0.5 1.1,-0.9 1.5,-1.1c0.5,-0.2 0.6,-0.3 0.6,-0.3l0.3,1z"/>
   </g>
   <g id="svg_10">
    <path id="svg_11" d="m40.790417,77.239397c0,0 0.2,0 0.7,0c0.4,0 1.1,0.1 1.8,0.2c1.5,0.2 3.4,0.7 5.1,1.8c0.8,0.5 1.6,1.2 2.2,1.9c0.6,0.7 1,1.5 1.3,2.1c0.3,0.7 0.4,1.3 0.5,1.7c0.1,0.4 0.1,0.7 0.1,0.7s0,-0.2 -0.1,-0.7c-0.1,-0.4 -0.2,-1 -0.6,-1.7c-0.3,-0.6 -0.8,-1.4 -1.4,-2c-0.6,-0.7 -1.4,-1.2 -2.2,-1.7c-1.7,-0.9 -3.6,-1.3 -5,-1.4c-0.7,-0.1 -1.3,-0.1 -1.7,-0.1c-0.4,0 -0.7,0 -0.7,0l0,-0.8z"/>
   </g>
   <g id="svg_12">
    <path id="svg_13" d="m51.190417,39.239397c0,0 0,0.1 0.1,0.4c0,0.4 0,0.8 -0.2,1.4c-0.2,0.5 -0.5,1.1 -0.9,1.7c-0.4,0.6 -0.9,1.2 -1.3,1.9c-0.4,0.7 -0.6,1.5 -0.6,2.4c0,0.9 0.3,1.9 0.7,2.8c0.9,1.9 2.4,3.5 3.6,5.5c0.6,1 1,2 1.6,2.9c0.3,0.5 0.6,0.9 1.1,1.2c0.4,0.3 1,0.5 1.3,1c0.4,0.5 0.4,1.1 0.2,1.6c-0.1,0.5 -0.4,1 -0.6,1.4c-0.5,0.8 -1.1,1.5 -1.6,2.2c-2,2.8 -3.3,4.6 -3.3,4.6s1.3,-1.9 3.2,-4.7c0.5,-0.7 1,-1.5 1.5,-2.3c0.2,-0.4 0.4,-0.9 0.6,-1.3c0.1,-0.5 0.1,-1 -0.2,-1.4c-0.3,-0.4 -0.8,-0.5 -1.3,-0.9c-0.5,-0.3 -0.8,-0.8 -1.2,-1.2c-0.7,-0.9 -1.1,-2 -1.7,-2.9c-1.2,-1.9 -2.8,-3.5 -3.8,-5.5c-0.5,-1 -0.8,-2 -0.9,-3.1c-0.1,-1 0.2,-2 0.6,-2.9c0.4,-0.8 0.9,-1.4 1.3,-2c0.4,-0.6 0.6,-1.1 0.8,-1.5c0.1,-0.4 0.1,-0.7 0.1,-0.9c0,-0.3 -0.1,-0.4 -0.1,-0.4l1,0z"/>
   </g>
   <g id="svg_14">
    <path id="svg_15" d="m48.290417,47.939397c0,0 -0.1,0.1 -0.2,0.3c-0.1,0.2 -0.3,0.4 -0.4,0.8c-0.3,0.7 -0.7,1.8 -0.7,3.1c0,1.3 0.4,2.9 1.4,4.3c0.5,0.7 1.2,1.3 1.8,1.9c0.7,0.6 1.4,1.4 1.8,2.2c0.5,0.9 0.8,1.7 1.1,2.6c0.3,0.9 0.7,1.7 1,2.5c0.7,1.6 1.3,3.2 1.8,4.5c0.3,0.7 0.5,1.2 0.6,1.8c0.1,0.6 0,1.1 -0.2,1.5c-0.2,0.4 -0.5,0.5 -0.7,0.6c-0.2,0.1 -0.3,0 -0.3,0s0.1,0 0.3,0c0.2,-0.1 0.5,-0.2 0.7,-0.6c0.2,-0.3 0.3,-0.9 0.1,-1.4c-0.1,-0.6 -0.4,-1.1 -0.7,-1.8c-0.6,-1.3 -1.2,-2.8 -1.9,-4.4c-0.4,-0.8 -0.7,-1.6 -1.1,-2.5c-0.4,-0.8 -0.7,-1.7 -1.2,-2.5c-0.5,-0.8 -1.1,-1.4 -1.8,-2c-0.7,-0.6 -1.4,-1.2 -2,-1.9c-1.2,-1.5 -1.6,-3.2 -1.7,-4.7c-0.1,-1.5 0.3,-2.7 0.6,-3.5c0.2,-0.4 0.4,-0.7 0.5,-0.9c0.1,-0.2 0.2,-0.3 0.2,-0.3l1,0.4z"/>
   </g>
   <g id="svg_16">
    <path id="svg_17" d="m24.890417,77.739397c0,0 0,0.1 0,0.3c0,0.2 0.1,0.5 0,0.9c0,0.4 0,0.9 -0.1,1.4c-0.1,0.5 -0.2,1.1 -0.4,1.8c-0.3,1.3 -0.9,2.7 -1.4,4.2c-0.3,0.7 -0.5,1.5 -0.8,2.3c-0.2,0.8 -0.4,1.6 -0.4,2.5c0,0.8 0,1.7 0.2,2.5c0.2,0.8 0.5,1.6 0.9,2.2c0.4,0.7 0.9,1.3 1.4,1.8c0.5,0.5 1.1,1 1.5,1.4c0.4,0.5 0.8,1 1,1.4c0.2,0.5 0.3,0.9 0.3,1.3c0,0.4 -0.1,0.7 -0.1,0.9c-0.1,0.2 -0.1,0.3 -0.1,0.3s0,-0.1 0.1,-0.3c0.1,-0.2 0.1,-0.5 0.1,-0.9c0,-0.4 -0.1,-0.8 -0.4,-1.3c-0.2,-0.5 -0.6,-0.9 -1,-1.4c-0.5,-0.4 -1,-0.9 -1.5,-1.4c-0.6,-0.5 -1.1,-1.1 -1.5,-1.8c-0.4,-0.7 -0.8,-1.5 -1,-2.3c-0.2,-0.8 -0.3,-1.7 -0.3,-2.6c0,-0.9 0.2,-1.7 0.3,-2.6c0.2,-0.8 0.4,-1.6 0.7,-2.4c0.5,-1.5 1,-2.9 1.3,-4.2c0.1,-0.6 0.2,-1.2 0.3,-1.7c0.1,-0.5 0.1,-0.9 0.1,-1.3c0,-0.3 -0.1,-0.7 -0.1,-0.8c0,-0.2 0,-0.3 0,-0.3l0.9,0.1z"/>
   </g>
   <g id="svg_18">
    <g id="svg_19">
     <path id="svg_20" d="m48.990417,30.539397c0,0 0.5,0.1 1.3,0.2c0.8,0.1 2,0.3 3.4,0.6c1.4,0.4 3.1,1 4.5,2.1c0.7,0.5 1.4,1.1 2.2,1.6c0.8,0.5 1.6,0.7 2.5,0.6c0.9,-0.1 1.8,-0.4 2.7,-0.6c0.9,-0.2 1.8,-0.3 2.7,-0.4c0.9,-0.1 1.7,-0.1 2.6,-0.2c0.8,0 1.6,0 2.3,0.2c0.7,0.2 1.3,0.5 1.7,0.9c0.4,0.4 0.8,0.8 1,1.1c0.2,0.4 0.3,0.7 0.4,0.9c0.1,0.2 0.1,0.3 0.1,0.3s0,-0.1 -0.1,-0.3c-0.1,-0.2 -0.2,-0.5 -0.4,-0.9c-0.4,-0.7 -1.3,-1.6 -2.7,-1.9c-0.7,-0.2 -1.5,-0.2 -2.3,-0.1c-0.8,0.1 -1.7,0.1 -2.5,0.2c-0.9,0.1 -1.8,0.2 -2.7,0.5c-0.9,0.2 -1.8,0.6 -2.8,0.7c-1,0.2 -2.1,-0.1 -2.9,-0.6c-0.9,-0.5 -1.6,-1.1 -2.3,-1.6c-1.4,-1 -3,-1.5 -4.3,-1.8c-1.4,-0.3 -2.5,-0.4 -3.4,-0.5c-0.8,-0.1 -1.3,-0.1 -1.3,-0.1l0.3,-0.9z"/>
    </g>
    <g id="svg_21">
     <path id="svg_22" d="m69.990417,41.639397c0,0 -0.2,0.2 -0.4,0.6c-0.2,0.4 -0.6,0.9 -0.9,1.6c-0.6,1.4 -1.1,3.5 -0.9,5.6c0.2,2.1 1.1,4.1 2,5.3c0.5,0.6 0.9,1.1 1.2,1.5c0.3,0.3 0.5,0.5 0.5,0.5s-0.2,-0.2 -0.6,-0.5c-0.4,-0.3 -0.8,-0.8 -1.3,-1.4c-0.5,-0.6 -1,-1.4 -1.4,-2.3c-0.4,-0.9 -0.8,-2 -0.9,-3c-0.4,-2.2 0,-4.4 0.6,-5.9c0.3,-0.8 0.6,-1.4 0.9,-1.8c0.3,-0.4 0.4,-0.6 0.4,-0.6l0.8,0.4z"/>
    </g>
    <g id="svg_23">
     <path id="svg_24" d="m52.290417,31.039397l2.5,1.7c0.4,0.3 0.8,0.6 1.2,0.9c0.2,0.2 0.4,0.3 0.6,0.5c0.2,0.2 0.4,0.4 0.5,0.6c1.3,1.7 1.8,3.7 2.9,5.4l-0.1,-0.1c1.6,-0.1 3.3,0.8 3.9,2.3l0,0c0.2,0.2 0.5,0 0.6,-0.2c0,0.3 -0.4,0.4 -0.6,0.3l0,0l0,0c-0.7,-1.4 -2.3,-2.2 -3.8,-2l-0.1,0l-0.1,-0.1c-0.6,-0.8 -1.1,-1.8 -1.5,-2.7c-0.5,-0.9 -1,-1.8 -1.6,-2.5c-0.2,-0.2 -0.3,-0.4 -0.5,-0.5c-0.2,-0.2 -0.4,-0.3 -0.6,-0.5c-0.4,-0.3 -0.8,-0.6 -1.2,-0.8l-2.6,-1.5l0.5,-0.8z"/>
    </g>
    <g id="svg_25">
     <path id="svg_26" d="m63.790417,35.439397c0.2,0.3 0.4,0.7 0.5,0.9c0.2,0.3 0.4,0.6 0.6,0.9c0.4,0.6 0.9,1.1 1.5,1.6c1.1,0.9 2.3,1.7 3.7,2.2c0.3,0.1 0.7,0.2 1,0.3c0.4,0.1 0.7,0.1 1.1,0.2c0.7,0.1 1.5,0.1 2.2,0.1c1.5,-0.1 2.9,-0.4 4.2,-1l-0.1,0l2.2,-2.3l0,0l0,0c2.1,-0.1 4.1,0.6 5.6,2.1c-1.5,-1.4 -3.6,-2.1 -5.6,-1.9l0.1,0l-2,2.3l0,0l0,0c-1.3,0.7 -2.8,1.1 -4.4,1.2c-0.8,0.1 -1.5,0.1 -2.3,0c-0.4,0 -0.8,-0.1 -1.1,-0.2c-0.4,-0.1 -0.7,-0.2 -1.1,-0.3c-1.5,-0.5 -2.8,-1.2 -4,-2.2c-0.6,-0.5 -1.2,-1 -1.6,-1.6c-0.2,-0.3 -0.5,-0.6 -0.7,-0.9c-0.2,-0.3 -0.4,-0.7 -0.6,-1l0.8,-0.4z"/>
    </g>
    <g id="svg_27">
     <path id="svg_28" d="m69.090417,34.739397c0,0 0,-0.2 0,-0.6c0,-0.4 0,-1 0.2,-1.7c0.1,-0.4 0.2,-0.8 0.5,-1.1c0.3,-0.4 0.7,-0.7 1.1,-0.9c0.5,-0.2 1,-0.1 1.4,-0.1c0.5,0 0.9,0.1 1.4,0.2c1.8,0.3 3.6,0.8 4.8,1.4c1.3,0.5 2,1 2,1s-0.8,-0.4 -2.1,-0.9c-1.3,-0.5 -3.1,-0.9 -4.9,-1c-0.4,0 -0.9,-0.1 -1.3,-0.1c-0.4,0 -0.8,0 -1.2,0.2c-0.7,0.3 -0.9,1 -1,1.6c-0.1,0.6 -0.1,1.2 -0.1,1.5c0,0.4 0.1,0.6 0.1,0.6l-0.9,-0.1z"/>
    </g>
   </g>
   <g id="svg_29">
    <path id="svg_30" d="m24.990417,78.239397c0,0 -0.3,-0.1 -0.7,-0.1c-0.4,0 -1.1,0 -1.8,0.2c-0.7,0.2 -1.5,0.6 -2.3,1.2c-0.8,0.6 -1.5,1.4 -2,2.3c-0.5,0.9 -0.9,1.9 -1.2,2.9c-0.2,1 -0.3,1.9 -0.3,2.7c0,0.8 0.1,1.5 0.1,1.9c0.1,0.5 0.1,0.7 0.1,0.7s-0.1,-0.3 -0.2,-0.7c-0.1,-0.5 -0.2,-1.1 -0.3,-2c-0.1,-1.6 0.2,-3.9 1.2,-5.9c0.5,-1 1.2,-1.9 2,-2.6c0.8,-0.7 1.7,-1.2 2.5,-1.5c0.8,-0.3 1.5,-0.4 2.1,-0.4c0.5,0 0.8,0 0.8,0l0,1.3z"/>
   </g>
  </g>
  <g stroke="null" transform="rotate(4.1940531730651855 105.46471405029261,163.74621582031247) " id="svg_92">
   <g stroke="null" transform="matrix(1.4175354339466812,0,0,1.2534265490557082,47.793712074230314,96.80654363472391) " id="svg_90">
    <title stroke="null" transform="translate(-35.69280242919922,65.06049346923828) translate(27.474184036254883,-72.99723052978516) translate(2.4586734771728516,11.336223602294922) translate(-1.3752567768096924,-14.258011817932129) translate(-0.9456436038017273,2.994474172592163) translate(6.808634281158447,12.191787719726562) translate(-15.130297660827637,-5.347275257110596) translate(0.18912874162197113,-11.336223602294922) translate(-5.2258992195129395,8.649979591369629) translate(3.259833812713623,-6.193702697753906) translate(1.8015613555908203,-2.462076425552368) translate(-13.343470573425293,22.173707962036133) translate(17.78410530090332,-28.45456886291504) translate(-2.386873245239258,-21.48185920715332) translate(-0.6492111086845398,5.193688869476318) translate(-41.73880386352539,0) translate(0,-52.17350387573242) matrix(0.9638782177111596,-1.039396694201191,0.9190651466716799,0.8522894872348625,-8.2393449263309,150.91143196211794) ">background</title>
    <rect stroke="null" transform="matrix(0.9638782177111596,-1.039396694201191,0.9190651466716799,0.8522894872348625,73.09886024743234,84.58356073740805) " x="-56.473577" y="-93.028917" width="102" height="127" id="svg_88" fill="none"/>
   </g>
   <g stroke="null" transform="matrix(0.9638782177111596,-1.039396694201191,0.9190651466716799,0.8522894872348625,62.521375941266044,87.77188628326988) " id="svg_91">
    <title stroke="null" transform="translate(-66.45219421386719,14.64097785949707) translate(66.0096206665039,-26.85294532775879) translate(2.4586734771728516,11.336223602294922) translate(1.1347723007202148,0) translate(-2.788952350616455,-11.389029502868652) translate(-0.9456436038017273,2.994474172592163) translate(6.808634281158447,12.191787719726562) translate(-15.130297660827637,-5.347275257110596) translate(0.18912874162197113,-11.336223602294922) translate(-5.2258992195129395,8.649979591369629) translate(3.259833812713623,-6.193702697753906) translate(1.8015613555908203,-2.462076425552368) translate(-13.343470573425293,22.173707962036133) translate(17.78410530090332,-28.45456886291504) translate(-2.386873245239258,-21.48185920715332) translate(-0.6492111086845398,5.193688869476318) translate(-41.73880386352539,0) translate(0,-52.17350387573242) ">Layer 1</title>
    <path stroke="null" fill-rule="evenodd" clip-rule="evenodd" d="m10.618192,-46.574368c4.596,-2.021 8.179,1.596 12.02,1.118c-0.49,1.267 0.262,3.556 3.075,3.075c0.3,1.044 -0.693,0.796 -0.56,1.677c1.822,3.308 2.849,7.535 2.236,11.461c-0.354,2.273 -2.248,4.653 -3.354,6.43c-0.159,0.256 0.185,0.884 0,1.118c-2.454,3.14 -6.729,3.786 -8.106,6.988c0.374,0.563 1.8,0.915 1.118,1.678c-0.585,-0.161 -0.797,-0.693 -1.677,-0.56c-2.539,2.96 -5.257,5.738 -10.343,6.15c-2.421,-1.533 -7.67,-0.164 -12.3,-0.838c-1.601,-0.234 -3.07,-1.386 -4.193,-1.398c-1.412,-0.017 -2.669,1.082 -3.914,1.118c-2.879,0.084 -4.048,-1.812 -6.43,-2.516c-1.457,-0.06 -0.916,1.879 -2.515,1.676c-0.39,-0.661 0.603,-1.875 1.118,-2.515c-0.59,-0.994 -1.085,-2.084 -1.957,-2.796c-2.285,0.084 -3.872,2.225 -5.591,1.957c1.385,-1.225 3.211,-2.007 4.752,-3.075c-5.118,-9.633 5.495,-14.441 8.386,-21.246c3.392,-3.783 7.333,-7.017 13.697,-7.827c0.71,-0.199 -0.675,-1.596 0.56,-1.677c1.013,-0.268 0.284,1.207 0.838,1.397c4.26,-0.704 9.469,-5.934 13.14,-1.395zm-11.181,2.236c-2.546,0.643 -5.287,0.932 -7.828,1.397c-3.044,0.559 -4.896,4.992 -6.709,5.312c-0.678,5.605 -6.898,6.977 -8.666,11.182c-0.88,2.095 -0.258,5.553 0.56,7.827c1.184,3.296 4.41,7.659 7.827,8.106c1.058,0.141 2.305,-0.568 3.354,-0.558c1.901,0.017 3.809,1.31 6.15,1.676c5.033,0.789 11.832,0.813 15.095,-0.838c2.428,-1.228 5.04,-6.063 6.989,-7.827c1.839,-1.666 4.438,-2.385 5.591,-3.914c6.492,-8.614 -0.714,-26.125 -11.462,-23.481c-3.618,-4.004 -6.687,0.054 -10.901,1.118z" id="svg_87"/>
    <path stroke="null" fill-rule="evenodd" clip-rule="evenodd" d="m15.091192,-37.070368c-1.419,-0.15 -0.759,0.237 -1.118,0.839c-0.716,-0.403 -1.973,-0.265 -2.517,-0.839c0.054,-0.883 2.064,-0.648 2.517,-0.279c0.065,-1.542 -1.145,-1.376 -2.236,-1.118c0.397,-2.452 4.05,-1.176 3.354,1.397z" id="svg_86"/>
    <path stroke="null" fill-rule="evenodd" clip-rule="evenodd" d="m-10.906808,-35.952368c-0.648,0.089 -1.073,-0.044 -1.397,-0.279c0.051,-0.859 1.505,-0.587 1.397,0.279z" id="svg_85"/>
    <path stroke="null" fill-rule="evenodd" clip-rule="evenodd" d="m18.725192,-33.436368c0.474,0.396 1.613,-0.453 1.398,1.118c-0.819,-0.019 -1.577,-0.101 -1.398,-1.118z" id="svg_84"/>
    <path stroke="null" fill-rule="evenodd" clip-rule="evenodd" d="m18.725192,-28.124368c0.642,0.22 0.272,1.731 -0.56,1.398c-0.217,-0.249 -0.3,-0.631 -0.279,-1.118c0.396,0.023 0.791,0.046 0.839,-0.28z" id="svg_83"/>
    <path stroke="null" fill-rule="evenodd" clip-rule="evenodd" d="m-17.335808,-27.845368c-1.213,0.744 -1.875,2.039 -3.355,2.516c0.555,-1.401 1.633,-2.28 3.355,-2.516z" id="svg_82"/>
    <path stroke="null" fill-rule="evenodd" clip-rule="evenodd" d="m0.554192,-27.006368c0.467,0 0.933,0 1.398,0c-0.208,0.646 -1.509,1.287 -1.398,0z" id="svg_81"/>
    <path stroke="null" fill-rule="evenodd" clip-rule="evenodd" d="m-19.292808,-24.490368c-0.671,0.82 -1.188,1.795 -2.236,2.237c-0.586,-1.088 1.063,-2.013 2.236,-2.237z" id="svg_80"/>
    <path stroke="null" fill-rule="evenodd" clip-rule="evenodd" d="m7.542192,-16.942368c-1.078,0.785 -2.247,1.479 -3.354,2.236c0.169,-1.694 1.745,-1.982 3.354,-2.236z" id="svg_79"/>
    <path stroke="null" fill-rule="evenodd" clip-rule="evenodd" d="m-5.036808,-15.265368c-0.154,0.497 -0.143,1.16 -0.559,1.397c-0.778,-0.154 -0.715,-1.148 -1.677,-1.118c-0.304,0.069 -0.189,0.556 -0.559,0.56c-0.164,0.748 1.15,1.423 1.398,0.838c0.987,1.228 -2.506,1.03 -2.516,0c0.036,-2.266 2.071,-2.524 3.913,-1.677z" id="svg_78"/>
    <path stroke="null" fill-rule="evenodd" clip-rule="evenodd" d="m8.102192,-14.706368c-0.681,0.81 -2.26,0.723 -3.074,1.398c0.147,-1.342 1.497,-1.483 3.074,-1.398z" id="svg_77"/>
   </g>
  </g>
 </g>
</svg>