<svg width="100" height="125" xmlns="http://www.w3.org/2000/svg">

 <g>
  <title>background</title>
  <rect fill="none" id="canvas_background" height="26.365836" width="21.492669" y="-1" x="-1"/>
 </g>
 <g>
  <title>Layer 1</title>
  <path id="svg_1" d="m50.188,72.821c-1.571,-0.387 -3.158,0.574 -3.545,2.145c-0.135,0.55 -0.103,1.1 0.06,1.602c0.008,-0.196 0.035,-0.394 0.083,-0.591c0.387,-1.571 1.974,-2.531 3.545,-2.145c1.021,0.251 1.781,1.011 2.084,1.943c0.053,-1.361 -0.853,-2.616 -2.227,-2.954z" fill="none"/>
  <path id="svg_2" d="m40.783,65.658c-1.57,-0.386 -3.156,0.573 -3.542,2.143c-0.135,0.549 -0.103,1.099 0.06,1.601c0.007,-0.195 0.035,-0.393 0.083,-0.591c0.386,-1.57 1.972,-2.529 3.542,-2.143c1.02,0.251 1.78,1.01 2.082,1.941c0.053,-1.359 -0.853,-2.613 -2.225,-2.951z" fill="none"/>
  <path id="svg_3" d="m32.13,76.705c-2.522,-0.621 -5.07,0.921 -5.69,3.443c-0.217,0.883 -0.165,1.766 0.097,2.572c0.012,-0.314 0.056,-0.632 0.134,-0.949c0.621,-2.522 3.168,-4.063 5.69,-3.443c1.639,0.403 2.859,1.623 3.346,3.118c0.082,-2.183 -1.373,-4.199 -3.577,-4.741z" fill="none"/>
  <path id="svg_4" d="m80.688,76.146c-2.213,-1.359 -5.109,-0.666 -6.468,1.547c-0.476,0.775 -0.695,1.632 -0.69,2.479c0.107,-0.296 0.245,-0.585 0.416,-0.863c1.359,-2.213 4.255,-2.906 6.468,-1.547c1.439,0.883 2.229,2.417 2.237,3.989c0.745,-2.054 -0.028,-4.417 -1.963,-5.605z" fill="none"/>
  <path id="svg_5" d="m65.918,66.099c-1.683,-1.033 -3.885,-0.507 -4.919,1.176c-0.361,0.589 -0.528,1.241 -0.525,1.885c0.082,-0.225 0.187,-0.445 0.317,-0.656c1.033,-1.683 3.236,-2.21 4.919,-1.176c1.094,0.672 1.696,1.838 1.702,3.034c0.565,-1.563 -0.022,-3.36 -1.494,-4.263z" fill="none"/>
  <path id="svg_6" d="m47.937,24.418c3.363,11.948 7.745,17.711 7.745,17.711c-0.498,-2.398 -3.895,-11.546 -7.745,-17.711z" fill="none"/>
  <path id="svg_7" d="m75.158701,75.926597c-1.142,-6.2 -6.565,-10.9 -13.095,-10.9c-2.198,0 -4.267,0.542 -6.094,1.484c-0.499,-0.858 -1.202,-1.578 -2.034,-2.114c0.138,-4.063 0.095,-8.696 -0.312,-13.542c4.896,-2.78 6.997,-8.863 4.691,-14.136c-2.466,-5.635 -21.448,-21.252 -21.448,-21.252s-1.464,24.44 1.044,30.176c2.289,5.234 7.917,7.735 13.168,6.261c0.026,2.808 0.011,7.271 -0.243,11.513c-0.088,-0.004 -0.173,-0.018 -0.262,-0.018c-3.078,0 -5.63,2.229 -6.143,5.159c-1.158,-0.248 -2.357,-0.385 -3.589,-0.385c-6.659,0 -12.413,3.819 -15.23,9.379c-6.099,0.041 -11.031,4.993 -11.031,11.102c0,2.437 0.794,4.683 2.125,6.515l69.571,0c0.899,-1.794 1.417,-3.812 1.417,-5.956c0,-7.093 -5.546,-12.875 -12.535,-13.286zm-46.662,10.127c-2.522,-0.621 -5.069,0.921 -5.69,3.443c-0.078,0.317 -0.122,0.635 -0.134,0.949c-0.262,-0.805 -0.314,-1.689 -0.097,-2.572c0.62,-2.522 3.168,-4.063 5.69,-3.443c2.205,0.543 3.66,2.558 3.576,4.741c-0.485,-1.495 -1.705,-2.714 -3.345,-3.118zm8.566,-11.659c-1.57,-0.386 -3.156,0.573 -3.542,2.143c-0.049,0.197 -0.076,0.395 -0.083,0.591c-0.163,-0.501 -0.196,-1.051 -0.06,-1.601c0.386,-1.57 1.972,-2.529 3.542,-2.143c1.372,0.338 2.278,1.592 2.226,2.951c-0.303,-0.931 -1.062,-1.69 -2.083,-1.941zm9.406,7.164c-1.571,-0.387 -3.158,0.573 -3.545,2.145c-0.049,0.198 -0.076,0.395 -0.083,0.591c-0.163,-0.502 -0.196,-1.052 -0.06,-1.602c0.386,-1.571 1.974,-2.531 3.545,-2.145c1.374,0.338 2.28,1.594 2.228,2.954c-0.304,-0.932 -1.064,-1.692 -2.085,-1.943zm-2.395,-49.414c3.851,6.165 7.247,15.313 7.745,17.711c0,0 -4.382,-5.763 -7.745,-17.711zm19.474,45.943c-0.006,-1.196 -0.607,-2.362 -1.702,-3.034c-1.683,-1.034 -3.886,-0.507 -4.919,1.176c-0.13,0.212 -0.235,0.432 -0.317,0.656c-0.003,-0.644 0.164,-1.296 0.525,-1.885c1.034,-1.683 3.236,-2.21 4.919,-1.176c1.473,0.904 2.06,2.701 1.494,4.263zm15.241,11.39c-0.008,-1.573 -0.799,-3.106 -2.237,-3.989c-2.213,-1.359 -5.109,-0.666 -6.468,1.547c-0.171,0.279 -0.309,0.568 -0.416,0.863c-0.004,-0.847 0.215,-1.704 0.69,-2.479c1.359,-2.213 4.255,-2.906 6.468,-1.547c1.934,1.188 2.707,3.551 1.963,5.605z"/>
 </g>
</svg>