<svg width="100" height="125" xmlns="http://www.w3.org/2000/svg">

 <g>
  <title>background</title>
  <rect fill="none" id="canvas_background" height="26.365836" width="21.492669" y="-1" x="-1"/>
 </g>
 <g>
  <title>Layer 1</title>
  <g stroke="null" transform="rotate(17.403331756591797 51.873500823974624,59.47323226928711) " id="svg_1">
   <g stroke="null" id="svg_2">
    <path stroke="null" id="svg_3" d="m45.687963,5.784506l-0.868145,0.829627c-0.325555,0.237036 -0.542591,0.592591 -0.759627,0.829627c-0.542591,0.592591 -0.976664,1.3037 -1.410736,2.014809c-0.868145,1.422218 -1.519255,2.962954 -1.953327,4.50369c-0.976664,3.19999 -1.410736,6.518499 -1.627773,9.955525c-0.108518,3.437027 0,6.874053 0.108518,10.31108c0.108518,3.437027 0.108518,6.874053 -0.434073,10.31108c-0.217036,1.659254 -0.651109,3.437027 -1.085182,5.096281c-0.542591,1.659254 -1.1937,3.19999 -1.953327,4.740726c-1.519255,2.962954 -3.472582,5.80739 -5.317391,8.533307c-1.844809,2.725918 -3.5811,5.570353 -4.991836,8.651825c-1.302218,3.081472 -2.170364,6.39998 -2.061845,9.837007l0,-0.118518c0.976664,1.066663 1.627773,2.488881 1.953327,3.911099c0.217036,1.540736 0.217036,2.962954 -0.108518,4.50369c-0.542591,2.962954 -2.061845,5.570353 -3.5811,7.940716c-1.519255,2.488881 -3.038509,4.859244 -4.015173,7.70368c-0.868145,2.844436 -1.302218,5.80739 -1.1937,8.770344c-0.217036,-2.962954 0.217036,-5.925908 1.085182,-8.770344c0.868145,-2.844436 2.3874,-5.333317 3.906655,-7.822198c1.519255,-2.488881 3.038509,-4.977763 3.472582,-7.940716c0.217036,-1.422218 0.325555,-2.962954 0,-4.385172c-0.325555,-1.422218 -0.868145,-2.725918 -1.844809,-3.792581l0,0l0,-0.118518c-0.217036,-3.437027 0.651109,-6.992571 1.953327,-10.074043c1.302218,-3.19999 3.147027,-6.044426 4.883318,-8.770344c1.844809,-2.844436 3.689618,-5.570353 5.208873,-8.533307c0.759627,-1.540736 1.410736,-2.962954 1.953327,-4.622208c0.542591,-1.659254 0.868145,-3.318508 1.085182,-4.977763c0.434073,-3.318508 0.434073,-6.755535 0.325555,-10.192561c-0.108518,-3.437027 -0.325555,-6.874053 -0.217036,-10.31108c0.108518,-3.437027 0.542591,-6.992571 1.519255,-10.31108c0.542591,-1.659254 1.1937,-3.318508 2.061845,-4.740726c0.434073,-0.711109 0.976664,-1.422218 1.410736,-2.133327c0.325555,-0.355554 0.542591,-0.711109 0.868145,-0.948145l0.868145,-0.829627l0.759627,0.948145z"/>
   </g>
   <g stroke="null" id="svg_4">
    <path stroke="null" id="svg_5" d="m42.106863,10.288196c0,0 0.217036,0.118518 0.651109,0.474073c0.434073,0.355554 1.085182,0.829627 1.844809,1.540736c1.410736,1.422218 3.255545,3.792581 4.449245,7.348126c0.542591,1.659254 0.868145,3.674063 0.976664,5.80739c0.108518,2.014809 -0.108518,4.266654 0.434073,6.281462c0.217036,1.066663 0.759627,2.014809 1.410736,2.607399c0.759627,0.711109 1.736291,1.066663 2.712955,1.540736c0.542591,0.237036 0.976664,0.474073 1.519255,0.829627c0.434073,0.355554 0.868145,0.829627 1.1937,1.3037c0.651109,0.948145 1.085182,2.133327 1.302218,3.318508c0.434073,2.370363 0.434073,4.740726 0.868145,6.992571c0.325555,2.251845 1.1937,4.385172 2.3874,6.162944c1.1937,1.777772 2.604436,3.19999 4.123691,4.50369c1.410736,1.3037 2.929991,2.370363 4.015173,3.674063c1.085182,1.3037 1.627773,2.962954 1.736291,4.385172c0.108518,1.422218 -0.108518,2.725918 -0.325555,3.674063c-0.217036,1.066663 -0.434073,1.777772 -0.542591,2.370363c-0.217036,0.474073 -0.325555,0.829627 -0.325555,0.829627s0.108518,-0.237036 0.217036,-0.829627c0.108518,-0.592591 0.325555,-1.3037 0.542591,-2.370363c0.217036,-1.066663 0.325555,-2.251845 0.217036,-3.674063c-0.108518,-1.422218 -0.651109,-2.962954 -1.736291,-4.266654c-1.085182,-1.3037 -2.604436,-2.370363 -4.015173,-3.555545c-1.519255,-1.3037 -2.929991,-2.725918 -4.232209,-4.50369c-1.302218,-1.777772 -2.278882,-3.911099 -2.604436,-6.281462c-0.434073,-2.370363 -0.434073,-4.740726 -0.976664,-6.992571c-0.217036,-1.066663 -0.651109,-2.251845 -1.302218,-3.081472c-0.325555,-0.474073 -0.651109,-0.829627 -1.085182,-1.185182c-0.434073,-0.355554 -0.868145,-0.592591 -1.410736,-0.711109c-0.976664,-0.355554 -2.061845,-0.711109 -2.929991,-1.540736c-0.868145,-0.829627 -1.410736,-1.896291 -1.736291,-2.962954c-0.542591,-2.251845 -0.434073,-4.50369 -0.542591,-6.39998c-0.108518,-2.014809 -0.434073,-3.792581 -0.976664,-5.451835c-1.085182,-3.19999 -2.929991,-5.451835 -4.232209,-6.874053c-0.651109,-0.711109 -1.302218,-1.066663 -1.627773,-1.422218c-0.434073,-0.355554 -0.651109,-0.474073 -0.651109,-0.474073l0.651109,-1.066663z"/>
   </g>
   <g stroke="null" id="svg_6">
    <path stroke="null" id="svg_7" d="m36.463917,52.362142c0,0 -0.108518,0.237036 -0.217036,0.592591c-0.108518,0.355554 -0.325555,0.829627 -0.434073,1.540736c-0.108518,0.711109 -0.325555,1.540736 -0.325555,2.488881c-0.108518,0.948145 -0.108518,2.014809 -0.108518,3.19999c0.108518,2.370363 0.651109,5.096281 1.519255,7.940716c0.434073,1.422218 0.976664,2.844436 1.519255,4.266654c0.542591,1.422218 1.302218,2.844436 1.736291,4.385172c0.434073,1.540736 0.542591,3.318508 0.108518,4.740726c-0.542591,1.540736 -1.519255,2.725918 -2.495918,3.792581c-0.976664,1.066663 -1.953327,2.014809 -2.712955,3.19999c-0.759627,1.066663 -1.085182,2.370363 -1.1937,3.555545c-0.108518,1.185182 0,2.251845 0.217036,3.19999c0.217036,0.948145 0.434073,1.777772 0.651109,2.488881c0.434073,1.3037 0.759627,2.014809 0.759627,2.014809s-0.325555,-0.711109 -0.759627,-2.014809c-0.217036,-0.711109 -0.434073,-1.422218 -0.651109,-2.488881c-0.217036,-0.948145 -0.325555,-2.014809 -0.217036,-3.318508c0.108518,-1.185182 0.434073,-2.488881 1.1937,-3.674063c0.759627,-1.185182 1.736291,-2.133327 2.712955,-3.19999c0.976664,-1.066663 1.953327,-2.251845 2.3874,-3.674063c0.434073,-1.540736 0.325555,-3.081472 -0.108518,-4.622208c-0.434073,-1.540736 -1.085182,-2.962954 -1.736291,-4.385172c-0.651109,-1.422218 -1.1937,-2.844436 -1.627773,-4.266654c-0.868145,-2.844436 -1.410736,-5.688872 -1.627773,-8.059235c-0.108518,-1.185182 -0.108518,-2.370363 0,-3.318508c0.108518,-0.948145 0.217036,-1.896291 0.325555,-2.488881c0.108518,-0.711109 0.325555,-1.185182 0.434073,-1.540736c0.108518,-0.355554 0.217036,-0.592591 0.217036,-0.592591l0.434073,0.237036z"/>
   </g>
   <g stroke="null" id="svg_8">
    <path stroke="null" id="svg_9" d="m37.115026,69.19172c0,0 -0.325555,0.118518 -0.651109,0.237036c-0.325555,0.118518 -0.868145,0.474073 -1.410736,0.948145c-0.542591,0.474073 -1.085182,1.3037 -1.519255,2.133327c-0.434073,0.948145 -0.759627,1.896291 -0.868145,3.081472c-0.217036,1.066663 -0.217036,2.251845 -0.217036,3.19999c0,1.066663 0,2.014809 -0.108518,2.844436c-0.108518,0.829627 -0.325555,1.540736 -0.542591,1.896291c-0.217036,0.474073 -0.434073,0.592591 -0.434073,0.592591s0.217036,-0.237036 0.434073,-0.592591c0.217036,-0.474073 0.434073,-1.066663 0.434073,-1.896291c0.108518,-1.659254 -0.217036,-3.911099 0,-6.162944c0.108518,-1.185182 0.325555,-2.251845 0.759627,-3.318508c0.434073,-1.066663 0.976664,-1.896291 1.519255,-2.488881c0.542591,-0.592591 1.1937,-1.066663 1.627773,-1.3037c0.542591,-0.237036 0.651109,-0.355554 0.651109,-0.355554l0.325555,1.185182z"/>
   </g>
   <g stroke="null" id="svg_10">
    <path stroke="null" id="svg_11" d="m40.47909,79.147245c0,0 0.217036,0 0.759627,0c0.434073,0 1.1937,0.118518 1.953327,0.237036c1.627773,0.237036 3.689618,0.829627 5.534427,2.133327c0.868145,0.592591 1.736291,1.422218 2.3874,2.251845c0.651109,0.829627 1.085182,1.777772 1.410736,2.488881c0.325555,0.829627 0.434073,1.540736 0.542591,2.014809c0.108518,0.474073 0.108518,0.829627 0.108518,0.829627s0,-0.237036 -0.108518,-0.829627c-0.108518,-0.474073 -0.217036,-1.185182 -0.651109,-2.014809c-0.325555,-0.711109 -0.868145,-1.659254 -1.519255,-2.370363c-0.651109,-0.829627 -1.519255,-1.422218 -2.3874,-2.014809c-1.844809,-1.066663 -3.906655,-1.540736 -5.425909,-1.659254c-0.759627,-0.118518 -1.410736,-0.118518 -1.844809,-0.118518c-0.434073,0 -0.759627,0 -0.759627,0l0,-0.948145z"/>
   </g>
   <g stroke="null" id="svg_12">
    <path stroke="null" id="svg_13" d="m51.764981,34.110346c0,0 0,0.118518 0.108518,0.474073c0,0.474073 0,0.948145 -0.217036,1.659254c-0.217036,0.592591 -0.542591,1.3037 -0.976664,2.014809c-0.434073,0.711109 -0.976664,1.422218 -1.410736,2.251845c-0.434073,0.829627 -0.651109,1.777772 -0.651109,2.844436c0,1.066663 0.325555,2.251845 0.759627,3.318508c0.976664,2.251845 2.604436,4.148135 3.906655,6.518499c0.651109,1.185182 1.085182,2.370363 1.736291,3.437027c0.325555,0.592591 0.651109,1.066663 1.1937,1.422218c0.434073,0.355554 1.085182,0.592591 1.410736,1.185182c0.434073,0.592591 0.434073,1.3037 0.217036,1.896291c-0.108518,0.592591 -0.434073,1.185182 -0.651109,1.659254c-0.542591,0.948145 -1.1937,1.777772 -1.736291,2.607399c-2.170364,3.318508 -3.5811,5.451835 -3.5811,5.451835s1.410736,-2.251845 3.472582,-5.570353c0.542591,-0.829627 1.085182,-1.777772 1.627773,-2.725918c0.217036,-0.474073 0.434073,-1.066663 0.651109,-1.540736c0.108518,-0.592591 0.108518,-1.185182 -0.217036,-1.659254c-0.325555,-0.474073 -0.868145,-0.592591 -1.410736,-1.066663c-0.542591,-0.355554 -0.868145,-0.948145 -1.302218,-1.422218c-0.759627,-1.066663 -1.1937,-2.370363 -1.844809,-3.437027c-1.302218,-2.251845 -3.038509,-4.148135 -4.123691,-6.518499c-0.542591,-1.185182 -0.868145,-2.370363 -0.976664,-3.674063c-0.108518,-1.185182 0.217036,-2.370363 0.651109,-3.437027c0.434073,-0.948145 0.976664,-1.659254 1.410736,-2.370363c0.434073,-0.711109 0.651109,-1.3037 0.868145,-1.777772c0.108518,-0.474073 0.108518,-0.829627 0.108518,-1.066663c0,-0.355554 -0.108518,-0.474073 -0.108518,-0.474073l1.085182,0z"/>
   </g>
   <g stroke="null" id="svg_14">
    <path stroke="null" id="svg_15" d="m48.617954,44.421425c0,0 -0.108518,0.118518 -0.217036,0.355554c-0.108518,0.237036 -0.325555,0.474073 -0.434073,0.948145c-0.325555,0.829627 -0.759627,2.133327 -0.759627,3.674063c0,1.540736 0.434073,3.437027 1.519255,5.096281c0.542591,0.829627 1.302218,1.540736 1.953327,2.251845c0.759627,0.711109 1.519255,1.659254 1.953327,2.607399c0.542591,1.066663 0.868145,2.014809 1.1937,3.081472c0.325555,1.066663 0.759627,2.014809 1.085182,2.962954c0.759627,1.896291 1.410736,3.792581 1.953327,5.333317c0.325555,0.829627 0.542591,1.422218 0.651109,2.133327c0.108518,0.711109 0,1.3037 -0.217036,1.777772c-0.217036,0.474073 -0.542591,0.592591 -0.759627,0.711109c-0.217036,0.118518 -0.325555,0 -0.325555,0s0.108518,0 0.325555,0c0.217036,-0.118518 0.542591,-0.237036 0.759627,-0.711109c0.217036,-0.355554 0.325555,-1.066663 0.108518,-1.659254c-0.108518,-0.711109 -0.434073,-1.3037 -0.759627,-2.133327c-0.651109,-1.540736 -1.302218,-3.318508 -2.061845,-5.214799c-0.434073,-0.948145 -0.759627,-1.896291 -1.1937,-2.962954c-0.434073,-0.948145 -0.759627,-2.014809 -1.302218,-2.962954c-0.542591,-0.948145 -1.1937,-1.659254 -1.953327,-2.370363c-0.759627,-0.711109 -1.519255,-1.422218 -2.170364,-2.251845c-1.302218,-1.777772 -1.736291,-3.792581 -1.844809,-5.570353c-0.108518,-1.777772 0.325555,-3.19999 0.651109,-4.148135c0.217036,-0.474073 0.434073,-0.829627 0.542591,-1.066663c0.108518,-0.237036 0.217036,-0.355554 0.217036,-0.355554l1.085182,0.474073z"/>
   </g>
   <g stroke="null" id="svg_16">
    <path stroke="null" id="svg_17" d="m23.224699,79.739836c0,0 0,0.118518 0,0.355554c0,0.237036 0.108518,0.592591 0,1.066663c0,0.474073 0,1.066663 -0.108518,1.659254c-0.108518,0.592591 -0.217036,1.3037 -0.434073,2.133327c-0.325555,1.540736 -0.976664,3.19999 -1.519255,4.977763c-0.325555,0.829627 -0.542591,1.777772 -0.868145,2.725918c-0.217036,0.948145 -0.434073,1.896291 -0.434073,2.962954c0,0.948145 0,2.014809 0.217036,2.962954c0.217036,0.948145 0.542591,1.896291 0.976664,2.607399c0.434073,0.829627 0.976664,1.540736 1.519255,2.133327c0.542591,0.592591 1.1937,1.185182 1.627773,1.659254c0.434073,0.592591 0.868145,1.185182 1.085182,1.659254c0.217036,0.592591 0.325555,1.066663 0.325555,1.540736c0,0.474073 -0.108518,0.829627 -0.108518,1.066663c-0.108518,0.237036 -0.108518,0.355554 -0.108518,0.355554s0,-0.118518 0.108518,-0.355554c0.108518,-0.237036 0.108518,-0.592591 0.108518,-1.066663c0,-0.474073 -0.108518,-0.948145 -0.434073,-1.540736c-0.217036,-0.592591 -0.651109,-1.066663 -1.085182,-1.659254c-0.542591,-0.474073 -1.085182,-1.066663 -1.627773,-1.659254c-0.651109,-0.592591 -1.1937,-1.3037 -1.627773,-2.133327c-0.434073,-0.829627 -0.868145,-1.777772 -1.085182,-2.725918c-0.217036,-0.948145 -0.325555,-2.014809 -0.325555,-3.081472c0,-1.066663 0.217036,-2.014809 0.325555,-3.081472c0.217036,-0.948145 0.434073,-1.896291 0.759627,-2.844436c0.542591,-1.777772 1.085182,-3.437027 1.410736,-4.977763c0.108518,-0.711109 0.217036,-1.422218 0.325555,-2.014809c0.108518,-0.592591 0.108518,-1.066663 0.108518,-1.540736c0,-0.355554 -0.108518,-0.829627 -0.108518,-0.948145c0,-0.237036 0,-0.355554 0,-0.355554l0.976664,0.118518z"/>
   </g>
   <g stroke="null" id="svg_18">
    <g stroke="null" id="svg_19">
     <path stroke="null" id="svg_20" d="m49.377581,23.799266c0,0 0.542591,0.118518 1.410736,0.237036c0.868145,0.118518 2.170364,0.355554 3.689618,0.711109c1.519255,0.474073 3.364064,1.185182 4.883318,2.488881c0.759627,0.592591 1.519255,1.3037 2.3874,1.896291c0.868145,0.592591 1.736291,0.829627 2.712955,0.711109c0.976664,-0.118518 1.953327,-0.474073 2.929991,-0.711109c0.976664,-0.237036 1.953327,-0.355554 2.929991,-0.474073c0.976664,-0.118518 1.844809,-0.118518 2.821473,-0.237036c0.868145,0 1.736291,0 2.495918,0.237036c0.759627,0.237036 1.410736,0.592591 1.844809,1.066663c0.434073,0.474073 0.868145,0.948145 1.085182,1.3037c0.217036,0.474073 0.325555,0.829627 0.434073,1.066663c0.108518,0.237036 0.108518,0.355554 0.108518,0.355554s0,-0.118518 -0.108518,-0.355554c-0.108518,-0.237036 -0.217036,-0.592591 -0.434073,-1.066663c-0.434073,-0.829627 -1.410736,-1.896291 -2.929991,-2.251845c-0.759627,-0.237036 -1.627773,-0.237036 -2.495918,-0.118518c-0.868145,0.118518 -1.844809,0.118518 -2.712955,0.237036c-0.976664,0.118518 -1.953327,0.237036 -2.929991,0.592591c-0.976664,0.237036 -1.953327,0.711109 -3.038509,0.829627c-1.085182,0.237036 -2.278882,-0.118518 -3.147027,-0.711109c-0.976664,-0.592591 -1.736291,-1.3037 -2.495918,-1.896291c-1.519255,-1.185182 -3.255545,-1.777772 -4.666282,-2.133327c-1.519255,-0.355554 -2.712955,-0.474073 -3.689618,-0.592591c-0.868145,-0.118518 -1.410736,-0.118518 -1.410736,-0.118518l0.325555,-1.066663z"/>
    </g>
    <g stroke="null" id="svg_21">
     <path stroke="null" id="svg_22" d="m72.166399,36.954781c0,0 -0.217036,0.237036 -0.434073,0.711109c-0.217036,0.474073 -0.651109,1.066663 -0.976664,1.896291c-0.651109,1.659254 -1.1937,4.148135 -0.976664,6.637017c0.217036,2.488881 1.1937,4.859244 2.170364,6.281462c0.542591,0.711109 0.976664,1.3037 1.302218,1.777772c0.325555,0.355554 0.542591,0.592591 0.542591,0.592591s-0.217036,-0.237036 -0.651109,-0.592591c-0.434073,-0.355554 -0.868145,-0.948145 -1.410736,-1.659254c-0.542591,-0.711109 -1.085182,-1.659254 -1.519255,-2.725918c-0.434073,-1.066663 -0.868145,-2.370363 -0.976664,-3.555545c-0.434073,-2.607399 0,-5.214799 0.651109,-6.992571c0.325555,-0.948145 0.651109,-1.659254 0.976664,-2.133327c0.325555,-0.474073 0.434073,-0.711109 0.434073,-0.711109l0.868145,0.474073z"/>
    </g>
    <g stroke="null" id="svg_23">
     <path stroke="null" id="svg_24" d="m52.958681,24.391857l2.712955,2.014809c0.434073,0.355554 0.868145,0.711109 1.302218,1.066663c0.217036,0.237036 0.434073,0.355554 0.651109,0.592591c0.217036,0.237036 0.434073,0.474073 0.542591,0.711109c1.410736,2.014809 1.953327,4.385172 3.147027,6.39998l-0.108518,-0.118518c1.736291,-0.118518 3.5811,0.948145 4.232209,2.725918l0,0c0.217036,0.237036 0.542591,0 0.651109,-0.237036c0,0.355554 -0.434073,0.474073 -0.651109,0.355554l0,0l0,0c-0.759627,-1.659254 -2.495918,-2.607399 -4.123691,-2.370363l-0.108518,0l-0.108518,-0.118518c-0.651109,-0.948145 -1.1937,-2.133327 -1.627773,-3.19999c-0.542591,-1.066663 -1.085182,-2.133327 -1.736291,-2.962954c-0.217036,-0.237036 -0.325555,-0.474073 -0.542591,-0.592591c-0.217036,-0.237036 -0.434073,-0.355554 -0.651109,-0.592591c-0.434073,-0.355554 -0.868145,-0.711109 -1.302218,-0.948145l-2.821473,-1.777772l0.542591,-0.948145z"/>
    </g>
    <g stroke="null" id="svg_25">
     <path stroke="null" id="svg_26" d="m65.438272,29.606656c0.217036,0.355554 0.434073,0.829627 0.542591,1.066663c0.217036,0.355554 0.434073,0.711109 0.651109,1.066663c0.434073,0.711109 0.976664,1.3037 1.627773,1.896291c1.1937,1.066663 2.495918,2.014809 4.015173,2.607399c0.325555,0.118518 0.759627,0.237036 1.085182,0.355554c0.434073,0.118518 0.759627,0.118518 1.1937,0.237036c0.759627,0.118518 1.627773,0.118518 2.3874,0.118518c1.627773,-0.118518 3.147027,-0.474073 4.557764,-1.185182l-0.108518,0l2.3874,-2.725918l0,0l0,0c2.278882,-0.118518 4.449245,0.711109 6.077018,2.488881c-1.627773,-1.659254 -3.906655,-2.488881 -6.077018,-2.251845l0.108518,0l-2.170364,2.725918l0,0l0,0c-1.410736,0.829627 -3.038509,1.3037 -4.7748,1.422218c-0.868145,0.118518 -1.627773,0.118518 -2.495918,0c-0.434073,0 -0.868145,-0.118518 -1.1937,-0.237036c-0.434073,-0.118518 -0.759627,-0.237036 -1.1937,-0.355554c-1.627773,-0.592591 -3.038509,-1.422218 -4.340727,-2.607399c-0.651109,-0.592591 -1.302218,-1.185182 -1.736291,-1.896291c-0.217036,-0.355554 -0.542591,-0.711109 -0.759627,-1.066663c-0.217036,-0.355554 -0.434073,-0.829627 -0.651109,-1.185182l0.868145,-0.474073z"/>
    </g>
    <g stroke="null" id="svg_27">
     <path stroke="null" id="svg_28" d="m71.189735,28.777029c0,0 0,-0.237036 0,-0.711109c0,-0.474073 0,-1.185182 0.217036,-2.014809c0.108518,-0.474073 0.217036,-0.948145 0.542591,-1.3037c0.325555,-0.474073 0.759627,-0.829627 1.1937,-1.066663c0.542591,-0.237036 1.085182,-0.118518 1.519255,-0.118518c0.542591,0 0.976664,0.118518 1.519255,0.237036c1.953327,0.355554 3.906655,0.948145 5.208873,1.659254c1.410736,0.592591 2.170364,1.185182 2.170364,1.185182s-0.868145,-0.474073 -2.278882,-1.066663c-1.410736,-0.592591 -3.364064,-1.066663 -5.317391,-1.185182c-0.434073,0 -0.976664,-0.118518 -1.410736,-0.118518c-0.434073,0 -0.868145,0 -1.302218,0.237036c-0.759627,0.355554 -0.976664,1.185182 -1.085182,1.896291c-0.108518,0.711109 -0.108518,1.422218 -0.108518,1.777772c0,0.474073 0.108518,0.711109 0.108518,0.711109l-0.976664,-0.118518z"/>
    </g>
   </g>
   <g stroke="null" id="svg_29">
    <path stroke="null" id="svg_30" d="m23.333217,80.332427c0,0 -0.325555,-0.118518 -0.759627,-0.118518c-0.434073,0 -1.1937,0 -1.953327,0.237036c-0.759627,0.237036 -1.627773,0.711109 -2.495918,1.422218c-0.868145,0.711109 -1.627773,1.659254 -2.170364,2.725918c-0.542591,1.066663 -0.976664,2.251845 -1.302218,3.437027c-0.217036,1.185182 -0.325555,2.251845 -0.325555,3.19999c0,0.948145 0.108518,1.777772 0.108518,2.251845c0.108518,0.592591 0.108518,0.829627 0.108518,0.829627s-0.108518,-0.355554 -0.217036,-0.829627c-0.108518,-0.592591 -0.217036,-1.3037 -0.325555,-2.370363c-0.108518,-1.896291 0.217036,-4.622208 1.302218,-6.992571c0.542591,-1.185182 1.302218,-2.251845 2.170364,-3.081472c0.868145,-0.829627 1.844809,-1.422218 2.712955,-1.777772c0.868145,-0.355554 1.627773,-0.474073 2.278882,-0.474073c0.542591,0 0.868145,0 0.868145,0l0,1.540736z"/>
   </g>
  </g>
  <g stroke="null" transform="rotate(4.1940531730651855 127.7676315307606,194.79536437988293) " id="svg_92">
   <g stroke="null" transform="matrix(1.930240402679912,0,0,1.6585226793949817,-37.046258570201985,18.394075003952764) " id="svg_90">
    <title stroke="null" transform="translate(6.192598342895508,6.328219413757324) translate(0.2748638391494751,-0.4043448567390442) translate(14.556479454040527,19.674421310424805) translate(0.8066714406013489,-0.8678106665611267) translate(11.771949768066406,11.170821189880371) translate(0.3909614682197571,-0.6561315059661865) translate(10.055269241333008,18.370437622070312) translate(0.6523755788803101,-0.6604443788528442) translate(-35.69280242919922,65.06049346923828) translate(27.474184036254883,-72.99723052978516) translate(2.4586734771728516,11.336223602294922) translate(-1.3752567768096924,-14.258011817932129) translate(-0.9456436038017273,2.994474172592163) translate(6.808634281158447,12.191787719726562) translate(-15.130297660827637,-5.347275257110596) translate(0.18912874162197113,-11.336223602294922) translate(-5.2258992195129395,8.649979591369629) translate(3.259833812713623,-6.193702697753906) translate(1.8015613555908203,-2.462076425552368) translate(-13.343470573425293,22.173707962036133) translate(17.78410530090332,-28.45456886291504) translate(-2.386873245239258,-21.48185920715332) translate(-0.6492111086845398,5.193688869476318) translate(-41.73880386352539,0) translate(0,-52.17350387573242) matrix(0.9638782177111596,-1.039396694201191,0.9190651466716799,0.8522894872348625,-8.2393449263309,150.91143196211794) ">background</title>
    <rect stroke="null" transform="matrix(0.9638782177111596,-1.039396694201191,0.9190651466716799,0.8522894872348625,73.09886024743234,84.58356073740805) " x="-62.423066" y="-38.151684" width="102" height="127" id="svg_88" fill="none"/>
   </g>
   <g stroke="null" transform="matrix(1.3125010031736288,-1.3753203101685931,1.2514796006625564,1.1277417452613052,-16.99178151625432,6.439498065050486) " id="svg_91">
    <title stroke="null" transform="translate(0.10783813893795013,9.43816089630127) translate(0.4490572214126587,-0.04701218381524086) translate(-2.8580596446990967,25.44884490966797) translate(1.1111592054367065,0.07884443551301956) translate(0.7618956565856934,17.35761833190918) translate(0.6912468075752258,-0.12194565683603287) translate(-5.073293685913086,20.82957649230957) translate(0.871796190738678,0.09189783036708832) translate(-66.45219421386719,14.64097785949707) translate(66.0096206665039,-26.85294532775879) translate(2.4586734771728516,11.336223602294922) translate(1.1347723007202148,0) translate(-2.788952350616455,-11.389029502868652) translate(-0.9456436038017273,2.994474172592163) translate(6.808634281158447,12.191787719726562) translate(-15.130297660827637,-5.347275257110596) translate(0.18912874162197113,-11.336223602294922) translate(-5.2258992195129395,8.649979591369629) translate(3.259833812713623,-6.193702697753906) translate(1.8015613555908203,-2.462076425552368) translate(-13.343470573425293,22.173707962036133) translate(17.78410530090332,-28.45456886291504) translate(-2.386873245239258,-21.48185920715332) translate(-0.6492111086845398,5.193688869476318) translate(-41.73880386352539,0) translate(0,-52.17350387573242) ">Layer 1</title>
    <path stroke="null" fill-rule="evenodd" clip-rule="evenodd" d="m6.679832,26.501617c4.596,-2.021 8.179,1.596 12.02,1.118c-0.49,1.267 0.262,3.556 3.075,3.075c0.3,1.044 -0.693,0.796 -0.56,1.677c1.822,3.308 2.849,7.535 2.236,11.461c-0.354,2.273 -2.248,4.653 -3.354,6.43c-0.159,0.256 0.185,0.884 0,1.118c-2.454,3.14 -6.729,3.786 -8.106,6.988c0.374,0.563 1.8,0.915 1.118,1.678c-0.585,-0.161 -0.797,-0.693 -1.677,-0.56c-2.539,2.96 -5.257,5.738 -10.343,6.15c-2.421,-1.533 -7.67,-0.164 -12.3,-0.838c-1.601,-0.234 -3.07,-1.386 -4.193,-1.398c-1.412,-0.017 -2.669,1.082 -3.914,1.118c-2.879,0.084 -4.048,-1.812 -6.43,-2.516c-1.457,-0.06 -0.916,1.879 -2.515,1.676c-0.39,-0.661 0.603,-1.875 1.118,-2.515c-0.59,-0.994 -1.085,-2.084 -1.957,-2.796c-2.285,0.084 -3.872,2.225 -5.591,1.957c1.385,-1.225 3.211,-2.007 4.752,-3.075c-5.118,-9.633 5.495,-14.441 8.386,-21.246c3.392,-3.783 7.333,-7.017 13.697,-7.827c0.71,-0.199 -0.675,-1.596 0.56,-1.677c1.013,-0.268 0.284,1.207 0.838,1.397c4.26,-0.704 9.469,-5.934 13.14,-1.395zm-11.181,2.236c-2.546,0.643 -5.287,0.932 -7.828,1.397c-3.044,0.559 -4.896,4.992 -6.709,5.312c-0.678,5.605 -6.898,6.977 -8.666,11.182c-0.88,2.095 -0.258,5.553 0.56,7.827c1.184,3.296 4.41,7.659 7.827,8.106c1.058,0.141 2.305,-0.568 3.354,-0.558c1.901,0.017 3.809,1.31 6.15,1.676c5.033,0.789 11.832,0.813 15.095,-0.838c2.428,-1.228 5.04,-6.063 6.989,-7.827c1.839,-1.666 4.438,-2.385 5.591,-3.914c6.492,-8.614 -0.714,-26.125 -11.462,-23.481c-3.618,-4.004 -6.687,0.054 -10.901,1.118z" id="svg_87"/>
    <path stroke="null" fill-rule="evenodd" clip-rule="evenodd" d="m11.152832,36.005617c-1.419,-0.15 -0.759,0.237 -1.118,0.839c-0.716,-0.403 -1.973,-0.265 -2.517,-0.839c0.054,-0.883 2.064,-0.648 2.517,-0.279c0.065,-1.542 -1.145,-1.376 -2.236,-1.118c0.397,-2.452 4.05,-1.176 3.354,1.397z" id="svg_86"/>
    <path stroke="null" fill-rule="evenodd" clip-rule="evenodd" d="m-14.845168,37.123617c-0.648,0.089 -1.073,-0.044 -1.397,-0.279c0.051,-0.859 1.505,-0.587 1.397,0.279z" id="svg_85"/>
    <path stroke="null" fill-rule="evenodd" clip-rule="evenodd" d="m14.786832,39.639617c0.474,0.396 1.613,-0.453 1.398,1.118c-0.819,-0.019 -1.577,-0.101 -1.398,-1.118z" id="svg_84"/>
    <path stroke="null" fill-rule="evenodd" clip-rule="evenodd" d="m14.786832,44.951617c0.642,0.22 0.272,1.731 -0.56,1.398c-0.217,-0.249 -0.3,-0.631 -0.279,-1.118c0.396,0.023 0.791,0.046 0.839,-0.28z" id="svg_83"/>
    <path stroke="null" fill-rule="evenodd" clip-rule="evenodd" d="m-21.274168,45.230617c-1.213,0.744 -1.875,2.039 -3.355,2.516c0.555,-1.401 1.633,-2.28 3.355,-2.516z" id="svg_82"/>
    <path stroke="null" fill-rule="evenodd" clip-rule="evenodd" d="m-3.384168,46.069617c0.467,0 0.933,0 1.398,0c-0.208,0.646 -1.509,1.287 -1.398,0z" id="svg_81"/>
    <path stroke="null" fill-rule="evenodd" clip-rule="evenodd" d="m-23.231168,48.585617c-0.671,0.82 -1.188,1.795 -2.236,2.237c-0.586,-1.088 1.063,-2.013 2.236,-2.237z" id="svg_80"/>
    <path stroke="null" fill-rule="evenodd" clip-rule="evenodd" d="m3.603832,56.133617c-1.078,0.785 -2.247,1.479 -3.354,2.236c0.169,-1.694 1.745,-1.982 3.354,-2.236z" id="svg_79"/>
    <path stroke="null" fill-rule="evenodd" clip-rule="evenodd" d="m-8.975168,57.810617c-0.154,0.497 -0.143,1.16 -0.559,1.397c-0.778,-0.154 -0.715,-1.148 -1.677,-1.118c-0.304,0.069 -0.189,0.556 -0.559,0.56c-0.164,0.748 1.15,1.423 1.398,0.838c0.987,1.228 -2.506,1.03 -2.516,0c0.036,-2.266 2.071,-2.524 3.913,-1.677z" id="svg_78"/>
    <path stroke="null" fill-rule="evenodd" clip-rule="evenodd" d="m4.163832,58.369617c-0.681,0.81 -2.26,0.723 -3.074,1.398c0.147,-1.342 1.497,-1.483 3.074,-1.398z" id="svg_77"/>
   </g>
  </g>
 </g>
</svg>