<svg width="100" height="100" xmlns="http://www.w3.org/2000/svg">
 <g>
  <title>background</title>
  <rect x="-1" y="-1" width="102" height="102" id="canvas_background" fill="none"/>
 </g>

 <g>
  <title>Layer 1</title>
  <g id="svg_1">
   <g id="svg_2">
    <g id="svg_3">
     <g id="svg_4">
      <g id="svg_5">
       <path d="m49.4,74.4c-7.2,0 -13.8,-2.1 -18.9,-5.9c-2.5,1.2 -5.4,1.8 -8.2,1.5c-8.3,-0.8 -14.4,-8.3 -13.6,-16.6c0.5,-4.7 3,-8.8 7,-11.3c0,-0.2 0,-0.3 0,-0.5c0,-12.3 11.1,-22.3 24.7,-22.3c4.8,0 9.4,1.2 13.4,3.5c2.6,-1.6 5.5,-2.4 8.6,-2.4c7.5,0 14.1,5.1 16,12.3c8.6,1.5 15,9.1 15,18c0,10.1 -8.2,18.3 -18.3,18.3c-2,0 -4,-0.3 -5.9,-1c-5.2,4 -12.3,6.4 -19.8,6.4zm-18.6,-9.9l0.9,0.7c4.5,3.7 11,5.8 17.7,5.8c7.1,0 13.7,-2.3 18.3,-6.3l0.8,-0.7l0.9,0.4c1.8,0.7 3.7,1.1 5.6,1.1c8.2,0 15,-6.7 15,-15c0,-7.6 -5.7,-14 -13.3,-14.8l-1.2,-0.1l-0.2,-1.2c-1.2,-6.2 -6.7,-10.7 -13,-10.7c-2.7,0 -5.4,0.8 -7.6,2.4l-0.9,0.6l-0.9,-0.6c-3.7,-2.3 -8,-3.6 -12.5,-3.6c-11.8,0 -21.4,8.5 -21.4,19c0,0.4 0,0.9 0.1,1.3l0.1,1.1l-1,0.5c-3.5,1.9 -5.8,5.4 -6.2,9.3c-0.6,6.5 4.1,12.3 10.6,13c2.6,0.3 5.1,-0.3 7.2,-1.6l1,-0.6z" id="svg_6"/>
      </g>
     </g>
    </g>
   </g>
  </g>
 </g>
</svg>