<svg width="100" height="125" xmlns="http://www.w3.org/2000/svg">

 <g>
  <title>background</title>
  <rect fill="none" id="canvas_background" height="402" width="582" y="-1" x="-1"/>
 </g>
 <g>
  <title>Layer 1</title>
  <g id="svg_1">
   <g id="svg_2">
    <g id="svg_3">
     <g id="svg_4">
      <path id="svg_5" d="m43.4,72.7c0,-0.1 0,-0.1 0,-0.2c0,-2.1 3.4,-8 6.5,-12.6c2.7,4 5.7,9 6.4,11.7c0.1,0.4 0.2,0.7 0.2,1c0,3.2 -2.9,5.8 -6.5,5.8c-3.7,-0.1 -6.5,-2.6 -6.6,-5.7z"/>
      <path id="svg_6" d="m59.7,78.8c0,-2.2 2.4,-6.9 5.2,-11.5c1.4,-2.3 2.9,-4.6 4.3,-6.7c1.4,2 2.9,4.4 4.3,6.7c2.8,4.6 5.1,9.3 5.1,11.5c0,4.7 -4.2,8.5 -9.4,8.5s-9.5,-3.9 -9.5,-8.5z"/>
      <path id="svg_7" d="m89.2,50.7c0,7.4 -4.9,13.7 -11.6,15.8c-2.9,-5 -6.2,-9.6 -6.8,-10.5l-1.6,-2.2l-1.6,2.2c-0.7,1 -5,7 -8.2,12.9c-2,-5.1 -6.8,-12 -8,-13.7l-1.6,-2.2l-1.6,2.2c-1.4,2 -8.4,11.8 -8.8,16.7c-4.4,-1 -8.3,-2.9 -11.3,-5.3c-2.4,1.4 -5.2,2.1 -8.2,1.8c-7.4,-0.7 -12.9,-7.4 -12.1,-14.8c0.5,-4.7 3.2,-8.5 7,-10.6c-0.1,-0.5 -0.1,-0.9 -0.1,-1.4c0.1,-11.3 10.4,-20.6 23.2,-20.6c5,0 9.6,1.4 13.4,3.8c2.4,-1.7 5.4,-2.7 8.5,-2.7c7.2,0 13.3,5.2 14.6,12.1c8.3,1 14.8,8 14.8,16.5z" fill="#000000"/>
     </g>
    </g>
   </g>
  </g>
 </g>
</svg>