<svg width="100" height="125" xmlns="http://www.w3.org/2000/svg">

 <g>
  <title>background</title>
  <rect fill="none" id="canvas_background" height="402" width="582" y="-1" x="-1"/>
 </g>
 <g>
  <title>Layer 1</title>
  <g id="svg_1">
   <g id="svg_2">
    <path id="svg_3" d="m50,88.75c-17.205,0 -21.162,-3.853 -21.988,-6.149l-0.071,-0.224l-13.579,-49.561l5.787,-1.586l13.409,48.945c0.795,0.578 4.414,2.575 16.442,2.575l0,6z"/>
   </g>
   <g id="svg_4">
    <path id="svg_5" d="m50,37.75c-14.97,0 -25.682,-0.788 -31.839,-2.341c-1.634,-0.413 -6.57,-1.658 -6.74,-4.991l-0.914,-13.084l5.986,-0.418l0.832,11.931c1.787,0.797 8.771,2.903 32.675,2.903l0,6z"/>
   </g>
   <g id="svg_6">
    <path id="svg_7" d="m49.834,88.75c-1.657,0 -3,-1.343 -3,-3s1.343,-3 3,-3c12.028,0 15.647,-1.997 16.441,-2.574l13.41,-48.946c0.438,-1.598 2.091,-2.533 3.687,-2.101c1.598,0.438 2.538,2.088 2.101,3.687l-13.579,49.561c-0.021,0.075 -0.045,0.149 -0.071,0.224c-0.827,2.296 -4.784,6.149 -21.989,6.149z"/>
   </g>
   <g id="svg_8">
    <path id="svg_9" d="m49.834,37.75c-1.657,0 -3,-1.343 -3,-3s1.343,-3 3,-3c18.03,0 26.467,-1.174 30.369,-2.159c1.159,-0.292 1.878,-0.558 2.304,-0.748l0.834,-11.927c0.117,-1.653 1.552,-2.898 3.202,-2.784c1.653,0.116 2.899,1.55 2.784,3.202l-0.916,13.084c-0.169,3.333 -5.105,4.578 -6.739,4.991c-6.156,1.553 -16.868,2.341 -31.838,2.341z"/>
   </g>
   <g id="svg_10">
    <path id="svg_11" d="m50,23c-9.825,0 -19.075,-0.303 -26.045,-0.852c-10.096,-0.794 -13.455,-1.632 -13.455,-5.023s3.359,-4.229 13.455,-5.023c6.97,-0.549 16.22,-0.852 26.045,-0.852s19.075,0.303 26.045,0.852c10.096,0.794 13.455,1.632 13.455,5.023s-3.359,4.229 -13.455,5.023c-6.97,0.549 -16.22,0.852 -26.045,0.852z"/>
   </g>
  </g>
 </g>
</svg>