<svg width="100" height="125" xmlns="http://www.w3.org/2000/svg">

 <g>
  <title>background</title>
  <rect fill="none" id="canvas_background" height="402" width="582" y="-1" x="-1"/>
 </g>
 <g>
  <title>Layer 1</title>
  <g id="svg_1">
   <path id="svg_2" d="m0.015,5.265c0,-1.65 1.35,-3 3,-3.001l93.999,-0.025c1.65,-0.001 3,1.349 3,2.999l0.006,18.62c0,1.65 -1.35,3.001 -3,3.001l-93.999,0.025c-1.65,0 -3,-1.349 -3,-2.999l-0.006,-18.62z"/>
   <path id="svg_3" d="m9.294,33.747c-0.317,-1.619 0.773,-2.944 2.424,-2.944l76.607,-0.021c1.65,0 2.771,1.33 2.492,2.956l-10.341,60.177c-0.279,1.626 -1.858,2.955 -3.509,2.956l-52.323,-0.007c-1.65,0.001 -3.259,-1.325 -3.575,-2.944l-11.775,-60.173z"/>
  </g>
 </g>
</svg>