<svg width="100" height="125" xmlns="http://www.w3.org/2000/svg">

 <g>
  <title>background</title>
  <rect fill="none" id="canvas_background" height="26.365836" width="21.492669" y="-1" x="-1"/>
 </g>
 <g>
  <title>Layer 1</title>
  <path fill="#7f3f00" id="svg_1" d="m19.697,59.203l5.303,0l0,1.982l9,0l0,-1.982l11,0l0,1.982l9,0l0,-1.982l11,0l0,1.982l9,0l0,-1.982l5.697,0c3.578,0 6.303,2.4 6.303,5.947l0,4.955l9,0l0,4.955l-8.803,0c0,3.547 -2.922,6.939 -6.5,6.939l-60,0c-3.578,0 -6.5,-3.393 -6.5,-6.939l-8.197,0l0,-4.955l8,0l0,-4.955c0,-3.546 3.119,-5.947 6.697,-5.947l0,0zm2.303,2.973l-2.303,0c-1.922,0 -3.697,1.068 -3.697,2.975l0,9.91c0,1.906 1.774,3.965 3.697,3.965l60,0c1.922,0 3.303,-2.059 3.303,-3.965l0,-9.91c0,-1.906 -1.381,-2.975 -3.303,-2.975l-2.697,0l0,1.982l-15,0l0,-1.982l-5,0l0,1.982l-15,0l0,-1.982l-5,0l0,1.982l-15,0l0,-1.982z" clip-rule="evenodd" fill-rule="evenodd"/>
  <path fill="#5fbf00" id="svg_2" d="m50.51,60.195l-1.47,0c0,-7.93 -0.119,-9.111 -4.346,-11.321c-1.991,-1.04 -4.343,-2.786 -4.454,-8.874c1.848,2.949 9.407,0.658 9.324,8.966c-1.658,-4.134 -5.948,-3.97 -7.875,-6.429c2.064,3.863 8.064,3.117 8.064,9.846c0,-3.387 5.347,-4.654 6.803,-7.366c-1.652,2.09 -5.759,3.169 -6.634,5.083c0,-4.99 7.611,-5.969 8.316,-6.904c-0.576,3.748 -1.758,5.451 -3.037,6.201c-4.632,2.717 -4.691,1.877 -4.691,10.798z" clip-rule="evenodd" fill-rule="evenodd"/>
  <path fill="#5fbf00" id="svg_3" d="m70.51,60.195l-1.47,0c0,-7.93 -0.12,-9.111 -4.347,-11.321c-1.99,-1.04 -4.342,-2.786 -4.453,-8.874c1.848,2.949 9.407,0.658 9.325,8.966c-1.66,-4.134 -5.95,-3.97 -7.876,-6.429c2.064,3.863 8.064,3.117 8.064,9.846c0,-3.387 5.347,-4.654 6.803,-7.366c-1.652,2.09 -5.759,3.169 -6.634,5.083c0,-4.99 7.611,-5.969 8.317,-6.904c-0.577,3.748 -1.759,5.451 -3.038,6.201c-4.631,2.717 -4.691,1.877 -4.691,10.798z" clip-rule="evenodd" fill-rule="evenodd"/>
  <path fill="#5fbf00" id="svg_4" d="m30.511,60.195l-1.471,0c0,-7.93 -0.119,-9.111 -4.346,-11.321c-1.991,-1.04 -4.343,-2.786 -4.454,-8.874c1.848,2.949 9.407,0.658 9.325,8.966c-1.659,-4.134 -5.949,-3.97 -7.876,-6.429c2.064,3.863 8.064,3.117 8.064,9.846c0,-3.387 5.347,-4.654 6.803,-7.366c-1.652,2.09 -5.759,3.169 -6.634,5.083c0,-4.99 7.611,-5.969 8.317,-6.904c-0.577,3.748 -1.759,5.451 -3.038,6.201c-4.632,2.717 -4.69,1.877 -4.69,10.798z" clip-rule="evenodd" fill-rule="evenodd"/>
  <path fill="#005fbf" id="svg_5" d="m28.364,70.502c-1.275,-0.969 -3.04,-1.586 -5.183,-1.586s-4.181,0.617 -5.181,1.586l0,4.559c0,1.086 0.603,1.982 1.697,1.982l60,0c1.094,0 2.303,-0.896 2.303,-1.982l0,-4.559c-2,0.969 -3.342,1.586 -5.485,1.586c-2.143,0 -4.134,-0.617 -5.409,-1.586c-1.273,-0.969 -3.228,-1.586 -5.37,-1.586s-4.079,0.617 -5.353,1.586c-1.275,0.969 -3.2,1.586 -5.343,1.586s-4.063,-0.617 -5.338,-1.586s-3.192,-1.586 -5.335,-1.586c-2.145,0 -4.062,0.617 -5.336,1.586s-3.191,1.586 -5.334,1.586s-4.058,-0.617 -5.333,-1.586z" clip-rule="evenodd" fill-rule="evenodd"/>
 </g>
</svg>