<svg width="100" height="100" xmlns="http://www.w3.org/2000/svg">

 <g>
  <title>background</title>
  <rect fill="none" id="canvas_background" height="102" width="102" y="-1" x="-1"/>
 </g>
 <g>
  <title>Layer 1</title>
  <g id="svg_1">
   <path id="svg_2" d="m50.285713,14.128586c-18.4,0 -33.3,14.9 -33.3,33.3c0,5.5 1.3,10.7 3.7,15.3l-3.7,18.1l18,-3.7c4.6,2.4 9.8,3.7 15.3,3.7c18.4,0 33.3,-14.9 33.3,-33.3c0,-18.6 -14.9,-33.4 -33.3,-33.4zm0,64.5c-5,0 -9.8,-1.2 -14.2,-3.5l-0.7,-0.4l-0.7,0.1l-14.8,3l3,-14.7l0.1,-0.7l-0.4,-0.7c-2.3,-4.5 -3.5,-9.3 -3.5,-14.3c0,-17.2 13.9,-31.1 31.1,-31.1c17.2,-0.1 31.1,13.9 31.1,31.1c0.1,17.2 -13.8,31.2 -31,31.2z"/>
   <path id="svg_3" d="m50.985713,54.928586l-1.5,0c-0.4,0 -0.6,0.3 -0.6,0.6l0,1.5c0,0.4 0.3,0.6 0.6,0.6l1.5,0c0.4,0 0.6,-0.3 0.6,-0.6l0,-1.5c0.1,-0.3 -0.2,-0.6 -0.6,-0.6z"/>
   <path id="svg_4" d="m54.985713,38.728586c-1.2,-1.1 -2.8,-1.6 -4.7,-1.6c-1.9,0 -3.4,0.5 -4.5,1.5c-1,0.9 -1.6,2.1 -1.9,3.7c0,0.2 0,0.4 0.1,0.5s0.3,0.2 0.4,0.3l1.3,0.2c0.3,0 0.6,-0.2 0.7,-0.5c0.2,-1.1 0.7,-2 1.3,-2.5c0.7,-0.7 1.6,-1 2.7,-1c1.1,0 2,0.4 2.8,1.1c0.8,0.7 1.1,1.6 1.1,2.6c0,0.5 -0.1,1 -0.4,1.5c-0.3,0.5 -0.8,1.1 -1.7,1.8c-0.9,0.8 -1.5,1.3 -1.8,1.7c-0.4,0.5 -0.8,1.1 -1,1.6c-0.3,0.7 -0.4,1.6 -0.4,2.7c0,0.4 0.3,0.6 0.6,0.6l1.1,0c0.3,0 0.6,-0.3 0.6,-0.6c0,-0.7 0.1,-1.2 0.2,-1.5c0.1,-0.4 0.3,-0.8 0.6,-1.2c0.2,-0.3 0.8,-0.9 1.6,-1.6c1.2,-1.1 2,-2 2.4,-2.7c0.4,-0.7 0.6,-1.6 0.6,-2.5c0.1,-1.7 -0.5,-3 -1.7,-4.1z"/>
  </g>
 </g>
</svg>