<svg xmlns="http://www.w3.org/2000/svg" xmlns:xlink="http://www.w3.org/1999/xlink" xmlns:sketch="http://www.bohemiancoding.com/sketch/ns" viewBox="0 0 22 27.5" version="1.1" x="0px" y="0px"><title>circle_help_question-mark_outline_stroke</title><description>Created with Sketch.</description><defs><path d="M11,0 C17.0751325,0 22,4.25329462 22,9.5 C22,14.7467054 17.0751325,19 11,19 C9.27848099,19 7.64932754,18.6584631 6.19842901,18.0495666 L0.766113281,20.5338135 L2.11319081,15.0997556 C0.784369101,13.5295217 0,11.5938697 0,9.5 C0,4.25329462 4.92486745,0 11,0 Z M11,1 C5.47715225,1 1,4.80557941 1,9.5 C1,11.5095409 1.82041116,13.356207 3.19206569,14.8112056 L2.06799316,19.0303955 L6.07579946,16.8997469 C7.52940879,17.6001346 9.20976698,18 11,18 C16.5228478,18 21,14.1944206 21,9.5 C21,4.80557941 16.5228478,1 11,1 Z M9.8684082,12.9257813 L11.3259278,12.9257813 L11.3259278,14.4492188 L9.8684082,14.4492188 L9.8684082,12.9257813 L9.8684082,12.9257813 Z M8.29370115,4.513916 C8.8894073,3.87182295 9.7072702,3.55078125 10.7473145,3.55078125 C11.7092334,3.55078125 12.4794893,3.8254367 13.0581055,4.37475585 C13.6367217,4.924075 13.9260254,5.6259723 13.9260254,6.48046875 C13.9260254,6.99804945 13.8198253,7.41796715 13.6074219,7.7402344 C13.3950185,8.0625016 12.966556,8.5361297 12.3220215,9.1611328 C11.8532692,9.61523665 11.5493171,9.9997543 11.4101563,10.3146973 C11.2709954,10.6296402 11.201416,11.0947235 11.201416,11.7099609 L9.8977051,11.7099609 C9.8977051,11.0117152 9.98071205,10.4489767 10.1467285,10.0217285 C10.312745,9.5944803 10.6765109,9.10498325 11.2380371,8.55322265 L11.8239746,7.9746094 C11.9997568,7.8085929 12.1413569,7.6352548 12.2487793,7.45458985 C12.4440928,7.13720545 12.5417481,6.8076189 12.5417481,6.4658203 C12.5417481,5.9873023 12.3989272,5.5722674 12.1132813,5.2207031 C11.8276353,4.86913885 11.3552279,4.6933594 10.6960449,4.6933594 C9.88061115,4.6933594 9.31665195,4.9960907 9.0041504,5.6015625 C8.82836825,5.93847825 8.7282716,6.42431325 8.7038574,7.05908205 L7.4001465,7.05908205 C7.4001465,6.00438925 7.69799505,5.15600905 8.29370115,4.513916 C8.29370115,4.513916 7.69799505,5.15600905 8.29370115,4.513916 L8.29370115,4.513916 Z" id="a"/></defs><g stroke="none" stroke-width="1" fill="none" fill-rule="evenodd" sketch:type="MSPage"><g><use fill="#000000" fill-rule="evenodd" sketch:type="MSShapeGroup" xlink:href="#a"/><use fill="none" xlink:href="#a"/></g></g><text x="0" y="37" fill="#000000" font-size="5px" font-weight="bold" font-family="'Helvetica Neue', Helvetica, Arial-Unicode, Arial, Sans-serif">Created by Pham Thi Dieu Linh</text><text x="0" y="42" fill="#000000" font-size="5px" font-weight="bold" font-family="'Helvetica Neue', Helvetica, Arial-Unicode, Arial, Sans-serif">from the Noun Project</text></svg>