<svg width="100" height="100" xmlns="http://www.w3.org/2000/svg">
 <g>
  <title>background</title>
  <rect x="-1" y="-1" width="102" height="102" id="canvas_background" fill="none"/>
 </g>

 <g>
  <title>Layer 1</title>
  <g id="svg_1" stroke="null">
   <g id="svg_2" stroke="null">
    <path fill="#00007f" d="m24.48765,75.87908c-0.29963,0 -0.6032,-0.07455 -0.88312,-0.21952c-0.66628,-0.35206 -1.08813,-1.0686 -1.08813,-1.85141l0,-20.70927c0,-0.78281 0.42185,-1.49935 1.08813,-1.8514c0.67023,-0.34792 1.47055,-0.27751 2.06193,0.19466l7.88499,6.21278c0.49676,0.38934 0.7885,1.00647 0.7885,1.65674l0,8.28371c0,0.65027 -0.29174,1.26741 -0.7885,1.65674l-7.88499,6.21278c-0.343,0.27336 -0.7609,0.41419 -1.17881,0.41419zm1.97125,-18.63834l0,12.42556l3.9425,-3.10639l0,-6.21278l-3.9425,-3.10639z" id="svg_3" stroke="null"/>
   </g>
   <g id="svg_4" stroke="null">
    <path fill="#00007f" d="m69.82636,82.09186c-0.52041,0 -1.02505,-0.21952 -1.39564,-0.60471l-11.25189,-11.82085l-24.80619,0c-1.08813,0 -1.97124,-0.92778 -1.97124,-2.07093s0.88311,-2.07092 1.97124,-2.07092l25.62623,0c0.52435,0 1.02505,0.21951 1.39564,0.60471l10.3806,10.9055l22.84676,-25.84931l-26.63945,-24.2547l-20.96225,22.02224l3.18554,3.34662c1.15515,1.21356 1.54151,2.97799 0.99745,4.59745c-0.54012,1.62361 -1.88846,2.7502 -3.51671,2.93658l-13.09303,1.52834c-1.06053,0.11597 -2.05404,-0.69169 -2.17625,-1.8307c-0.11828,-1.13486 0.65839,-2.1579 1.74258,-2.2863l13.09303,-1.52834l0.16558,-0.49288l-4.58118,-4.81284c-0.76878,-0.80766 -0.76878,-2.12063 0,-2.92829l23.65498,-24.85112c0.7333,-0.77039 1.90423,-0.8118 2.68484,-0.09941l29.56872,26.92205c0.40214,0.36863 0.64657,0.8905 0.67811,1.4538c0.0276,0.55915 -0.16164,1.11001 -0.52435,1.52006l-25.62623,28.99297c-0.36271,0.41419 -0.87129,0.65027 -1.40747,0.6627c-0.01577,0.00828 -0.02759,0.00828 -0.03942,0.00828z" id="svg_5" stroke="null"/>
   </g>
   <g id="svg_6" stroke="null">
    <path fill="#00007f" d="m42.22888,51.02796c-0.50464,0 -1.00927,-0.20295 -1.39564,-0.60471l-2.3103,-2.43127c-3.84394,-4.03831 -3.84394,-10.60729 0,-14.64146l17.15774,-18.02534c5.62594,-5.91043 14.78042,-5.91043 20.40636,0l7.30151,7.67071c3.84393,4.03831 3.84393,10.60729 0,14.64145l-0.33906,0.3562c-0.76879,0.80766 -2.01856,0.80766 -2.78734,0s-0.76879,-2.12063 0,-2.92829l0.33905,-0.3562c2.30636,-2.42298 2.30636,-6.36188 0,-8.78487l-7.3015,-7.67071c-4.08837,-4.2951 -10.7433,-4.2951 -14.83167,0l-17.15775,18.02534c-2.30636,2.42299 -2.30636,6.36189 0,8.78488l2.31031,2.42712c0.76878,0.80766 0.76878,2.12063 0,2.92829c-0.38243,0.40591 -0.88707,0.60886 -1.3917,0.60886l-0.00001,0z" id="svg_7" stroke="null"/>
   </g>
   <g id="svg_8" stroke="null">
    <path fill="#00007f" d="m4.77517,84.16279c-1.08813,0 -1.97125,-0.92778 -1.97125,-2.07093l0,-8.28371c0,-11.41909 8.84302,-20.70926 19.71248,-20.70926c1.08813,0 1.97125,0.92777 1.97125,2.07092s-0.88312,2.07093 -1.97125,2.07093c-8.69714,0 -15.76998,7.43048 -15.76998,16.56741l0,8.28371c0,1.14315 -0.88312,2.07093 -1.97125,2.07093z" id="svg_9" stroke="null"/>
   </g>
   <g id="svg_10" stroke="null">
    <path fill="#00007f" d="m12.66016,84.16279c-1.08813,0 -1.97124,-0.92778 -1.97124,-2.07093l0,-8.28371c0,-6.85062 5.3066,-12.42556 11.82748,-12.42556c1.08813,0 1.97125,0.92778 1.97125,2.07093c0,1.14315 -0.88312,2.07093 -1.97125,2.07093c-4.34857,0 -7.88499,3.71524 -7.88499,8.2837l0,8.28371c0,1.14315 -0.88312,2.07093 -1.97125,2.07093z" id="svg_11" stroke="null"/>
   </g>
   <g id="svg_12" stroke="null">
    <path fill="#00007f" d="m20.54516,84.16279c-1.08813,0 -1.97125,-0.92778 -1.97125,-2.07093l0,-8.28371c0,-2.28216 1.77018,-4.14185 3.94249,-4.14185c1.03294,0 1.74259,0.84908 1.8175,1.9301c0.0749,1.07689 -0.79639,2.05022 -1.8175,2.21175l0,8.28371c0,1.14315 -0.88311,2.07093 -1.97124,2.07093z" id="svg_13" stroke="null"/>
   </g>
  </g>
 </g>
</svg>