<?xml version="1.0" encoding="utf-8"?><!DOCTYPE svg PUBLIC "-//W3C//DTD SVG 1.1//EN" "http://www.w3.org/Graphics/SVG/1.1/DTD/svg11.dtd"><svg version="1.1" xmlns="http://www.w3.org/2000/svg" xmlns:xlink="http://www.w3.org/1999/xlink" x="0px" y="0px" viewBox="-0.021 12.712 99.999 95.44" enable-background="new -0.021 12.712 99.999 76.352" xml:space="preserve"><g><path d="M97.035,26.161c-2.731-4.927-6.988-8.763-12.652-11.095c-5.248-2.163-11.224-2.866-16.996-1.983
		c-5.793,0.883-11.013,3.384-15.18,7.043c-3.812,3.346-6.587,7.835-8.238,12.844h-2.523c-0.818,0-1.462,0.385-1.462,1.213v3.139
		c0,0.829,0.644,1.658,1.462,1.658h43.651c0.818,0,0.963-0.83,0.963-1.658v-3.139c0-0.828-0.145-1.213-0.963-1.213H50.426
		c1.331-3.005,3.258-6.022,5.78-8.239c3.304-2.9,7.514-4.859,12.17-5.57c9.881-1.508,19.286,2.592,23.399,10.008
		c2.645,4.769,5.303,14.583-5.716,30.257V46.005c0-1.692-0.842-3.018-2.516-3.018H42.998c-1.672,0-3.041,1.002-3.041,3.005h-9.229
		c-6.807-9.015-14.083-18.311-14.083-18.311c-0.276-0.35-0.426-0.804-0.492-1.274c-0.02-0.146-0.028-0.784,0-0.953
		c0.011-0.074,0.167-0.65,0.271-0.842l2.67-4.833c0.498-0.91,0.471-2.334-0.07-3.18c-0.543-0.848-1.686-1.067-2.549-0.503
		L0.812,26.633c-0.85,0.585-1.092,1.736-0.53,2.569c0.562,0.834,1.848,1.411,2.871,1.301l4.979-0.563l0.097-0.002
		c1.023-0.107,2.259,0.429,2.819,1.301l28.937,45.097v9.653c0,1.692,1.342,3.075,3.015,3.075h40.546
		c1.674,0,2.516-1.383,2.516-3.075v-16.41C104.09,47.399,100.77,32.891,97.035,26.161z M33.928,51h6.055v6.662
		C37.98,55.814,36.294,54.005,33.928,51z"/></g><text x="-0.021" y="104.06400000000001" fill="#000000" font-size="5px" font-weight="bold" font-family="'Helvetica Neue', Helvetica, Arial-Unicode, Arial, Sans-serif">Created by Gemma Garner</text><text x="-0.021" y="109.06400000000001" fill="#000000" font-size="5px" font-weight="bold" font-family="'Helvetica Neue', Helvetica, Arial-Unicode, Arial, Sans-serif">from the Noun Project</text></svg>