<svg width="99.21" height="124.01249999999999" xmlns="http://www.w3.org/2000/svg">

 <g>
  <title>background</title>
  <rect fill="none" id="canvas_background" height="402" width="582" y="-1" x="-1"/>
 </g>
 <g>
  <title>Layer 1</title>
  <path id="svg_1" d="m94.431,10.747c-8.109,-5.069 -10.947,-1.622 -10.947,-1.622l-26.152,21.692c0,0 -2.23,1.215 -2.23,5.271c0,4.054 0,7.906 0,7.906s-1.825,0.608 -1.825,2.434l-22.909,2.027c0,0 -2.027,-0.608 -5.271,4.864c-3.243,5.473 -23.922,37.911 -23.922,37.911l64.874,-18.045c0,0 5.271,-1.418 3.243,-7.904c-2.027,-6.489 -5.067,-12.367 -5.067,-12.367s0.405,-4.459 -1.622,-5.88c0,0 -0.405,-8.919 1.824,-10.339c2.23,-1.418 30.004,-16.015 30.004,-16.015s8.11,-4.865 0,-9.933zm-27.611,55.307c0.523,1.678 0.454,2.945 -0.212,3.761c-0.522,0.643 -1.27,0.88 -1.277,0.883l-58.344,16.226c6.097,-9.582 17.915,-28.193 20.338,-32.283c1.546,-2.611 2.593,-3.376 2.945,-3.577l22.78,-2.015c-1.44,1.201 -0.18,2.649 -0.18,2.649l-26.152,22.097l30.208,-17.841c3.041,0.203 4.996,-1.851 4.996,-1.851c0.03,0.058 2.966,5.767 4.898,11.951zm12.759,-39.441c-0.688,0.399 -1.652,1.01 -2.835,1.685c-2.353,1.375 -5.533,3.117 -8.672,4.899c-0.788,0.438 -1.572,0.885 -2.324,1.344c-0.734,0.452 -1.532,0.923 -2.112,1.363c-0.146,0.119 -0.299,0.19 -0.444,0.343l-0.217,0.226l-0.108,0.111l-0.03,0.031c-0.009,0.013 -0.019,0.029 -0.016,0.027c-0.174,0.334 -0.384,0.631 -0.528,0.978c-0.296,0.686 -0.544,1.364 -0.747,2.005c-0.388,1.287 -0.708,2.379 -0.878,3.154c-0.188,0.774 -0.295,1.218 -0.295,1.218s-0.033,-1.831 0.448,-4.554c0.132,-0.681 0.302,-1.417 0.571,-2.185c0.125,-0.388 0.341,-0.776 0.518,-1.181c0.191,-0.306 0.28,-0.357 0.431,-0.548c0.136,-0.158 0.347,-0.313 0.523,-0.472c0.749,-0.622 1.44,-1.094 2.222,-1.586c0.765,-0.484 1.552,-0.951 2.342,-1.408c3.183,-1.797 6.473,-3.352 8.98,-4.434c1.252,-0.546 2.32,-0.944 3.061,-1.243c0.743,-0.288 1.178,-0.433 1.178,-0.433s-0.389,0.239 -1.068,0.66z" fill="#000000"/>
 </g>
</svg>