<svg width="100" height="125" xmlns="http://www.w3.org/2000/svg">

 <g>
  <title>background</title>
  <rect fill="none" id="canvas_background" height="402" width="582" y="-1" x="-1"/>
 </g>
 <g>
  <title>Layer 1</title>
  <path id="svg_1" d="m33.596,53.295c0.173,0 -0.242,0.026 -0.652,-0.004c-6.115,-0.453 -11.451,-2.45 -14.02,-8.49c-2.592,-6.095 -1.101,-12.038 3.367,-16.393c4.222,-4.116 5.275,-8.703 5.261,-14.091c-0.005,-2.039 0.269,-4.122 0.737,-6.11c0.892,-3.789 3.568,-5.742 7.306,-6.312c13.76,-2.097 23.964,9.528 20.146,22.879c-0.678,2.372 -1.213,4.8 -1.606,7.235c-0.973,6.019 -3.602,11.242 -7.55,15.791c-3.238,3.731 -7.411,5.609 -12.989,5.495zm-10.024,-20.471c-3.657,5.347 -3,11.166 1.643,14.544c5.613,4.083 14.155,3.326 18.79,-1.853c3.551,-3.967 5.769,-8.661 6.782,-13.917c0.519,-2.694 1.015,-5.403 1.749,-8.042c2.904,-10.435 -4.973,-19.715 -15.698,-18.413c-3.275,0.398 -5.039,1.812 -5.578,5.109c-0.415,2.538 -0.331,5.158 -0.455,7.477c5.359,4.237 6.218,6.464 4.345,10.62c-2.159,4.796 -4.942,5.871 -11.578,4.475zm2.309,-2.589c3.769,1.158 5.945,0.068 7.212,-3.581c0.866,-2.492 0.296,-3.605 -2.106,-4.645c-1.669,2.689 -3.307,5.328 -5.106,8.226z"/>
  <path id="svg_2" d="m82.349,66.869c-1.738,9.439 -3.236,18.959 -10.678,26.082c-5.644,5.402 -12.092,6.741 -19.388,4.059c-7.629,-2.804 -10.809,-9.868 -7.535,-17.305c1.027,-2.332 2.572,-4.635 4.434,-6.351c2.55,-2.35 3.648,-5.077 3.837,-8.349c0.143,-2.471 0.116,-4.956 0.338,-7.419c0.573,-6.374 3.823,-9.36 10.187,-9.503c11.455,-0.258 18.527,6.808 18.805,18.786zm-32.63,10.306c-0.935,2.245 -1.992,4.171 -2.537,6.233c-0.94,3.556 0.281,6.632 3.244,8.697c4.184,2.915 8.887,3.896 13.697,1.841c5.476,-2.34 8.928,-6.883 11.163,-12.181c1.481,-3.51 2.209,-7.338 3.26,-11.028c2.975,-10.45 -4.973,-20.245 -15.632,-19.271c-3.455,0.316 -5.023,1.583 -5.898,4.768c-1.144,4.16 -0.742,5.481 2.327,7.664c3.817,2.713 4.691,5.685 2.822,9.596c-2.061,4.313 -5.301,5.834 -9.739,4.562c-0.656,-0.189 -1.299,-0.421 -2.707,-0.881zm7.279,-11.25c-1.279,3.065 -2.565,6.145 -3.859,9.244c2.94,1.401 5.109,0.573 6.723,-2.837c1.452,-3.068 0.717,-4.635 -2.864,-6.407z"/>
  <path id="svg_3" d="m45.357,21.242c1.665,1.927 1.655,3.954 1.035,6.186c-2.517,-1.981 -2.663,-2.815 -1.035,-6.186z"/>
  <path id="svg_4" d="m41.263,35.442c-0.387,1.534 -0.641,2.54 -0.995,3.946c-1.721,-2.261 -1.721,-2.261 0.995,-3.946z"/>
  <path id="svg_5" d="m39.493,12.381c0.249,0.525 0.613,0.956 0.623,1.395c0.014,0.594 -0.244,1.194 -0.412,1.901c-1.874,-1.504 -1.874,-1.504 -0.211,-3.296z"/>
  <path id="svg_6" d="m73.524,66.459c0.133,4.205 0.083,8.354 -4.147,11.267c0.713,-2.999 1.392,-6.007 2.159,-8.992c0.232,-0.903 0.703,-1.745 1.064,-2.615c0.308,0.113 0.616,0.226 0.924,0.34z"/>
  <path id="svg_7" d="m64.004,58.021c1.422,1.458 1.987,2.615 0.786,4.096c-1.657,-1.428 -1.657,-1.428 -0.786,-4.096z"/>
  <path id="svg_8" d="m59.956,88.505c-0.144,-1.308 0.071,-2.204 1.491,-2.287c0.251,-0.015 0.753,0.442 0.758,0.688c0.029,1.404 -0.791,1.777 -2.249,1.599z"/>
 </g>
</svg>