<svg width="48" height="60.00000125" xmlns="http://www.w3.org/2000/svg">

 <g>
  <title>background</title>
  <rect fill="none" id="canvas_background" height="402" width="582" y="-1" x="-1"/>
 </g>
 <g>
  <title>Layer 1</title>
  <g id="svg_1">
   <path id="svg_2" clip-rule="nonzero" fill="#000000" fill-rule="evenodd" stroke-width="2" stroke-linecap="round" stroke-linejoin="round" stroke-miterlimit="4" stroke-dashoffset="0" d="m8.498751,0.059617c-0.822116,-0.081 -1.664257,-0.084 -2.533408,0.019a1.000181,1.000116 0 0 0 -0.88093,0.922c-0.216149,3.0722 0.648115,5.5417 1.951329,8.1368c-0.083923,0.3664 -0.708534,3.0729 -0.947342,4.7481c-0.440739,3.0921 -0.822687,6.2455 -0.812566,9.4357c0.00951,2.9978 0.473632,5.9125 0.808659,8.7619c0.268861,2.2866 0.907377,6.3868 0.961015,6.7325c-1.228189,2.5152 -2.384984,5.1351 -1.953282,8.2384a1.000181,1.000116 0 0 0 0.929762,0.8613c3.398018,0.2035 6.221839,-0.7647 9.182382,-1.9921l18.554232,0c2.53177,1.2417 5.169058,2.4202 8.297546,1.9843a1.000181,1.000116 0 0 0 0.859443,-0.9218c0.21615,-3.0723 -0.648119,-5.5398 -1.951328,-8.1349c0.08312,-0.3648 0.705486,-3.0767 0.947341,-4.7482c0.426154,-2.9453 0.809174,-5.9491 0.812566,-8.9962c0.0035,-3.1407 -0.463004,-6.2029 -0.808659,-9.1994c-0.264318,-2.2914 -0.90703,-6.391 -0.961015,-6.7364c1.228165,-2.5152 2.384975,-5.1332 1.953283,-8.2364a1.000181,1.000116 0 0 0 -0.929763,-0.8615c-3.400224,-0.2035 -6.225619,0.7638 -9.188242,1.9923l-17.575637,0c-2.120832,-0.8664 -4.323758,-1.7701 -6.715386,-2.0059l0,0.0005zm-1.320419,2.0958c2.491579,-0.024 4.913925,0.786 7.484978,1.8359a1.000181,1.000116 0 0 0 0.376985,0.074l17.919414,0a1.000181,1.000116 0 0 0 0.384798,-0.078c2.621101,-1.0956 4.917925,-1.7671 7.494746,-1.8164c0.02224,2.1756 -0.710512,4.1951 -1.810694,6.4317a1.000181,1.000116 0 0 0 -0.08985,0.5977c0,0 0.727287,4.6554 0.990314,6.9356c0.351018,3.043 0.798306,6.0299 0.794986,8.9689c-0.0032,2.8806 -0.368406,5.7918 -0.791078,8.7131c-0.227262,1.5706 -0.980549,4.9044 -0.980549,4.9044a1.000181,1.000116 0 0 0 0.08595,0.6797c1.164636,2.2558 1.743128,4.1723 1.783347,6.4356c-2.173675,0.023 -4.189991,-0.7087 -6.424346,-1.8106a1.000181,1.000116 0 0 0 -0.443395,-0.1035l-18.913636,0a1.000181,1.000116 0 0 0 -0.384797,0.078c-2.621079,1.0958 -4.917936,1.7653 -7.494746,1.8145c-0.021681,-2.1749 0.710841,-4.1959 1.810693,-6.4317a1.000181,1.000116 0 0 0 0.089851,-0.5938c0,0 -0.721756,-4.6555 -0.990314,-6.9396c-0.341194,-2.9017 -0.786123,-5.7423 -0.794986,-8.5353c-0.0096,-3.0262 0.354547,-6.084 0.791079,-9.1466c0.223366,-1.5669 0.980548,-4.9004 0.980548,-4.9004a1.000181,1.000116 0 0 0 -0.085944,-0.6817c-1.163946,-2.2546 -1.742365,-4.1703 -1.783347,-6.4317l-0.000007,0.0002z"/>
   <path id="svg_3" clip-rule="nonzero" fill="#000000" fill-rule="evenodd" stroke-width="2" stroke-linecap="round" stroke-linejoin="round" stroke-miterlimit="4" stroke-dashoffset="0" d="m14.999275,23.999417a1.000181,1.000116 0 0 0 -1.00008,1l0,8.0002a1.000181,1.000116 0 0 0 1.00008,1l19.001535,0a1.000181,1.000116 0 0 0 1.00008,-1l0,-8.0002a1.000181,1.000116 0 0 0 -1.00008,-1l-19.001535,0zm1.000081,2.0001l17.001373,0l0,6l-17.001373,0l0,-6z"/>
   <path id="svg_4" clip-rule="nonzero" fill="#000000" fill-rule="nonzero" stroke-width="2" stroke-linecap="round" stroke-linejoin="round" stroke-miterlimit="4" stroke-dashoffset="0" d="m23.998049,9.999217c-1.330099,0 -2.241495,1.0313 -2.675997,2.2754c-1.250737,0.1483 -2.406055,0.7407 -2.734596,1.9591c-0.282706,1.0569 0.26013,2.0114 1.054772,2.7441c-0.461299,1.0294 -0.573443,2.1756 0.169936,3.045c1.049173,1.2265 2.802679,1.1025 4.187838,0.252c1.385158,0.8505 3.138665,0.9745 4.187838,-0.252c0.743379,-0.8694 0.631235,-2.0156 0.169936,-3.045c0.794642,-0.7327 1.337478,-1.6872 1.054772,-2.7441c-0.32854,-1.2184 -1.483859,-1.8108 -2.734596,-1.9591c-0.434502,-1.2441 -1.345898,-2.2732 -2.675997,-2.2754a1.000181,1.000116 0 0 0 -0.0039,0l-0.000006,0zm0.002,2c0.422514,0 0.928458,0.4268 1.025474,1.2345a1.000181,1.000116 0 0 0 1.066492,0.8789c0.81654,-0.06 1.302622,0.3231 1.388784,0.6426c0.07779,0.2946 -0.08644,0.7601 -0.726622,1.1055a1.000181,1.000116 0 0 0 -0.300805,1.5117c0.472926,0.5798 0.438048,1.0925 0.214862,1.3535c-0.277525,0.3244 -1.133527,0.4176 -1.884919,-0.1836c-0.03703,-0.03 -0.07272,-0.06 -0.10743,-0.092a1.000181,1.000116 0 0 0 -1.351671,0c-0.03471,0.032 -0.07041,0.062 -0.107431,0.092c-0.751392,0.6012 -1.607394,0.508 -1.884918,0.1836c-0.223186,-0.261 -0.258065,-0.7737 0.214861,-1.3535a1.000181,1.000116 0 0 0 -0.300805,-1.5117c-0.641322,-0.346 -0.805412,-0.8129 -0.726622,-1.1075c0.08699,-0.3193 0.573189,-0.7003 1.388784,-0.6406a1.000181,1.000116 0 0 0 1.066492,-0.8789c0.09702,-0.8077 0.60296,-1.2327 1.025474,-1.2345z"/>
   <path id="svg_5" fill="#000000" stroke-width="2" stroke-linecap="round" stroke-linejoin="round" stroke-miterlimit="4" stroke-dashoffset="0" d="m25.000083,15.500217a1.000081,1.000016 0 0 1 -1.000081,1a1.000081,1.000016 0 0 1 -1.000081,-1a1.000081,1.000016 0 0 1 1.000081,-1a1.000081,1.000016 0 0 1 1.000081,1z"/>
  </g>
  <text id="svg_7" font-family="'Helvetica Neue', Helvetica, Arial-Unicode, Arial, Sans-serif" font-weight="bold" font-size="5px" fill="#000000" y="68.000001" x="0">from the Noun Project</text>
 </g>
</svg>