<svg width="100" height="125" xmlns="http://www.w3.org/2000/svg">

 <g>
  <title>background</title>
  <rect fill="none" id="canvas_background" height="402" width="582" y="-1" x="-1"/>
 </g>
 <g>
  <title>Layer 1</title>
  <g id="svg_1">
   <path id="svg_2" d="m85.952,37.641c-3.944,2.207 -11.164,6.839 -18.725,10.646c-0.224,-0.624 -0.461,-1.219 -0.711,-1.783c0.612,-1.015 0.697,-2.312 0.106,-3.438c-1.578,-3.004 -3.672,-5.269 -6.222,-6.729c-1.166,-0.668 -2.555,-0.589 -3.615,0.083c-0.737,-0.307 -1.388,-0.511 -1.902,-0.646c3.797,-7.52 8.394,-14.688 10.59,-18.612c4.195,-7.499 0.812,-8.608 0.812,-8.608c-18.33,17.884 -28.415,45.319 -28.415,45.319c-0.419,0.669 -0.453,1.409 -0.21,2.147c0.031,0.067 0.06,0.14 0.086,0.217c0.8,-0.629 1.788,-1.215 3.027,-1.853c1.692,-0.87 2.926,-0.75 3.82,-0.196c-0.136,0.06 -0.274,0.123 -0.417,0.196c-5.144,2.646 -5.984,4.402 -6.865,12.054c-0.88,7.651 -8.022,14.233 -14.699,19.427s-0.725,5.581 -0.725,5.581c24.552,-5.652 28.835,-18.92 29.051,-26.866c6.249,-2.518 28.396,-12.147 43.621,-27.752c0.002,0 -1.107,-3.383 -8.607,0.813zm-39.658,26.196c-1.246,1.246 -3.266,1.246 -4.512,0c-1.246,-1.245 -1.246,-3.266 0,-4.512c1.246,-1.246 3.266,-1.246 4.512,0s1.246,3.267 0,4.512zm2.607,-9.624c0.011,-4.309 1.883,-9.737 4.413,-15.199c0.162,0.023 0.861,0.138 1.854,0.525c0.056,1.153 0.677,2.255 1.753,2.872c1.377,0.788 2.556,2.104 3.505,3.911c0.61,1.162 1.782,1.836 3.007,1.87c0.22,0.514 0.428,1.056 0.624,1.628c-5.448,2.521 -10.859,4.382 -15.156,4.393z" fill="#000000"/>
   <path id="svg_3" d="m31.413,73.355c1.315,-2.192 2.218,-4.502 2.496,-6.917c0.213,-1.853 0.424,-3.357 0.695,-4.615l0,-0.003c0,0 0.002,-0.008 0.004,-0.02c0.162,-0.75 0.346,-1.412 0.564,-2.005c0.171,-0.543 0.375,-1.146 0.608,-1.747c-0.269,0.209 -0.543,0.425 -0.829,0.651c-6.033,4.788 -15.738,4.393 -24.131,3.344c-8.394,-1.049 -4.459,3.433 -4.459,3.433c10.373,6.492 18.636,8.331 25.052,7.879z" fill="#000000"/>
  </g>
 </g>
</svg>