<svg width="100" height="125" xmlns="http://www.w3.org/2000/svg">

 <g>
  <title>background</title>
  <rect fill="none" id="canvas_background" height="402" width="582" y="-1" x="-1"/>
 </g>
 <g>
  <title>Layer 1</title>
  <g id="svg_1">
   <path id="svg_2" d="m81.8,8.6c-2.6,-2.7 -5.9,-4 -9.9,-3.9c-10.3,0.4 -16,12.6 -17.4,16.3c-0.6,-0.4 -1.1,-0.8 -1.6,-1.1c-1.6,-1 -3.7,-1 -5.3,0c-0.5,0.3 -1.1,0.7 -1.7,1.2c-1.9,-4.3 -7.5,-15.3 -17.2,-15.6c-4.2,-0.1 -7.5,1.1 -10.2,3.9c-7.9,8.3 -10.3,30.5 -7.3,70c0,0.3 0.2,0.5 0.5,0.5c0,0 0,0 0,0c0.3,0 0.5,-0.3 0.5,-0.6c-2.9,-38.6 -0.6,-61.3 7,-69.2c2.4,-2.6 5.4,-3.7 9.4,-3.6c9.3,0.4 14.8,11.5 16.4,15.4c-1.6,1.5 -3.1,3.7 -4,6.8c-1.5,-0.9 -3.6,-2.7 -3.9,-5.5c-0.5,-4.4 -4.6,-11.4 -6.8,-11.6c0,0 2.6,4.2 3.3,7.6s2.2,11.9 7.7,12l0,0c0.9,1.1 3.1,2.4 8.9,2.3c5.8,0.1 8.1,-1.2 8.9,-2.3c5.3,-0.3 6.7,-8.6 7.5,-12c0.7,-3.4 3.3,-7.6 3.3,-7.6c-2.2,0.2 -6.3,7.2 -6.8,11.6c-0.3,2.7 -2.3,4.5 -3.8,5.4c-0.9,-3.2 -2.5,-5.3 -4.1,-6.8c1.2,-3 6.7,-15.6 16.6,-15.9c3.8,-0.1 6.7,1 9.1,3.6c7.8,8.2 10.2,31.2 7.3,70.5c0,0.3 0.2,0.5 0.5,0.6c0,0 0,0 0,0c0.3,0 0.5,-0.2 0.5,-0.5c3.1,-39.7 0.6,-63.1 -7.4,-71.5z" fill="#000000"/>
   <path id="svg_3" d="m72.4,69.3c-0.2,-1.3 -1.1,-2.5 -2.3,-3l-6,-2.6c0.7,-5.2 0.3,-10.5 -0.5,-15.2l1.8,-0.2c0.7,-0.1 1.3,0.3 1.6,0.8l5.2,6.3l2.2,2.7c0,0 0,0.1 0,0.1l0.1,0l1.4,1l4.2,0l1.9,0l-3.1,-1.2c-1.5,-0.8 -3.1,-1.8 -3.8,-2.7c-1.3,-1.7 -5,-10.2 -6.5,-10.4c-0.8,-0.1 -3.5,-0.1 -5.7,-0.1c-1.4,-6.3 -3.3,-10.6 -3.3,-10.6c-12.3,4 -18.8,0 -18.8,0c-1.6,3.8 -2.7,7.3 -3.5,10.7c-2.2,0 -5.9,-0.1 -7,0c-1.5,0.2 -5.2,8.7 -6.5,10.4c-0.7,0.9 -2.3,1.9 -3.8,2.7l-3.1,1.2l1.9,0l4.2,0l1.4,-1l0.1,0c0,0 0,-0.1 0,-0.1l2.2,-2.7l5.2,-6.3c0.3,-0.6 1,-0.9 1.6,-0.8l3,0.3c-1,5.8 -0.9,10.8 -0.2,15.1l-5.3,2.4c-1.5,0.7 -2.6,2.1 -2.9,3.7l-2.9,16.8l-6.8,8c0,0 2.1,0.6 5.5,-3.6c3.4,-4.2 3.4,-4.2 3.4,-4.2l4.2,-14.7c0.5,-1.9 2.1,-3.3 4,-3.6l1.6,-0.3c1.2,3.9 2.8,7.1 4.4,9.5c-1,2 -2.9,5.2 -4.6,5.9c0,0 4.2,-1.6 6.1,-3.9c2.1,2.6 3.9,3.9 3.9,3.9c8.5,-7.7 3.1,-45.5 3.1,-45.5c9.4,27.1 -0.7,46.2 -0.7,46.2c2.8,-1.4 5.2,-3 7.1,-4.9c1.8,2.4 6.3,4.2 6.3,4.2c-1.7,-0.7 -3.6,-4 -4.6,-6c2.4,-2.8 3.9,-6 4.9,-9.4l2.5,0.4c1.6,0.2 2.8,1.4 3.3,2.9l4.4,15.3c0,0 0,0 3.4,4.2c3.4,4.2 5.5,3.6 5.5,3.6l-6.8,-8l-2.9,-17.3z" fill="#000000"/>
  </g>
 </g>
</svg>