<svg width="100" height="125" xmlns="http://www.w3.org/2000/svg">

 <g>
  <title>background</title>
  <rect fill="none" id="canvas_background" height="127" width="102" y="-1" x="-1"/>
 </g>
 <g>
  <title>Layer 1</title>
  <g stroke="null" id="svg_1">
   <path fill="#A98E49" stroke="null" id="svg_2" d="m89.931371,68.647116c-3.778921,-3.587317 -19.926478,-15.992982 -33.8546,-39.83535c-1.111447,-1.948147 -2.294685,-4.295011 -4.810794,-4.270021c-0.017299,0 -0.029408,0 -0.041517,0.003408l0,-0.003408c-0.019029,0 -0.036327,0.003408 -0.053626,0.006816l-0.017299,0c-2.641525,0.145401 -4.093759,2.663793 -5.654975,5.048143c-12.495782,19.679126 -30.327376,35.557378 -35.132115,38.354077c-2.119102,1.192743 -3.629286,3.339681 -3.619772,6.022785c0.190287,4.650562 3.569606,8.165179 8.884659,11.46851c5.891103,3.485082 20.047569,6.758878 35.607832,6.788413c7.535354,0 15.365651,-0.789482 22.651037,-2.788747c14.106299,-4.030336 18.937852,-8.14246 19.278638,-13.999397c-0.052761,-3.138618 -1.681443,-5.286692 -3.237469,-6.795228zm-2.742723,11.089104c-1.440989,1.088236 -3.513385,2.229862 -6.29503,3.365808c0.00173,-0.038622 0.017299,-0.072701 0.017299,-0.111323c0,-1.006448 -0.617567,-1.818649 -1.380444,-1.818649c-0.766336,0 -1.387363,0.812201 -1.387363,1.818649c0,0.395309 0.117632,0.74518 0.2837,1.047342c-1.510184,0.531623 -3.182113,1.05643 -5.047787,1.572149c-0.238723,-0.541846 -0.666868,-0.921252 -1.178048,-0.921252c-0.676383,0 -1.21524,0.657713 -1.333737,1.505128c-6.343467,1.480137 -13.077886,2.151481 -19.628074,2.151481c-6.220645,0.013631 -12.266573,-0.562293 -17.592871,-1.448331c0.255157,-0.461194 0.43593,-1.001904 0.43593,-1.616451c0,-1.566469 -0.968732,-2.843273 -2.162349,-2.843273c-1.192752,0 -2.163214,1.276803 -2.163214,2.843273c0,0.326016 0.06487,0.632722 0.142715,0.926932c-1.105393,-0.231733 -2.160619,-0.475961 -3.174328,-0.725869c0.021623,-0.12609 0.057951,-0.243092 0.057951,-0.379406c0,-1.009856 -0.621892,-1.818649 -1.384768,-1.818649c-0.674653,0 -1.21351,0.645217 -1.333737,1.490361c-3.135406,-0.914436 -5.623837,-1.908389 -7.204082,-2.864855c-5.052977,-2.910293 -7.345932,-6.604389 -7.15132,-7.935718c0.00519,-0.657713 0.260347,-1.477866 1.86654,-2.467274c2.152835,-1.29157 6.165289,-4.49153 11.010681,-9.100062c0.07179,0.9133 0.638325,1.634626 1.351036,1.634626c0.761147,0 1.377849,-0.808793 1.377849,-1.816377c0,-0.740637 -0.339921,-1.372223 -0.823422,-1.657345c4.515849,-4.440412 9.599964,-9.981556 14.550878,-16.264473c-0.004325,0.067021 -0.029408,0.12041 -0.029408,0.185159c0,1.890214 1.156424,3.421469 2.601738,3.421469c1.4358,0 2.595684,-1.531255 2.595684,-3.421469c0,-1.886806 -1.160749,-3.413517 -2.595684,-3.413517c-0.040652,0 -0.074385,0.027263 -0.115902,0.027263c2.160619,-2.880759 4.277126,-5.883064 6.273407,-9.011459c1.611382,-2.586549 2.617307,-3.74067 3.471002,-3.658882l0.0666,0l0.028543,-0.006816c0.889158,0.044302 0.986031,0.418028 2.389828,2.754669c14.228256,24.411477 30.947538,37.251073 34.466112,40.608929c1.267136,1.183656 2.0698,2.675153 2.016174,3.65093c0.012974,0.82924 -0.448039,2.348 -3.022099,4.297283zm-72.171423,-3.330593c-0.761147,0 -1.383038,0.812201 -1.383038,1.811834c0,1.00304 0.621892,1.818649 1.383038,1.818649c0.766336,0 1.382173,-0.815609 1.382173,-1.818649c0,-0.999632 -0.615837,-1.811834 -1.382173,-1.811834zm2.798944,-6.249974c-0.761147,0 -1.385633,0.812201 -1.385633,1.811834c0,1.006448 0.623621,1.818649 1.385633,1.818649c0.760282,0 1.376984,-0.812201 1.376984,-1.818649c0,-0.999632 -0.616702,-1.811834 -1.376984,-1.811834zm14.772303,5.785372c-0.760282,0 -1.382173,0.812201 -1.382173,1.814106c0,1.004176 0.621892,1.820921 1.382173,1.820921c0.766336,0 1.387363,-0.816745 1.387363,-1.820921c0,-1.001904 -0.621027,-1.814106 -1.387363,-1.814106zm26.212859,-5.092445c-0.761147,0 -1.380444,0.813337 -1.380444,1.818649c0,1.00304 0.619297,1.816377 1.380444,1.816377c0.768066,0 1.387363,-0.813337 1.387363,-1.816377c0,-1.006448 -0.619297,-1.818649 -1.387363,-1.818649zm-27.508538,-7.161003c0.763742,0 1.385633,-0.816745 1.385633,-1.816377c0,-1.00304 -0.621892,-1.81297 -1.385633,-1.81297c-0.762877,0 -1.382173,0.808793 -1.382173,1.81297c0,0.999632 0.619297,1.816377 1.382173,1.816377zm-1.062146,1.441515c0,-0.999632 -0.619297,-1.816377 -1.382173,-1.816377c-0.763742,0 -1.384768,0.816745 -1.384768,1.816377s0.621027,1.815242 1.384768,1.815242c0.763742,0 1.382173,-0.815609 1.382173,-1.815242zm1.928815,8.198121c0,-0.999632 -0.621027,-1.81297 -1.387363,-1.81297c-0.761147,0 -1.382173,0.813337 -1.382173,1.81297c0,1.00872 0.621027,1.822057 1.382173,1.822057c0.767201,0.001136 1.387363,-0.813337 1.387363,-1.822057zm5.387709,-11.197018c-1.194482,0 -2.164944,1.264308 -2.164944,2.835321c0,1.567605 0.970462,2.843273 2.164944,2.843273c1.189292,0 2.160619,-1.275667 2.160619,-2.843273c0,-1.569877 -0.971327,-2.835321 -2.160619,-2.835321zm14.277557,-22.399717c-0.768931,0 -1.380444,0.806522 -1.380444,1.816377c0,0.998496 0.611512,1.81297 1.380444,1.81297c0.763742,0 1.379579,-0.814473 1.379579,-1.81297c-0.000865,-1.00872 -0.615837,-1.816377 -1.379579,-1.816377zm-2.016174,-4.061007c0.763742,0 1.380444,-0.819017 1.380444,-1.818649c0,-1.005312 -0.616702,-1.81297 -1.380444,-1.81297c-0.765472,0 -1.379579,0.806522 -1.379579,1.81297c-0.000865,0.999632 0.614107,1.818649 1.379579,1.818649zm-2.215975,19.208845c-0.763742,0 -1.380444,0.816745 -1.380444,1.811834c0,1.00872 0.616702,1.822057 1.380444,1.822057s1.383038,-0.813337 1.383038,-1.822057c0,-0.996225 -0.619297,-1.811834 -1.383038,-1.811834zm1.025818,-12.421568c-0.761147,0 -1.379579,0.815609 -1.379579,1.818649c0,1.005312 0.618432,1.81297 1.379579,1.81297c0.766336,0 1.384768,-0.806522 1.384768,-1.81297c0,-1.00304 -0.618432,-1.818649 -1.384768,-1.818649zm-12.499242,10.741504c0,-1.00304 -0.616702,-1.818649 -1.379579,-1.818649c-0.758552,0 -1.380444,0.815609 -1.380444,1.818649c0,1.005312 0.621892,1.816377 1.380444,1.816377c0.762877,0 1.379579,-0.811065 1.379579,-1.816377zm10.558317,10.317796c0,-0.999632 -0.616702,-1.814106 -1.377849,-1.814106c-0.765472,0 -1.382173,0.814473 -1.382173,1.814106c0,1.007584 0.616702,1.822057 1.382173,1.822057c0.761147,-0.001136 1.377849,-0.815609 1.377849,-1.822057zm0.048437,17.434497c-0.761147,0 -1.379579,0.812201 -1.379579,1.816377c0,1.00872 0.618432,1.815242 1.379579,1.815242c0.763742,0 1.383038,-0.806522 1.383038,-1.815242c-0.000865,-1.004176 -0.620162,-1.816377 -1.383038,-1.816377zm11.334168,1.517624c-0.761147,0 -1.380444,0.816745 -1.380444,1.816377c0,1.00304 0.619297,1.816377 1.380444,1.816377c0.762877,0 1.382173,-0.813337 1.382173,-1.816377c-0.000865,-0.999632 -0.619297,-1.816377 -1.382173,-1.816377zm-34.974696,-4.826634c-0.765472,0 -1.384768,0.813337 -1.384768,1.816377c0,1.006448 0.618432,1.815242 1.384768,1.815242c0.763742,0 1.383038,-0.808793 1.383038,-1.815242c-0.000865,-1.00304 -0.620162,-1.816377 -1.383038,-1.816377zm62.299002,-2.396846c-0.761147,0 -1.380444,0.816745 -1.380444,1.822057c0,1.004176 0.619297,1.81297 1.380444,1.81297c0.771526,0 1.387363,-0.808793 1.387363,-1.81297c0,-1.005312 -0.615837,-1.822057 -1.387363,-1.822057zm-61.730737,-4.598309c-1.098473,0 -1.989361,1.16548 -1.989361,2.604724c0,1.442651 0.890888,2.613811 1.989361,2.613811s1.989361,-1.17116 1.989361,-2.613811c0,-1.439243 -0.891753,-2.604724 -1.989361,-2.604724z"/>
  </g>
 </g>
</svg>