<svg width="99.99999999999999" height="125.00000000000001" xmlns="http://www.w3.org/2000/svg">
 <g>
  <title>background</title>
  <rect x="-1" y="-1" width="29.027027" height="35.783784" id="canvas_background" fill="none"/>
 </g>

 <g>
  <title>Layer 1</title>
  <path stroke="null" d="m71.468843,34.714437c-5.343607,-0.920872 -12.431391,-1.428965 -19.958221,-1.428965c-7.52608,0 -14.613864,0.507342 -19.957471,1.428965c-6.47462,1.116003 -9.36257,2.602757 -9.36257,4.819753l0,10.018512c0,1.254096 0.706227,2.378355 1.962575,3.368274l7.845796,39.835388c1.355415,5.961274 9.379081,10.124334 19.51167,10.124334c10.131839,0 18.154754,-4.163811 19.519926,-10.165612l7.83754,-39.79411c1.256348,-0.989918 1.961824,-2.114177 1.961824,-3.368274l0,-10.018512c0,-2.216996 -2.887199,-3.702999 -9.361069,-4.819753zm-19.958221,20.688464c-17.105546,0 -26.435844,-3.864358 -26.435844,-5.850199l0,-6.899407c1.516774,0.656693 3.656468,1.21432 6.478373,1.700648c5.344357,0.921622 12.431391,1.428965 19.957471,1.428965c7.52683,0 14.615365,-0.507342 19.958221,-1.428965c2.821154,-0.486328 4.960098,-1.043955 6.477622,-1.700648l0,6.899407c-0.000751,1.98584 -9.331799,5.850199 -26.435844,5.850199zm16.698771,36.713281c-0.890851,3.916894 -6.912166,7.88107 -16.698771,7.88107s-15.808671,-3.964176 -16.690516,-7.839041l-7.364721,-37.395491c5.584519,2.32657 14.854026,3.524379 24.055987,3.524379c9.201961,0 18.470717,-1.198559 24.055237,-3.524379l-7.357216,37.353463z" id="svg_1"/>
 </g>
</svg>