<svg width="100" height="125" xmlns="http://www.w3.org/2000/svg">
 <!-- Created with Method Draw - http://github.com/duopixel/Method-Draw/ -->

 <g>
  <title>background</title>
  <rect fill="none" id="canvas_background" height="127" width="102" y="-1" x="-1"/>
 </g>
 <g>
  <title>Layer 1</title>
  <g transform="rotate(-21.40287971496582 4.97844362258908,44.80157470703126) " id="svg_28">
   <g id="svg_26">
    <title transform="translate(-0.28571346402168274,-1.142853856086731) translate(1.142853856086731,6.285696506500244) translate(-23.428504943847656,1.9999942779541016) translate(10.285684585571289,2.8571345806121826) translate(-5.944604396820068,0.312873899936676) translate(6.2574782371521,9.699091911315918) translate(-33.477508544921875,-35.667625427246094) translate(-0.9386217594146729,-2.8158652782440186) translate(15.75145149230957,0) translate(0,8.905999183654785) ">background</title>
    <rect x="-31.637485" y="-10.565554" width="26.390242" height="32.487802" id="svg_24" fill="none"/>
   </g>
   <g id="svg_27">
    <title transform="translate(-0.28571346402168274,-1.142853856086731) translate(1.142853856086731,6.285696506500244) translate(-23.428504943847656,1.9999942779541016) translate(10.285684585571289,2.8571345806121826) translate(-5.944604396820068,0.312873899936676) translate(6.2574782371521,9.699091911315918) translate(-33.477508544921875,-35.667625427246094) translate(-0.9386217594146729,-2.8158652782440186) translate(15.75145149230957,0) translate(0,8.905999183654785) ">Layer 1</title>
    <path d="m34.615869,52.48824c-3.983558,-0.644124 -9.267368,-0.999523 -14.878479,-0.999523c-5.610551,0 -10.894361,0.354872 -14.877919,0.999523c-4.826708,0.780614 -6.979619,1.820559 -6.979619,3.371288l0,7.007679c0,0.877207 0.526478,1.663595 1.463063,2.356016l5.848893,27.86378c1.010436,4.16975 6.991928,7.081698 14.545582,7.081698c7.553095,0 13.534027,-2.912472 14.551737,-7.110571l5.842738,-27.834906c0.936584,-0.69242 1.462503,-1.47881 1.462503,-2.356016l0,-7.007679c0,-1.550729 -2.152353,-2.590148 -6.9785,-3.371288l0.000001,0.000001l0,-0.000001l0,-0.000001zm-14.878479,14.471022c-12.751862,0 -19.707424,-2.703014 -19.707424,-4.092055l0,-4.825949c1.130726,0.459339 2.725828,0.849384 4.829505,1.189558c3.984118,0.64465 9.267368,0.999523 14.877919,0.999523c5.61111,0 10.895479,-0.354872 14.878479,-0.999523c2.103118,-0.340174 3.697659,-0.730217 4.828945,-1.189558l0,4.825949c-0.00056,1.389041 -6.95668,4.092055 -19.707424,4.092055zm12.44862,25.67995c-0.664113,2.739762 -5.152889,5.512595 -12.44862,5.512595s-11.785066,-2.772834 -12.442465,-5.483198l-5.490261,-26.157138c4.163154,1.627373 11.073397,2.465208 17.933286,2.465208c6.859889,0 13.769572,-0.83836 17.932726,-2.465208l-5.484666,26.127739l0,0.000001l0,0.000001z" id="svg_23" stroke="null"/>
    <path fill="#000000" stroke-width="null" stroke-opacity="null" d="m0.212663,58.350139l5.438588,1.322643l7.312592,0.566846l10.420443,0.188949l8.683703,-0.66132c0.045854,0.094471 7.084224,-1.417117 7.084224,-1.417117c0,0 0,4.534765 0,4.534765c0,0 -2.010963,1.417114 -2.056817,1.322643c0.045854,0.094471 -5.255775,1.700534 -5.301629,1.606063c0.045854,0.094471 -8.272218,1.039214 -8.318073,0.944743c0.045855,0.094471 -8.363625,-0.000003 -8.40948,-0.094474c0.045855,0.094471 -5.987033,-0.377901 -6.032888,-0.472371c0.045855,0.094471 -5.529996,-1.322643 -5.575851,-1.417114c0.045856,0.094471 -3.336218,-1.70054 -3.382074,-1.795011" id="svg_22" stroke="null"/>
    <path fill="#000000" stroke="null" stroke-width="null" stroke-opacity="null" d="m2.132219,66.942434c0,0 6.398517,1.462518 6.352662,1.371114c0.045855,0.091404 7.358447,0.822663 7.312592,0.731259c0.045855,0.091404 7.998298,-0.000003 7.952444,-0.091407c0.045855,0.091404 8.089705,-0.639855 8.043851,-0.731259c0.045854,0.091404 5.895928,-1.462522 5.850073,-1.553926c0.045854,0.091404 -5.712812,26.142511 -5.712812,26.142511c0,0 -1.919555,2.285185 -1.96541,2.193782c0.045854,0.091403 -4.3417,2.102365 -4.387555,2.010963c0.045855,0.091403 -5.712811,0.822662 -5.758666,0.731259c0.045855,0.091403 -5.895626,-0.457042 -5.941481,-0.548444c0.045855,0.091403 -4.158885,-1.828153 -4.20474,-1.919555c0.045855,0.091403 -1.965107,-1.736745 -1.965107,-1.736745" id="svg_21"/>
   </g>
  </g>
  <g id="svg_42">
   <g id="svg_40">
    <title transform="translate(-0.28571346402168274,-1.142853856086731) translate(1.142853856086731,6.285696506500244) translate(-17.714235305786133,-41.42845153808594) translate(14.384075164794922,0) translate(0,8.13287353515625) ">background</title>
    <rect x="-3.47302" y="-29.152735" width="26.390242" height="32.487802" id="svg_38" fill="none"/>
   </g>
   <g id="svg_41">
    <title transform="translate(-0.28571346402168274,-1.142853856086731) translate(1.142853856086731,6.285696506500244) translate(-17.714235305786133,-41.42845153808594) translate(14.384075164794922,0) translate(0,8.13287353515625) ">Layer 1</title>
    <path d="m62.780334,33.901059c-3.983558,-0.644124 -9.267368,-0.999523 -14.878479,-0.999523c-5.610551,0 -10.894361,0.354872 -14.877919,0.999523c-4.826708,0.780614 -6.979619,1.820559 -6.979619,3.371288l0,7.007679c0,0.877207 0.526478,1.663595 1.463063,2.356016l5.848893,27.86378c1.010436,4.16975 6.991928,7.081698 14.545582,7.081698c7.553095,0 13.534027,-2.912472 14.551737,-7.110571l5.842738,-27.834906c0.936584,-0.69242 1.462503,-1.47881 1.462503,-2.356016l0,-7.007679c0,-1.550729 -2.152353,-2.590148 -6.9785,-3.371288l0.000001,0.000001l0,-0.000001l0,-0.000001zm-14.878479,14.471022c-12.751862,0 -19.707424,-2.703014 -19.707424,-4.092055l0,-4.825949c1.130726,0.459339 2.725828,0.849384 4.829505,1.189558c3.984118,0.64465 9.267368,0.999523 14.877919,0.999523c5.61111,0 10.895479,-0.354872 14.878479,-0.999523c2.103118,-0.340174 3.697659,-0.730217 4.828945,-1.189558l0,4.825949c-0.00056,1.389041 -6.95668,4.092055 -19.707424,4.092055zm12.44862,25.67995c-0.664113,2.739762 -5.152889,5.512595 -12.44862,5.512595s-11.785066,-2.772834 -12.442465,-5.483198l-5.490261,-26.157138c4.163154,1.627373 11.073397,2.465208 17.933286,2.465208c6.859889,0 13.769572,-0.83836 17.932726,-2.465208l-5.484666,26.127739l0,0.000001l0,0.000001z" id="svg_37" stroke="null"/>
    <path fill="#ff7b00" stroke-width="null" stroke-opacity="null" d="m28.377128,39.762958l5.438588,1.322643l7.312592,0.566846l10.420443,0.188949l8.683703,-0.66132c0.045854,0.094471 7.084224,-1.417117 7.084224,-1.417117c0,0 0,4.534765 0,4.534765c0,0 -2.010963,1.417114 -2.056817,1.322643c0.045854,0.094471 -5.255775,1.700534 -5.301629,1.606063c0.045854,0.094471 -8.272218,1.039214 -8.318073,0.944743c0.045855,0.094471 -8.363625,-0.000003 -8.40948,-0.094474c0.045855,0.094471 -5.987033,-0.377901 -6.032888,-0.472371c0.045855,0.094471 -5.529996,-1.322643 -5.575851,-1.417114c0.045856,0.094471 -3.336218,-1.70054 -3.382074,-1.795011" id="svg_36" stroke="null"/>
    <path fill="#ff7b00" stroke="null" stroke-width="null" stroke-opacity="null" d="m30.296684,48.355253c0,0 6.398517,1.462518 6.352662,1.371114c0.045855,0.091404 7.358447,0.822663 7.312592,0.731259c0.045855,0.091404 7.998298,-0.000003 7.952444,-0.091407c0.045855,0.091404 8.089705,-0.639855 8.043851,-0.731259c0.045854,0.091404 5.895928,-1.462522 5.850073,-1.553926c0.045854,0.091404 -5.712812,26.142511 -5.712812,26.142511c0,0 -1.919555,2.285185 -1.96541,2.193782c0.045854,0.091403 -4.3417,2.102365 -4.387555,2.010963c0.045855,0.091403 -5.712811,0.822662 -5.758666,0.731259c0.045855,0.091403 -5.895626,-0.457042 -5.941481,-0.548444c0.045855,0.091403 -4.158885,-1.828153 -4.20474,-1.919555c0.045855,0.091403 -1.965107,-1.736745 -1.965107,-1.736745" id="svg_35"/>
   </g>
  </g>
  <g transform="rotate(19.402996063232422 64.3594436645508,36.22304534912109) " stroke="null" id="svg_84">
   <g stroke="null" transform="matrix(1.0943780030288524,0,0,1.0943780030288524,16.884180165452563,22.79797152043102) " id="svg_82">
    <title stroke="null" transform="translate(-0.2610738277435303,-1.044295310974121) translate(17.491947174072266,-0.5221476554870605) translate(-2.871812343597412,-20.624832153320312) translate(-22.04062843322754,23.09018325805664) translate(0.5600705146789551,-0.17795418202877045) translate(1.6240538358688354,-0.4172752797603607) translate(20.151432037353516,-8.186518669128418) translate(-5.667590141296387,-21.41089630126953) translate(1.1185591220855713,0) translate(0,-8.449018478393555) ">background</title>
    <rect stroke="null" x="9.104958" y="-38.742755" width="26.390242" height="32.487802" id="svg_80" fill="none"/>
   </g>
   <g stroke="null" transform="matrix(1.0260647142286003,0,0,1.0078734959290738,17.912301368140135,19.411243167863248) " id="svg_83">
    <title stroke="null" transform="translate(-0.27845558524131775,-1.1339259147644043) translate(18.656526565551758,-0.5669629573822021) translate(-3.063011646270752,-22.395036697387695) translate(-23.50804901123047,25.071983337402344) translate(0.5600705146789551,-0.17795418202877045) translate(1.6240538358688354,-0.4172752797603607) translate(20.151432037353516,-8.186518669128418) translate(-5.667590141296387,-21.41089630126953) translate(1.1185591220855713,0) translate(0,-8.449018478393555) ">Layer 1</title>
    <path stroke="null" d="m74.84689,24.388189c-3.983558,-0.644124 -9.267368,-0.999523 -14.878479,-0.999523c-5.610551,0 -10.894361,0.354872 -14.877919,0.999523c-4.826708,0.780614 -6.979619,1.820559 -6.979619,3.371288l0,7.007679c0,0.877207 0.526478,1.663595 1.463063,2.356016l5.848893,27.86378c1.010436,4.16975 6.991928,7.081698 14.545582,7.081698c7.553095,0 13.534027,-2.912472 14.551737,-7.110571l5.842738,-27.834906c0.936584,-0.69242 1.462503,-1.47881 1.462503,-2.356016l0,-7.007679c0,-1.550729 -2.152353,-2.590148 -6.9785,-3.371288l0.000001,0.000001l0,-0.000001l0,-0.000001zm-14.878479,14.471022c-12.751862,0 -19.707424,-2.703014 -19.707424,-4.092055l0,-4.825949c1.130726,0.459339 2.725828,0.849384 4.829505,1.189558c3.984118,0.64465 9.267368,0.999523 14.877919,0.999523c5.61111,0 10.895479,-0.354872 14.878479,-0.999523c2.103118,-0.340174 3.697659,-0.730217 4.828945,-1.189558l0,4.825949c-0.00056,1.389041 -6.95668,4.092055 -19.707424,4.092055zm12.44862,25.67995c-0.664113,2.739762 -5.152889,5.512595 -12.44862,5.512595s-11.785066,-2.772834 -12.442465,-5.483198l-5.490261,-26.157138c4.163154,1.627373 11.073397,2.465208 17.933286,2.465208c6.859889,0 13.769572,-0.83836 17.932726,-2.465208l-5.484666,26.127739l0,0.000001l0,0.000001z" id="svg_79"/>
    <path stroke="null" fill="#007f00" stroke-width="null" stroke-opacity="null" d="m40.443684,30.250088l5.438588,1.322643l7.312592,0.566846l10.420443,0.188949l8.683703,-0.66132c0.045854,0.094471 7.084224,-1.417117 7.084224,-1.417117c0,0 0,4.534765 0,4.534765c0,0 -2.010963,1.417114 -2.056817,1.322643c0.045854,0.094471 -5.255775,1.700534 -5.301629,1.606063c0.045854,0.094471 -8.272218,1.039214 -8.318073,0.944743c0.045855,0.094471 -8.363625,-0.000003 -8.40948,-0.094474c0.045855,0.094471 -5.987033,-0.377901 -6.032888,-0.472371c0.045855,0.094471 -5.529996,-1.322643 -5.575851,-1.417114c0.045856,0.094471 -3.336218,-1.70054 -3.382074,-1.795011" id="svg_78"/>
    <path stroke="null" fill="#007f00" stroke-width="null" stroke-opacity="null" d="m42.36324,38.842383c0,0 6.398517,1.462518 6.352662,1.371114c0.045855,0.091404 7.358447,0.822663 7.312592,0.731259c0.045855,0.091404 7.998298,-0.000003 7.952444,-0.091407c0.045855,0.091404 8.089705,-0.639855 8.043851,-0.731259c0.045854,0.091404 5.895928,-1.462522 5.850073,-1.553926c0.045854,0.091404 -5.712812,26.142511 -5.712812,26.142511c0,0 -1.919555,2.285185 -1.96541,2.193782c0.045854,0.091403 -4.3417,2.102365 -4.387555,2.010963c0.045855,0.091403 -5.712811,0.822662 -5.758666,0.731259c0.045855,0.091403 -5.895626,-0.457042 -5.941481,-0.548444c0.045855,0.091403 -4.158885,-1.828153 -4.20474,-1.919555c0.045855,0.091403 -1.965107,-1.736745 -1.965107,-1.736745" id="svg_77"/>
   </g>
  </g>
 </g>
</svg>