<svg width="100" height="125" xmlns="http://www.w3.org/2000/svg">
 <!-- Created with Method Draw - http://github.com/duopixel/Method-Draw/ -->

 <g>
  <title>background</title>
  <rect fill="none" id="canvas_background" height="127" width="102" y="-1" x="-1"/>
  <g display="none" overflow="visible" y="0" x="0" height="100%" width="100%" id="canvasGrid">
   <rect fill="url(#gridpattern)" stroke-width="0" y="0" x="0" height="100%" width="100%"/>
  </g>
 </g>
 <g>
  <title>Layer 1</title>
  <g stroke="null" id="svg_10">
   <g stroke="null" transform="matrix(0.12784688048752466,0,0,0.26919858779101125,11.87089199330711,17.489359924368202) " id="svg_8">
    <title stroke="null" transform="translate(1.6295517683029175,-0.7739011645317078) translate(0,-1.4210854715202004e-14) translate(1.4210854715202004e-14,1.4210854715202004e-14) translate(0,-9.814685821533203) translate(0.39258745312690735,0) translate(-67.13245391845703,-58.88811492919922) translate(0.703122615814209,23.203046798706055) translate(-15.820310592651367,-9.667967796325684) translate(-2.636718511581421,-0.8789061307907104) translate(-2.636718511581421,2.636718511581421) translate(10.546874046325684,-0.8789061307907104) translate(-82.61717987060547,-40.429683685302734) translate(0,-1.757812261581421) translate(114.25779724121094,65.91796112060547) translate(-35.1171989440918,0) translate(0,-24.21878433227539) ">background</title>
    <rect stroke="null" x="-79.430647" y="-56.551036" width="582" height="402" id="svg_6" fill="none"/>
   </g>
   <g stroke="null" transform="matrix(1.0188779410211664,0,0,1.0188779410211664,67.49709288057784,49.33464427004219) " id="svg_9">
    <title stroke="null" transform="translate(0.204473078250885,-0.204473078250885) translate(0,-9.814685821533203) translate(0.39258745312690735,0) translate(-67.13245391845703,-58.88811492919922) translate(0.703122615814209,23.203046798706055) translate(-15.820310592651367,-9.667967796325684) translate(-2.636718511581421,-0.8789061307907104) translate(-2.636718511581421,2.636718511581421) translate(10.546874046325684,-0.8789061307907104) translate(-82.61717987060547,-40.429683685302734) translate(0,-1.757812261581421) translate(114.25779724121094,65.91796112060547) translate(-35.1171989440918,0) translate(0,-24.21878433227539) ">Layer 1</title>
    <path stroke="null" d="m-4.154236,-39.884048c-6.40294,-1.34847 -14.89583,-2.0925 -23.9148,-2.0925c-9.01807,0 -17.51096,0.74293 -23.91389,2.0925c-7.75817,1.63421 -11.21864,3.81133 -11.21864,7.05777l0,14.67055c0,1.83643 0.84624,3.48273 2.35165,4.93231l9.40116,58.3327c1.62412,8.72935 11.23842,14.8255 23.37972,14.8255c12.1404,0 21.7538,-6.09725 23.38961,-14.88595l9.39128,-58.27225c1.50541,-1.44958 2.35074,-3.09588 2.35074,-4.93231l0,-14.67055c0,-3.24644 -3.45957,-5.42246 -11.21683,-7.05777zm-23.9148,30.29502c-20.4966,0 -31.67656,-5.65875 -31.67656,-8.5667l0,-10.10311c1.81746,0.96163 4.38134,1.77819 7.76266,2.49034c6.40384,1.34957 14.89583,2.09249 23.9139,2.09249c9.01897,0 17.51276,-0.74292 23.91479,-2.09249c3.38043,-0.71215 5.94341,-1.52871 7.76177,-2.49034l0,10.10311c-0.0009,2.90795 -11.18176,8.5667 -31.67656,8.5667zm20.00918,53.76086c-1.06745,5.73568 -8.28245,11.54059 -20.00918,11.54059s-18.94262,-5.80491 -19.99929,-11.47905l-8.82472,-54.75985c6.69161,3.4069 17.79873,5.1609 28.82491,5.1609c11.02618,0 22.1324,-1.7551 28.82401,-5.1609l-8.81573,54.69831z" id="svg_5"/>
   </g>
  </g>
  <path id="svg_31" d="m9.90099,39.628713c0,0 9.70297,3.366337 9.70297,3.366337c0,0 11.089109,1.188119 11.089109,1.188119c0,0 14.059406,0.594059 14.059406,0.594059c0,0 12.673267,-1.386139 12.871287,-1.386139c0.19802,0 9.70297,-3.762376 9.70297,-3.762376c0,0 -9.108911,56.633663 -9.108911,56.633663c0,0 -5.544554,6.138614 -5.544554,6.138614c0,0 -6.336634,2.376238 -6.336634,2.376238c0,0 -8.118812,0.792079 -8.118812,0.792079c0,0 -8.910891,-1.386139 -8.910891,-1.386139c0,0 -7.722772,-4.752475 -7.722772,-4.752475c0,0 -1.980198,-3.564356 -1.980198,-3.564356c0,0 -9.70297,-56.237624 -9.70297,-56.237624z" stroke-width="1.5" stroke="#ffffff" fill="#fff"/>
  <g stroke="null" id="svg_20">
   <g stroke="null" transform="matrix(0.9210688434464966,0,0,0.867545045458572,22.621898119350703,28.6531846254413) " id="svg_18">
    <title stroke="null" transform="translate(0,-10.39709758758545) translate(-27.032453536987305,-0.8317678570747375) translate(-15.820310592651367,-9.667967796325684) translate(7.031249046325684,-14.941404342651367) translate(-177.53904724121094,-93.16405487060547) translate(214.96783447265625,0) translate(0,124.84088134765625) ">background</title>
    <rect stroke="null" fill="none" id="svg_16" height="35.783784" width="29.027027" y="-5.161411" x="0.607272"/>
   </g>
   <g stroke="null" transform="matrix(0.9210688434464966,0,0,0.867545045458572,22.621898119350703,28.6531846254413) " id="svg_19">
    <title stroke="null" transform="translate(0,-10.39709758758545) translate(-27.032453536987305,-0.8317678570747375) translate(-15.820310592651367,-9.667967796325684) translate(7.031249046325684,-14.941404342651367) translate(-177.53904724121094,-93.16405487060547) translate(214.96783447265625,0) translate(0,124.84088134765625) ">Layer 1</title>
    <path stroke="null" id="svg_15" d="m73.076112,30.553029c-5.3436,-0.92088 -12.43139,-1.42897 -19.95822,-1.42897c-7.52608,0 -14.61386,0.50734 -19.95747,1.42897c-6.47462,1.116 -9.36257,2.60275 -9.36257,4.81975l0,10.01851c0,1.2541 0.70623,2.37836 1.96258,3.36828l7.84579,39.83538c1.35542,5.96128 9.37908,10.12434 19.51167,10.12434c10.13184,0 18.15476,-4.16381 19.51993,-10.16561l7.83754,-39.79411c1.25635,-0.98992 1.96182,-2.11418 1.96182,-3.36828l0,-10.01851c0,-2.217 -2.8872,-3.703 -9.36107,-4.81975zm-19.95822,20.68846c-17.10554,0 -26.43584,-3.86436 -26.43584,-5.8502l0,-6.89941c1.51677,0.6567 3.65647,1.21433 6.47837,1.70065c5.34436,0.92163 12.43139,1.42897 19.95747,1.42897c7.52683,0 14.61537,-0.50734 19.95822,-1.42897c2.82116,-0.48632 4.9601,-1.04395 6.47763,-1.70065l0,6.89941c-0.00076,1.98584 -9.3318,5.8502 -26.43585,5.8502zm16.69877,36.71328c-0.89085,3.9169 -6.91216,7.88107 -16.69877,7.88107s-15.80867,-3.96417 -16.69051,-7.83904l-7.36472,-37.39549c5.58451,2.32657 14.85402,3.52438 24.05598,3.52438c9.20196,0 18.47072,-1.19856 24.05524,-3.52438l-7.35722,37.35346z"/>
   </g>
  </g>
  <path id="svg_32" d="m47.938929,62.576336c0,0 -0.152672,5.343505 -0.152672,5.343505c0,0 6.564878,2.90076 6.564878,2.90076c0,0 8.70228,1.526716 8.70228,1.526716c0,0 15.725172,0 15.725172,0c0,0 11.60304,-1.526716 11.60304,-1.526716c0,0 4.732819,-2.290074 4.732819,-2.290074c0,0 0.458015,-5.954191 0.458015,-5.954191c0,0 -3.816789,1.526716 -3.816789,1.526716c0,0 -14.351128,1.221373 -14.351128,1.221373c0,0 -14.809143,-0.458015 -14.809143,-0.458015c0,0 -11.908383,-1.068701 -11.908383,-1.068701c0,0 -2.748088,-1.221373 -2.748088,-1.221373z" fill-opacity="null" stroke-width="1.5" stroke="#ffffff" fill="#fff"/>
  <path id="svg_33" d="m50.076331,73.263347c0,0 7.633579,1.98473 7.633579,1.98473c0,0 10.68701,0.610686 10.68701,0.610686c0,0 10.992353,-0.458015 10.992353,-0.458015c0,0 12.366397,-1.679387 12.366397,-1.679387c0,0 1.526716,-0.458015 1.526716,-0.458015c0,0 -7.022892,32.519045 -7.022892,32.519045c0,0 -4.122132,3.358775 -4.122132,3.358775c0,0 -5.343505,1.526716 -5.343505,1.526716c0,0 -6.259535,0.305343 -6.259535,0.305343c0,0 -4.732819,-0.152672 -4.732819,-0.152672c0,0 -6.259535,-2.290074 -6.259535,-2.290074c0,0 -2.748088,-2.90076 -2.748088,-2.90076c0,0 -6.717549,-32.366374 -6.717549,-32.366374z" fill-opacity="null" stroke-width="1.5" stroke="#ffffff" fill="#fff"/>
  <g stroke="null" id="svg_30">
   <g stroke="null" transform="matrix(0.9131904288625267,0,0,0.9131904288625267,18.861707301264218,27.47946014832091) " id="svg_28">
    <title stroke="null" transform="translate(0,-10.950581550598145) translate(-7.8844194412231445,0.43802329897880554) translate(-16.644886016845703,-7.008372783660889) translate(-15.820310592651367,-9.667967796325684) translate(7.031249046325684,-35.156246185302734) translate(-199.51170349121094,-63.28124237060547) translate(218.4810028076172,0) translate(0,122.10171508789062) ">background</title>
    <rect stroke="null" fill="none" id="svg_26" height="17.923566" width="14.738853" y="-4.524672" x="-15.349068"/>
   </g>
   <g stroke="null" transform="matrix(0.9131904288625267,0,0,0.9131904288625267,18.861707301264218,27.47946014832091) " id="svg_29">
    <title stroke="null" transform="translate(0,-10.950581550598145) translate(-7.8844194412231445,0.43802329897880554) translate(-16.644886016845703,-7.008372783660889) translate(-15.820310592651367,-9.667967796325684) translate(7.031249046325684,-35.156246185302734) translate(-199.51170349121094,-63.28124237060547) translate(218.4810028076172,0) translate(0,122.10171508789062) ">Layer 1</title>
    <path stroke="null" id="svg_25" d="m51.535102,52.535568c-4.52065,-0.70651 -10.51686,-1.09633 -16.8845,-1.09633c-6.36701,0 -12.36322,0.38924 -16.88387,1.09633c-5.47748,0.85623 -7.92066,1.9969 -7.92066,3.69783l0,7.68644c0,0.96218 0.59746,1.82473 1.66033,2.58422l6.63748,30.56265c1.14667,4.57363 7.93463,7.76763 16.50672,7.76763c8.57146,0 15.35878,-3.19457 16.5137,-7.7993l6.6305,-30.53098c1.06286,-0.75949 1.65969,-1.62205 1.65969,-2.58422l0,-7.68644c0,-1.70093 -2.44255,-2.84103 -7.91939,-3.69783l0,0zm-16.8845,15.87268c-14.47116,0 -22.36452,-2.96482 -22.36452,-4.48841l0,-5.29339c1.28318,0.50383 3.09334,0.93166 5.48065,1.30478c4.52129,0.70709 10.51686,1.09634 16.88387,1.09634c6.36764,0 12.36448,-0.38925 16.8845,-1.09634c2.38668,-0.37312 4.1962,-0.80094 5.48002,-1.30478l0,5.29339c-0.00064,1.52359 -7.89463,4.48841 -22.36452,4.48841zm14.12703,28.1673c-0.75365,3.00513 -5.84764,6.04654 -14.12703,6.04654s-13.37401,-3.04141 -14.12005,-6.01429l-6.23049,-28.69071c4.72446,1.785 12.56639,2.70399 20.35117,2.70399c7.78479,0 15.62609,-0.91957 20.35055,-2.70399l-6.22415,28.65846l0,0z"/>
   </g>
  </g>
  <path stroke="#ffffff" id="svg_34" d="m32.5191,90.518383c0,0 10.839682,1.931979 10.839682,1.931979c0,0 12.824412,0.148614 12.824412,0.148614c0,0 12.671741,-2.37782 12.671741,-2.37782c0,0 -5.80152,24.52127 -5.80152,24.52127c0,0 -3.511446,3.863958 -3.511446,3.863958c0,0 -7.328236,1.634751 -7.328236,1.634751c0,0 -7.328236,-0.445841 -7.328236,-0.445841c0,0 -6.106863,-3.418116 -6.106863,-3.418116c0,0 -6.259535,-25.858793 -6.259535,-25.858793z" fill-opacity="null" stroke-width="1.5" fill="#fff"/>
  <path id="svg_35" d="m30.839713,85.935087c0,0 9.465638,2.748088 9.465638,2.748088c0,0 11.297696,0.458015 11.297696,0.458015c0,0 14.961814,-1.679387 14.961814,-1.679387c0,0 3.358775,-1.374044 3.358775,-1.374044c0,0 0.152672,-4.274804 0.152672,-4.274804c0,0 -12.977084,1.98473 -12.977084,1.98473c0,0 -11.450368,0.458015 -11.450368,0.458015c0,0 -11.908383,-1.526716 -11.908383,-1.526716c0,0 -3.206103,-1.068701 -3.206103,-1.068701c0,0 0.305343,4.274804 0.305343,4.274804z" fill-opacity="null" stroke-width="1.5" stroke="#ffffff" fill="#fff"/>
 </g>
</svg>