<svg width="99.99999999999997" height="125.00000000000001" xmlns="http://www.w3.org/2000/svg">
 <g>
  <title>background</title>
  <rect fill="none" id="canvas_background" height="32.487802" width="26.390242" y="-1" x="-1"/>
 </g>

 <g>
  <title>Layer 1</title>
  <path stroke="null" id="svg_1" d="m65.253354,62.053794c-3.983558,-0.644124 -9.267368,-0.999523 -14.878479,-0.999523c-5.610551,0 -10.894361,0.354872 -14.877919,0.999523c-4.826708,0.780614 -6.979619,1.820559 -6.979619,3.371288l0,7.007679c0,0.877207 0.526478,1.663595 1.463063,2.356016l5.848893,27.86378c1.010436,4.16975 6.991928,7.081698 14.545582,7.081698c7.553095,0 13.534027,-2.912472 14.551737,-7.110571l5.842738,-27.834906c0.936584,-0.69242 1.462503,-1.47881 1.462503,-2.356016l0,-7.007679c0,-1.550729 -2.152353,-2.590148 -6.9785,-3.371288l0.000001,0.000001l0,-0.000001zm-14.878479,14.471022c-12.751862,0 -19.707424,-2.703014 -19.707424,-4.092055l0,-4.825949c1.130726,0.459339 2.725828,0.849384 4.829505,1.189558c3.984118,0.64465 9.267368,0.999523 14.877919,0.999523c5.61111,0 10.895479,-0.354872 14.878479,-0.999523c2.103118,-0.340174 3.697659,-0.730217 4.828945,-1.189558l0,4.825949c-0.00056,1.389041 -6.95668,4.092055 -19.707424,4.092055zm12.44862,25.67995c-0.664113,2.739762 -5.152889,5.512595 -12.44862,5.512595s-11.785066,-2.772834 -12.442465,-5.483198l-5.490261,-26.157138c4.163154,1.627373 11.073397,2.465208 17.933286,2.465208c6.859889,0 13.769572,-0.83836 17.932726,-2.465208l-5.484666,26.127739l0,0.000001l0,0.000001z"/>
  <path stroke="null" id="svg_2" d="m30.850148,67.915693l5.438588,1.322643l7.312592,0.566846l10.420443,0.188949l8.683703,-0.66132c0.045854,0.094471 7.084224,-1.417117 7.084224,-1.417117c0,0 0,4.534765 0,4.534765c0,0 -2.010963,1.417114 -2.056817,1.322643c0.045854,0.094471 -5.255775,1.700534 -5.301629,1.606063c0.045854,0.094471 -8.272218,1.039214 -8.318073,0.944743c0.045855,0.094471 -8.363625,-0.000003 -8.40948,-0.094474c0.045855,0.094471 -5.987033,-0.377901 -6.032888,-0.472371c0.045855,0.094471 -5.529996,-1.322643 -5.575851,-1.417114c0.045856,0.094471 -3.336218,-1.70054 -3.382074,-1.795011" stroke-opacity="null" stroke-width="null" fill="#bf5f00"/>
  <path id="svg_3" d="m32.769704,76.507988c0,0 6.398517,1.462518 6.352662,1.371114c0.045855,0.091404 7.358447,0.822663 7.312592,0.731259c0.045855,0.091404 7.998298,-0.000003 7.952444,-0.091407c0.045855,0.091404 8.089705,-0.639855 8.043851,-0.731259c0.045854,0.091404 5.895928,-1.462522 5.850073,-1.553926c0.045854,0.091404 -5.712812,26.142511 -5.712812,26.142511c0,0 -1.919555,2.285185 -1.96541,2.193782c0.045854,0.091403 -4.3417,2.102365 -4.387555,2.010963c0.045855,0.091403 -5.712811,0.822662 -5.758666,0.731259c0.045855,0.091403 -5.895626,-0.457042 -5.941481,-0.548444c0.045855,0.091403 -4.158885,-1.828153 -4.20474,-1.919555c0.045855,0.091403 -1.965107,-1.736745 -1.965107,-1.736745" stroke-opacity="null" stroke-width="null" stroke="null" fill="#bf5f00"/>
 </g>
</svg>