<svg width="99.99999999999999" height="125.00000000000001" xmlns="http://www.w3.org/2000/svg">

 <g>
  <title>background</title>
  <rect fill="none" id="canvas_background" height="402" width="582" y="-1" x="-1"/>
 </g>
 <g>
  <title>Layer 1</title>
  <path stroke="null" id="svg_1" d="m75.701485,15.097557c-6.402938,-1.348472 -14.895824,-2.092495 -23.914795,-2.092495c-9.018071,0 -17.510957,0.742924 -23.913895,2.092495c-7.758167,1.634212 -11.218631,3.81133 -11.218631,7.057775l0,14.670545c0,1.836428 0.846231,3.48273 2.351641,4.93231l9.401168,58.332698c1.624116,8.729353 11.238416,14.825504 23.379718,14.825504c12.140403,0 21.753803,-6.097249 23.38961,-14.885949l9.391276,-58.272253c1.50541,-1.44958 2.350742,-3.095882 2.350742,-4.93231l0,-14.670545c0,-3.246445 -3.459565,-5.422464 -11.216833,-7.057775zm-23.914795,30.295022c-20.496597,0 -31.676559,-5.658749 -31.676559,-8.566701l0,-10.103103c1.817463,0.961625 4.381336,1.778181 7.762663,2.490333c6.403838,1.349571 14.895824,2.092495 23.913895,2.092495c9.01897,0 17.512756,-0.742924 23.914795,-2.092495c3.380428,-0.712152 5.943402,-1.528708 7.761764,-2.490333l0,10.103103c-0.000899,2.907953 -11.181761,8.566701 -31.676559,8.566701zm20.009182,53.76086c-1.067456,5.735679 -8.282453,11.540594 -20.009182,11.540594s-18.942625,-5.804916 -19.99929,-11.47905l-8.824724,-54.759851c6.69161,3.406899 17.79873,5.160902 28.824913,5.160902c11.026184,0 22.132404,-1.755102 28.824014,-5.160902l-8.815731,54.698307z"/>
 </g>
</svg>