<svg width="99.99999999999999" height="125.00000000000001" xmlns="http://www.w3.org/2000/svg">
 <g>
  <title>background</title>
  <rect x="-1" y="-1" width="14.738853" height="17.923566" id="canvas_background" fill="none"/>
 </g>

 <g>
  <title>Layer 1</title>
  <path stroke="null" d="m65.884171,56.060243c-4.52065,-0.706514 -10.51686,-1.096336 -16.884501,-1.096336c-6.367005,0 -12.363216,0.389245 -16.883866,1.096336c-5.477479,0.856224 -7.920661,1.996897 -7.920661,3.697829l0,7.68644c0,0.962173 0.597462,1.82473 1.660323,2.584219l6.637482,30.562653c1.14667,4.57363 7.93463,7.767628 16.506721,7.767628c8.571457,0 15.358781,-3.194573 16.513706,-7.799298l6.630498,-30.530983c1.062861,-0.759488 1.659688,-1.622047 1.659688,-2.584219l0,-7.68644c0,-1.700932 -2.442548,-2.841029 -7.919391,-3.697829l0.000001,0.000001zm-16.884501,15.872679c-14.471159,0 -22.364519,-2.964827 -22.364519,-4.48841l0,-5.293388c1.283179,0.50383 3.093344,0.931655 5.480653,1.304778c4.521285,0.70709 10.51686,1.096336 16.883866,1.096336c6.36764,0 12.364485,-0.389245 16.884501,-1.096336c2.386675,-0.373123 4.196204,-0.800946 5.480018,-1.304778l0,5.293388c-0.000635,1.523583 -7.894629,4.48841 -22.364519,4.48841zm14.127031,28.167298c-0.753653,3.005134 -5.847638,6.046543 -14.127031,6.046543s-13.374013,-3.041409 -14.120047,-6.014298l-6.230497,-28.690707c4.72446,1.785 12.566391,2.703987 20.351179,2.703987c7.784788,0 15.626084,-0.919563 20.350544,-2.703987l-6.224148,28.65846l0,0.000001z" id="svg_1"/>
 </g>
</svg>