<svg width="100" height="125" xmlns="http://www.w3.org/2000/svg">
 <!-- Created with Method Draw - http://github.com/duopixel/Method-Draw/ -->

 <g>
  <title>background</title>
 </g>
 <g>
  <title>Layer 1</title>
  <g stroke="null" id="svg_16">
   <g stroke="null" id="svg_14">
    <title stroke="null" transform="translate(1.3333314657211304,18.222196578979492) translate(0.44444385170936584,-3.1111068725585938) translate(-91.9998779296875,-58.222145080566406) translate(52.444374084472656,-132.4442596435547) translate(32.444400787353516,125.7776107788086) translate(-33.777732849121094,-25.33329963684082) translate(-163.1108856201172,-77.77767181396484) translate(-43,1) translate(19,-45) translate(4,-1) translate(-27,31) translate(250.08505249023438,0) translate(0,149.0596466064453) translate(303.91497802734375,282.9403381347656) scale(1.1099841594696045) translate(-303.91497802734375,-282.9403381347656) translate(25.80292510986328,234.784423828125) scale(0.7210907936096191) translate(-25.80292510986328,-234.784423828125) ">background</title>
    <rect stroke="null" fill="none" id="svg_12" height="19.958582" width="16.287026" y="1.905628" x="-9.136889"/>
   </g>
   <g stroke="null" id="svg_15">
    <title stroke="null" transform="translate(1.3333314657211304,18.222196578979492) translate(0.44444385170936584,-3.1111068725585938) translate(-91.9998779296875,-58.222145080566406) translate(52.444374084472656,-132.4442596435547) translate(32.444400787353516,125.7776107788086) translate(-33.777732849121094,-25.33329963684082) translate(-163.1108856201172,-77.77767181396484) translate(-43,1) translate(19,-45) translate(4,-1) translate(-27,31) translate(250.08505249023438,0) translate(0,149.0596466064453) translate(303.91497802734375,282.9403381347656) scale(1.1099841594696045) translate(-303.91497802734375,-282.9403381347656) translate(25.80292510986328,234.784423828125) scale(0.7210907936096191) translate(-25.80292510986328,-234.784423828125) ">Layer 1</title>
    <path stroke="null" id="svg_11" d="m48.867126,30.491441c-4.27702,-0.737065 -9.950077,-1.143743 -15.974547,-1.143743c-6.02387,0 -11.696927,0.406076 -15.973947,1.143743c-5.182282,0.893248 -7.493795,2.083245 -7.493795,3.857727l0,8.018811c0,1.003778 0.565264,1.903634 1.570844,2.695964l6.27977,31.884219c1.084873,4.7714 7.50701,8.10351 15.617128,8.10351c8.109517,0 14.531053,-3.332712 15.623736,-8.136549l6.273162,-31.85118c1.00558,-0.79233 1.570243,-1.692186 1.570243,-2.695964l0,-8.018811c0,-1.774482 -2.310912,-2.963878 -7.492594,-3.857727zm-15.974547,16.559033c-13.691268,0 -21.159233,-3.09303 -21.159233,-4.682496l0,-5.522281c1.214025,0.525617 2.926635,0.971941 5.185286,1.361198c4.27762,0.737666 9.950077,1.143743 15.973947,1.143743c6.02447,0 11.698129,-0.406076 15.974547,-1.143743c2.25805,-0.389257 3.970059,-0.835581 5.184684,-1.361198l0,5.522281c-0.000601,1.589465 -7.469166,4.682496 -21.159233,4.682496l0.000001,0zm13.365686,29.385287c-0.713037,3.135079 -5.532493,6.308003 -13.365686,6.308003s-12.65325,-3.172924 -13.359078,-6.274363l-5.894718,-29.931327c4.469845,1.862185 11.889153,2.820911 19.254397,2.820911c7.365244,0 14.78395,-0.959326 19.253796,-2.820911l-5.888711,29.897688l0,-0.000001z" stroke-width="0" fill="#000000"/>
    <path stroke="null" fill="null" stroke-width="0" stroke-opacity="null" fill-opacity="null" opacity="0.5" d="m29.150572,47.563854c0,0 1.013164,8.10531 1.013164,8.10531" id="svg_10"/>
    <path stroke="null" fill="#4c4c4c" stroke-width="0" stroke-opacity="null" d="m13.844527,46.85874c0,0 7.114655,1.987918 7.114655,1.987918c0,0 16.94962,0.837018 16.94962,0.837018c0,0 12.346019,-1.987918 12.346019,-1.987918c0,0 1.674037,-0.732391 1.674037,-0.732391c0,0 -5.963755,30.02803 -5.963755,30.02803c0,0 -2.824937,3.138818 -2.824937,3.138818c0,0 -6.17301,2.092546 -6.277637,2.092546c-0.104627,0 -6.591519,0.209255 -6.591519,0.209255c0,0 -7.742419,-2.615682 -7.742419,-2.615682c0,0 -2.720309,-2.824937 -2.720309,-2.824937" id="svg_9"/>
    <path stroke="null" id="svg_8" d="m12.055852,37.169083c0,0 4.588277,1.427463 4.588277,1.427463c0,0 11.623634,0.917655 11.623634,0.917655c0,0 15.60014,-0.203923 15.60014,-0.203923c0,0 9.890285,-1.937272 9.890285,-1.937272c0,0 -0.101962,4.894162 -0.101962,4.894162c0,0 -0.917655,1.22354 -0.917655,1.22354c0,0 -5.811817,1.937272 -5.811817,1.937272c0,0 -10.400094,1.22354 -10.400094,1.22354c0,0 -8.870668,-0.101962 -8.870668,-0.101962c0,0 -9.482438,-1.325502 -9.482438,-1.325502c0,0 -4.282391,-1.22354 -4.282391,-1.22354c0,0 -1.835311,-1.529426 -1.835311,-1.529426" stroke-opacity="null" stroke-width="0" fill="#4c4c4c"/>
   </g>
  </g>
  <g stroke="null" id="svg_48">
   <g stroke="null" transform="matrix(0.8010364801010557,0,0,0.8010364801010557,12.544062817827907,77.7388977878731) " id="svg_46">
    <title stroke="null" transform="translate(1.6645077466964722,22.748273849487305) translate(-44.94171142578125,-237.4698028564453) translate(19.359712600708008,-2.3466317653656006) translate(-4.687493324279785,110.15608978271484) translate(-29.687458038330078,-22.265592575073242) translate(-143.35916137695312,-68.3592758178711) translate(-37.792964935302734,0.8789061307907104) translate(41.308589935302734,-17.578123092651367) translate(214.96783447265625,0) translate(0,124.84087371826172) ">background</title>
    <rect stroke="null" x="15.831856" y="-90.395283" width="15.071885" height="18.339856" id="svg_44" fill="none"/>
   </g>
   <g stroke="null" transform="matrix(0.8010364801010557,0,0,0.8010364801010557,12.544062817827907,77.7388977878731) " id="svg_47">
    <title stroke="null" transform="translate(1.6645077466964722,22.748273849487305) translate(-44.94171142578125,-237.4698028564453) translate(19.359712600708008,-2.3466317653656006) translate(-4.687493324279785,110.15608978271484) translate(-29.687458038330078,-22.265592575073242) translate(-143.35916137695312,-68.3592758178711) translate(-37.792964935302734,0.8789061307907104) translate(41.308589935302734,-17.578123092651367) translate(214.96783447265625,0) translate(0,124.84087371826172) ">Layer 1</title>
    <path stroke="null" fill="#000000" stroke-width="0" d="m88.300699,-54.680846c-5.343607,-0.920872 -12.431391,-1.428965 -19.958221,-1.428965c-7.52608,0 -14.613864,0.507342 -19.957471,1.428965c-6.47462,1.116003 -9.36257,2.602757 -9.36257,4.819753l0,10.018512c0,1.254096 0.706227,2.378355 1.962575,3.368274l7.845796,39.835388c1.355415,5.961274 9.379081,10.124334 19.51167,10.124334c10.131839,0 18.154754,-4.163811 19.519926,-10.165612l7.83754,-39.79411c1.256348,-0.989918 1.961824,-2.114177 1.961824,-3.368274l0,-10.018512c0,-2.216996 -2.887199,-3.702999 -9.361069,-4.819753zm-19.958221,20.688464c-17.105546,0 -26.435844,-3.864358 -26.435844,-5.850199l0,-6.899407c1.516774,0.656693 3.656468,1.21432 6.478373,1.700648c5.344357,0.921622 12.431391,1.428965 19.957471,1.428965c7.52683,0 14.615365,-0.507342 19.958221,-1.428965c2.821154,-0.486328 4.960098,-1.043955 6.477622,-1.700648l0,6.899407c-0.000751,1.98584 -9.331799,5.850199 -26.435844,5.850199l0.000001,0zm16.698771,36.713281c-0.890851,3.916894 -6.912166,7.88107 -16.698771,7.88107s-15.808671,-3.964176 -16.690516,-7.839041l-7.364721,-37.395491c5.584519,2.32657 14.854026,3.524379 24.055987,3.524379c9.201961,0 18.470717,-1.198559 24.055237,-3.524379l-7.357216,37.353463l0,-0.000001z" id="svg_43"/>
    <path stroke="null" id="svg_42" d="m63.667303,-33.350977c0,0 1.265823,10.126582 1.265823,10.126582" opacity="0.5" fill-opacity="null" stroke-opacity="null" stroke-width="0" fill="null"/>
    <path stroke="null" id="svg_41" d="m44.544294,-34.23193c0,0 8.888882,2.483658 8.888882,2.483658c0,0 21.176454,1.045751 21.176454,1.045751c0,0 15.424824,-2.483658 15.424824,-2.483658c0,0 2.091502,-0.915032 2.091502,-0.915032c0,0 -7.450974,37.51631 -7.450974,37.51631c0,0 -3.529409,3.921565 -3.529409,3.921565c0,0 -7.712412,2.614377 -7.843131,2.614377c-0.130719,0 -8.235288,0.261438 -8.235288,0.261438c0,0 -9.673195,-3.267971 -9.673195,-3.267971c0,0 -3.39869,-3.529409 -3.39869,-3.529409" stroke-opacity="null" stroke-width="0" fill="#7f3f00"/>
    <path stroke="null" fill="#7f3f00" stroke-width="0" stroke-opacity="null" d="m42.309565,-46.337958c0,0 5.732484,1.783439 5.732484,1.783439c0,0 14.522293,1.146497 14.522293,1.146497c0,0 19.490446,-0.254777 19.490446,-0.254777c0,0 12.356688,-2.420382 12.356688,-2.420382c0,0 -0.127389,6.11465 -0.127389,6.11465c0,0 -1.146497,1.528662 -1.146497,1.528662c0,0 -7.261146,2.420382 -7.261146,2.420382c0,0 -12.993631,1.528662 -12.993631,1.528662c0,0 -11.082803,-0.127389 -11.082803,-0.127389c0,0 -11.847134,-1.656051 -11.847134,-1.656051c0,0 -5.350318,-1.528662 -5.350318,-1.528662c0,0 -2.292994,-1.910828 -2.292994,-1.910828" id="svg_40"/>
   </g>
  </g>
  <g stroke="null" id="svg_32">
   <g stroke="null" transform="matrix(0.7956051821193614,0,0,0.7956051821193614,8.488596778588612,78.32109099631236) " id="svg_30">
    <title stroke="null" transform="translate(1.117247223854065,-1.117247223854065) translate(1.6758707761764526,22.903566360473633) translate(-5.586236000061035,-5.027612209320068) translate(-44.13126754760742,-122.33857727050781) translate(19.55182647705078,-95.52464294433594) translate(5.8593668937683105,91.79674530029297) translate(-29.687458038330078,-22.265592575073242) translate(-143.35916137695312,-68.3592758178711) translate(-37.792964935302734,0.8789061307907104) translate(105.46874237060547,-2.636718511581421) translate(-89.64842987060547,1.757812261581421) translate(214.96783447265625,0) translate(0,124.84087371826172) ">background</title>
    <rect stroke="null" x="-2.56463" y="-76.091763" width="15.071885" height="18.339856" id="svg_28" fill="none"/>
   </g>
   <g stroke="null" transform="matrix(0.7956051821193614,0,0,0.7956051821193614,8.488596778588612,78.32109099631236) " id="svg_31">
    <title stroke="null" transform="translate(1.117247223854065,-1.117247223854065) translate(1.6758707761764526,22.903566360473633) translate(-5.586236000061035,-5.027612209320068) translate(-44.13126754760742,-122.33857727050781) translate(19.55182647705078,-95.52464294433594) translate(5.8593668937683105,91.79674530029297) translate(-29.687458038330078,-22.265592575073242) translate(-143.35916137695312,-68.3592758178711) translate(-37.792964935302734,0.8789061307907104) translate(105.46874237060547,-2.636718511581421) translate(-89.64842987060547,1.757812261581421) translate(214.96783447265625,0) translate(0,124.84087371826172) ">Layer 1</title>
    <path stroke="null" fill="#000000" stroke-width="0" d="m69.904213,-40.377326c-5.343607,-0.920872 -12.431391,-1.428965 -19.958221,-1.428965c-7.52608,0 -14.613864,0.507342 -19.957471,1.428965c-6.47462,1.116003 -9.36257,2.602757 -9.36257,4.819753l0,10.018512c0,1.254096 0.706227,2.378355 1.962575,3.368274l7.845796,39.835388c1.355415,5.961274 9.379081,10.124334 19.51167,10.124334c10.131839,0 18.154754,-4.163811 19.519926,-10.165612l7.83754,-39.79411c1.256348,-0.989918 1.961824,-2.114177 1.961824,-3.368274l0,-10.018512c0,-2.216996 -2.887199,-3.702999 -9.361069,-4.819753zm-19.958221,20.688464c-17.105546,0 -26.435844,-3.864358 -26.435844,-5.850199l0,-6.899407c1.516774,0.656693 3.656468,1.21432 6.478373,1.700648c5.344357,0.921622 12.431391,1.428965 19.957471,1.428965c7.52683,0 14.615365,-0.507342 19.958221,-1.428965c2.821154,-0.486328 4.960098,-1.043955 6.477622,-1.700648l0,6.899407c-0.000751,1.98584 -9.331799,5.850199 -26.435844,5.850199l0.000001,0zm16.698771,36.713281c-0.890851,3.916894 -6.912166,7.88107 -16.698771,7.88107s-15.808671,-3.964176 -16.690516,-7.839041l-7.364721,-37.395491c5.584519,2.32657 14.854026,3.524379 24.055987,3.524379c9.201961,0 18.470717,-1.198559 24.055237,-3.524379l-7.357216,37.353463l0,-0.000001z" id="svg_27"/>
    <path stroke="null" id="svg_26" d="m45.270817,-19.047457c0,0 1.265823,10.126582 1.265823,10.126582" opacity="0.5" fill-opacity="null" stroke-opacity="null" stroke-width="0" fill="null"/>
    <path stroke="null" id="svg_25" d="m26.147808,-19.92841c0,0 8.888882,2.483658 8.888882,2.483658c0,0 21.176454,1.045751 21.176454,1.045751c0,0 15.424824,-2.483658 15.424824,-2.483658c0,0 2.091502,-0.915032 2.091502,-0.915032c0,0 -7.450974,37.51631 -7.450974,37.51631c0,0 -3.529409,3.921565 -3.529409,3.921565c0,0 -7.712412,2.614377 -7.843131,2.614377c-0.130719,0 -8.235288,0.261438 -8.235288,0.261438c0,0 -9.673195,-3.267971 -9.673195,-3.267971c0,0 -3.39869,-3.529409 -3.39869,-3.529409" stroke-opacity="null" stroke-width="0" fill="#ff6100"/>
    <path stroke="null" fill="#ff6100" stroke-width="0" stroke-opacity="null" fill-opacity="null" d="m23.913079,-32.034438c0,0 5.732484,1.783439 5.732484,1.783439c0,0 14.522293,1.146497 14.522293,1.146497c0,0 19.490446,-0.254777 19.490446,-0.254777c0,0 12.356688,-2.420382 12.356688,-2.420382c0,0 -0.127389,6.11465 -0.127389,6.11465c0,0 -1.146497,1.528662 -1.146497,1.528662c0,0 -7.261146,2.420382 -7.261146,2.420382c0,0 -12.993631,1.528662 -12.993631,1.528662c0,0 -11.082803,-0.127389 -11.082803,-0.127389c0,0 -11.847134,-1.656051 -11.847134,-1.656051c0,0 -5.350318,-1.528662 -5.350318,-1.528662c0,0 -2.292994,-1.910828 -2.292994,-1.910828" id="svg_24"/>
   </g>
  </g>
 </g>
</svg>