<svg width="99.99999999999999" height="125" xmlns="http://www.w3.org/2000/svg">
 <g>
  <title>background</title>
  <rect x="-1" y="-1" width="102" height="127" id="canvas_background" fill="none"/>
 </g>

 <g>
  <title>Layer 1</title>
  <path d="m75.70149,15.09756c-6.40294,-1.34847 -14.89583,-2.0925 -23.9148,-2.0925c-9.01807,0 -17.51096,0.74293 -23.91389,2.0925c-7.75817,1.63421 -11.21864,3.81133 -11.21864,7.05777l0,14.67055c0,1.83643 0.84624,3.48273 2.35165,4.93231l9.40116,58.3327c1.62412,8.72935 11.23842,14.8255 23.37972,14.8255c12.1404,0 21.7538,-6.09725 23.38961,-14.88595l9.39128,-58.27225c1.50541,-1.44958 2.35074,-3.09588 2.35074,-4.93231l0,-14.67055c0,-3.24644 -3.45957,-5.42246 -11.21683,-7.05777l0,0zm-23.9148,30.29502c-20.4966,0 -31.67656,-5.65875 -31.67656,-8.5667l0,-10.10311c1.81746,0.96163 4.38134,1.77819 7.76266,2.49034c6.40384,1.34957 14.89583,2.09249 23.9139,2.09249c9.01897,0 17.51276,-0.74292 23.91479,-2.09249c3.38043,-0.71215 5.94341,-1.52871 7.76177,-2.49034l0,10.10311c-0.0009,2.90795 -11.18176,8.5667 -31.67656,8.5667l0,0zm20.00918,53.76086c-1.06745,5.73568 -8.28245,11.54059 -20.00918,11.54059s-18.94262,-5.80491 -19.99929,-11.47905l-8.82472,-54.75985c6.69161,3.4069 17.79873,5.1609 28.82491,5.1609c11.02618,0 22.1324,-1.7551 28.82401,-5.1609l-8.81573,54.69831z" id="svg_1" stroke="null"/>
  <path id="svg_2" d="m23.11927,44.95413l9.72477,4.0367l19.08257,1.2844l21.2844,-2.20184c0,0 6.97248,-2.75229 6.97248,-2.75229c0,0 -8.80734,54.31193 -8.80734,54.31193c0,0 -2.7523,4.77064 -2.7523,4.77064c0,0 -5.68807,3.85321 -5.68807,3.85321c0,0 -7.88991,2.01835 -7.88991,2.01835c0,0 -7.52293,-0.36697 -7.52294,-0.36697c0,0 -7.70642,-2.01835 -7.70642,-2.01835c0,0 -4.40367,-3.11927 -4.40367,-3.11927c0,0 -2.93578,-4.03669 -2.93578,-4.03669" stroke-opacity="null" stroke-width="null" stroke="null" fill="#007f00"/>
  <path id="svg_3" d="m20.55046,27.33945c0,0 7.15596,2.38532 7.15596,2.38532c0,0 16.51376,1.83486 16.51376,1.83486c0,0 18.34863,0 18.34863,0c0,0 15.9633,-2.38532 15.9633,-2.38532c0,0 4.58716,-1.83486 4.58716,-1.83486c0,0 0,9.3578 0,9.3578c0,0 -1.65138,2.01835 -1.65138,2.01835c0,0 -6.78899,3.48624 -6.78899,3.48623c0,0 -13.3945,2.38533 -13.3945,2.38533c0.00001,0 -16.14678,0.18348 -16.14678,0.18348c0,0 -11.92661,-1.65137 -11.92661,-1.65137c0,0 -8.44037,-2.7523 -8.44037,-2.7523c0,0 -4.03669,-2.75229 -4.03669,-2.75229" stroke-opacity="null" stroke-width="null" stroke="null" fill="#007f00"/>
 </g>
</svg>