<svg width="90" height="94" xmlns="http://www.w3.org/2000/svg">
 <g>
  <title>background</title>
  <rect fill="none" id="canvas_background" height="28.111109" width="26.999998" y="-1" x="-1"/>
 </g>

 <g>
  <title>Layer 1</title>
  <path fill="#ff0000" id="svg_3" d="m50.991,0.882l-23.029,0l0,9.521c2.045,0.29 3.945,1.028 5.606,2.101c-1.591,6.122 -6.97,6.644 -6.97,6.644l0,1.864c6.178,0.48 9.474,-3.243 10.682,-5.016c1.688,2.306 2.686,5.15 2.686,8.23l10.599,0l0,-13.992l9.777,0c0,-5.164 -4.187,-9.352 -9.351,-9.352z"/>
  <path id="svg_1" d="m58.950098,89.118l-28.126,0c-6.591,0 -11.953,-5.363 -11.953,-11.951l0,-12.537c0,-9.636 5.37,-18.469 13.816,-22.963l0,-12.368c0,-4.231 3.443,-7.673 7.675,-7.673l9.048,0c4.231,0 7.675,3.442 7.675,7.673l0,12.368c8.447,4.491 13.816,13.327 13.816,22.963l0,12.537c0.001,6.588 -5.361,11.951 -11.951,11.951zm-18.587,-62.292c-1.365,0 -2.475,1.109 -2.475,2.473l0,13.987c0,1.022 -0.599,1.95 -1.532,2.371c-7.463,3.361 -12.285,10.81 -12.285,18.973l0,12.537c0,3.724 3.029,6.751 6.752,6.751l28.126,0c3.722,0 6.752,-3.027 6.752,-6.751l0,-12.537c0,-8.166 -4.821,-15.611 -12.284,-18.973c-0.933,-0.42 -1.532,-1.349 -1.532,-2.371l0,-13.987c0,-1.364 -1.11,-2.473 -2.475,-2.473l-9.047,0z"/>
  <rect fill="#7f00ff" id="svg_2" height="9.65" width="7.013" y="0.882" x="18.853"/>
  <g id="svg_4">
   <circle fill="#00bf00" id="svg_5" r="1.938" cy="67.109902" cx="41.563"/>
   <path fill="#00bf00" id="svg_6" d="m45.54,68.146902c-0.154,-0.318 -0.675,-0.318 -0.83,0l-0.668,1.382c-0.069,0.142 -0.06,0.312 0.023,0.443c0.085,0.136 0.232,0.217 0.391,0.217l1.339,0l0.008,0c0.254,0 0.461,-0.207 0.461,-0.461c0,-0.102 -0.034,-0.196 -0.092,-0.273l-0.632,-1.308z"/>
   <path fill="#00bf00" id="svg_7" d="m52.594,48.270902c-1.863,-0.84 -3.063,-2.696 -3.063,-4.741l0,-4.354l-8.798,0l0,4.354c0,2.045 -1.198,3.901 -3.064,4.741c-6.532,2.945 -10.752,9.459 -10.752,16.603l0,12.537c0,2.288 1.862,4.15 4.152,4.15l28.126,0c2.29,0 4.152,-1.862 4.152,-4.15l0,-12.537c0,-7.144 -4.221,-13.661 -10.753,-16.603zm-0.139,17.628c0,0.976 -0.194,1.903 -0.54,2.753l3.081,1.348c0.021,-0.102 0.054,-0.207 0.098,-0.309c0.342,-0.782 1.253,-1.138 2.035,-0.795c0.782,0.342 1.138,1.252 0.796,2.034c-0.234,0.531 -0.733,0.86 -1.273,0.911c0.328,0.433 0.427,1.019 0.193,1.554c-0.342,0.782 -1.253,1.138 -2.033,0.796c-0.782,-0.346 -1.138,-1.253 -0.796,-2.035c0.044,-0.102 0.099,-0.196 0.161,-0.284l-3.298,-1.442c-0.523,0.664 -1.158,1.229 -1.875,1.68l0,2.84c0,0.424 -0.344,0.766 -0.766,0.766s-0.766,-0.342 -0.766,-0.766l0,-2.116c-0.178,0.062 -0.358,0.112 -0.543,0.159l0,1.957c0,0.424 -0.342,0.766 -0.765,0.766c-0.422,0 -0.764,-0.342 -0.764,-0.766l0,-1.74c-0.092,0.004 -0.18,0.014 -0.271,0.014s-0.181,-0.01 -0.272,-0.014l0,1.74c0,0.424 -0.342,0.766 -0.765,0.766c-0.422,0 -0.764,-0.342 -0.764,-0.766l0,-1.957c-0.185,-0.047 -0.366,-0.098 -0.543,-0.159l0,2.116c0,0.424 -0.342,0.766 -0.765,0.766c-0.421,0 -0.763,-0.342 -0.763,-0.766l0,-2.84c-0.797,-0.498 -1.49,-1.145 -2.042,-1.903l-3.328,1.3c0.058,0.092 0.108,0.187 0.149,0.292c0.312,0.792 -0.081,1.689 -0.875,1.997c-0.794,0.312 -1.691,-0.081 -2.001,-0.873c-0.211,-0.542 -0.091,-1.128 0.254,-1.544c-0.537,-0.075 -1.022,-0.42 -1.234,-0.962c-0.31,-0.796 0.083,-1.692 0.877,-2.001c0.795,-0.312 1.689,0.081 2,0.877c0.041,0.102 0.068,0.207 0.085,0.312l3.106,-1.215c-0.283,-0.779 -0.443,-1.612 -0.443,-2.489c0,-0.393 0.039,-0.775 0.098,-1.15l-2.641,-1.155c-0.021,0.102 -0.053,0.207 -0.097,0.309c-0.344,0.782 -1.252,1.138 -2.035,0.796c-0.78,-0.343 -1.138,-1.253 -0.795,-2.035c0.233,-0.531 0.731,-0.86 1.271,-0.911c-0.328,-0.433 -0.425,-1.021 -0.193,-1.554c0.344,-0.782 1.254,-1.138 2.037,-0.796c0.78,0.343 1.137,1.253 0.794,2.035c-0.044,0.102 -0.1,0.196 -0.161,0.281l2.424,1.062c1.173,-2.484 3.693,-4.208 6.622,-4.208c3.039,0 5.644,1.853 6.752,4.486l2.488,-0.972c-0.058,-0.092 -0.109,-0.187 -0.148,-0.291c-0.312,-0.793 0.081,-1.689 0.877,-1.998c0.793,-0.312 1.689,0.078 1.999,0.874c0.213,0.541 0.091,1.127 -0.254,1.543c0.538,0.075 1.022,0.42 1.233,0.962c0.312,0.796 -0.081,1.692 -0.875,2.001c-0.795,0.312 -1.691,-0.081 -2.002,-0.877c-0.041,-0.102 -0.068,-0.206 -0.085,-0.312l-2.714,1.06c0.035,0.28 0.055,0.561 0.055,0.848z"/>
   <circle fill="#00bf00" id="svg_8" r="1.938" cy="67.109902" cx="48.695"/>
  </g>
 </g>
</svg>