<svg width="100" height="125" xmlns="http://www.w3.org/2000/svg">
 <title>ic-12</title>

 <desc>Created with Sketch.</desc>
 <g>
  <title>background</title>
  <rect fill="none" id="canvas_background" height="127" width="102" y="-1" x="-1"/>
 </g>
 <g>
  <title>Layer 1</title>
  <g id="svg_1" fill-rule="evenodd" fill="none">
   <path stroke="null" id="svg_2" fill="#729C62" d="m69.247733,77.569722c3.306741,-2.97089 4.892325,-9.676192 5.578816,-13.759395c-2.523501,2.25975 -6.926532,6.201834 -11.264858,10.085991l-4.391323,3.93284c1.263907,1.024807 2.808203,1.631802 4.464655,1.720541c2.077343,0.102912 4.067181,-0.592206 5.612709,-1.979977l0,0zm-11.771406,-1.643511l15.545257,-13.919001c-4.241576,0.333386 -11.15147,1.282395 -14.167345,3.991383c-1.545529,1.388388 -2.457563,3.294416 -2.568487,5.369294c-0.087506,1.629337 0.335234,3.206294 1.190575,4.558323l0,0zm-14.561739,-8.305059c1.981826,-3.14467 1.479592,-7.360364 -1.376679,-9.927002c-3.015876,-2.708372 -9.925153,-3.657381 -14.167345,-3.990767l15.544024,13.917769zm-6.157464,3.624104c1.656452,-0.088738 3.200748,-0.695118 4.464655,-1.719924c-5.462347,-4.891093 -12.261317,-10.978922 -15.656796,-14.019448c0.686491,4.083203 2.272075,10.789121 5.578816,13.759395c1.545529,1.387772 3.535983,2.093982 5.613326,1.979977l0,0zm41.016283,-10.076132c-0.271146,2.548767 -1.729784,13.719956 -6.82362,18.294918c-1.968885,1.767991 -4.435692,2.638738 -6.893255,2.638738c-2.396555,0 -4.779554,-0.836237 -6.691129,-2.465575c-3.771385,4.213846 -5.896179,9.705156 -5.896179,15.415847l0,11.225418l-2.546302,0l0,-19.529246c0,-5.710691 -2.124794,-11.201384 -5.896179,-15.415847c-1.911575,1.629337 -4.295189,2.466191 -6.690512,2.466191c-2.458795,0 -4.924986,-0.870747 -6.894487,-2.639354c-5.644137,-5.069802 -6.825468,-18.244386 -6.872919,-18.802699l-0.118318,-1.391469l1.396399,0.010476c0.577417,0.004314 14.196309,0.155909 19.393056,4.82269c3.937154,3.536598 4.511489,9.435859 1.517182,13.650937c3.720854,4.078273 6.032984,9.262079 6.581438,14.756471c1.093209,-2.342326 2.534593,-4.522582 4.296421,-6.45326c-2.994308,-4.215078 -2.377452,-10.066888 1.517182,-13.649704c5.485147,-5.045769 20.789455,-4.833783 20.789455,-4.833783l-0.168233,1.89925z"/>
  </g>
 </g>
</svg>