<svg width="100" height="125.00000000000001" xmlns="http://www.w3.org/2000/svg">
 <!-- Created with Method Draw - http://github.com/duopixel/Method-Draw/ -->

 <g>
  <title>background</title>
  <rect fill="none" id="canvas_background" height="127" width="102" y="-1" x="-1"/>
  <g display="none" overflow="visible" y="0" x="0" height="100%" width="100%" id="canvasGrid">
   <rect fill="url(#gridpattern)" stroke-width="0" y="0" x="0" height="100%" width="100%"/>
  </g>
 </g>
 <g>
  <title>Layer 1</title>
  <g id="svg_7">
   <path stroke="null" id="svg_4" d="m95.407176,51.927261c-0.046554,-0.127468 -1.176035,-3.108014 -4.587757,-3.108014c-0.676137,0 -1.395503,0.123035 -2.118194,0.360237c-2.066098,0.640668 -3.494854,1.766824 -4.26964,2.512792c-0.411224,-0.130794 -0.929966,-0.239419 -1.515212,-0.239419c-0.843509,0 -1.649332,0.219467 -2.396408,0.655077c-1.900943,1.108422 -2.814283,1.751306 -2.863053,1.786776c-0.310358,0.22501 -1.851064,1.518538 -2.656887,5.51994c-0.196191,0.180673 -0.382405,0.381297 -0.557536,0.590789l-0.007759,-0.003325l-1.035266,-0.311467l-2.190241,0.377972l-0.430068,0.6318l-2.344312,0l-2.797656,-1.322347l-0.620716,0.009976c-0.009976,-0.074264 -0.072047,-0.469971 -0.307033,-1.013097c-0.1053,-0.912231 0,-2.397516 0.156287,-3.726514c0.853485,-0.808039 0.338069,-3.101364 0.101975,-3.726514c0.366888,-0.703848 -0.101975,-6.201619 -0.101975,-6.201619s0.156287,-0.990929 0.54756,-1.772366c0.598548,-0.677246 2.258963,-2.758862 2.258963,-2.758862l-0.006651,-0.004434c3.529215,-1.494152 5.641867,-5.404664 6.01873,-6.393376c0.095324,-0.251612 0.1053,-0.465537 0.075373,-0.638451l0.080915,0.135227l0.359129,0l0.424526,-0.034361l0.176239,-0.328093c0.275997,-0.508766 -0.11971,-1.38331 -0.340285,-1.753523c-0.049879,-0.196191 -0.220576,-1.033049 -0.066505,-2.880788c0.006651,-0.186215 0.012193,-0.364671 0.019952,-0.545343c0.023277,0 0.046554,0.004434 0.073156,0.004434c3.125749,0 8.903952,-2.156989 9.126744,-2.241229c0.399032,-0.133011 0.849051,-0.202841 1.303504,-0.202841c0.887846,0 1.365576,0.266021 1.415455,0.376863l0.101975,0.238311l0.239419,0.096433l0.263804,0.050987c0.369104,-0.001108 0.66727,-0.287081 0.708281,-0.682788c0.066505,-0.619608 -0.466646,-1.675934 -2.101568,-2.018436c-0.959893,-0.373538 -3.606804,-1.06076 -3.733164,-1.094012c-0.073156,-0.017735 -3.774176,-0.873436 -7.71794,1.322347c-0.148529,-0.565295 -0.353587,-1.121723 -0.647318,-1.672608c-0.317009,-0.534259 -1.248083,-1.38331 -2.394191,-1.38331c-0.2106,0 -0.468862,0.034361 -0.747076,0.130794l0.141878,-0.371321c2.388649,-0.176239 3.998077,-2.042821 4.773972,-5.596421c0.420092,-1.929762 -0.258262,-3.851765 -1.156084,-4.435904l-1.100663,-0.738209l0.139661,1.307938c-0.028819,0.152962 -0.402357,0.488814 -0.527609,0.600765c-0.070939,0.06318 -0.131902,0.120818 -0.16848,0.157396c-0.038795,0.034361 -0.111951,0.089782 -0.215034,0.165155c-0.783654,0.594114 -2.867487,2.173615 -3.810754,4.393784c-0.771462,1.811161 -0.16183,3.024883 0.557536,3.675526l-0.491031,1.154975c-0.5265,0.067614 -1.265818,0.402357 -1.630488,1.67815c-0.244961,0.850159 -0.167372,1.715837 0.024385,2.477323l-0.803606,3.218857l-0.601873,0.990929l-0.75816,-2.099351c0.44226,-0.711607 0.98317,-2.28224 -0.079806,-5.073246c-1.729138,-4.41041 -4.95132,-6.406678 -7.223584,-7.526183c-2.564888,-1.260275 -5.924514,-1.019748 -5.956658,-1.000905c-0.050987,-0.002217 -0.213925,-0.012193 -0.424526,-0.012193c-0.46332,0 -1.871016,0 -1.946389,0.979845l-0.046554,0.622933l0.621825,0.048771c1.121723,0.089782 1.121723,0.089782 3.007148,2.150338l0.537585,0.584138c5.855792,7.405365 8.603569,9.300767 9.809532,9.726401c0.006651,0.04212 0.012193,0.064288 0.023277,0.117493c0.116384,0.550886 1.387744,4.035763 1.387744,4.035763s-0.312575,2.911824 -0.27378,3.106906c0.038795,0.196191 -1.42543,2.736693 -1.42543,2.736693s-0.196191,0.293732 0.019952,0.586355c0.370213,0.448911 0.585247,3.986993 0.585247,3.986993l-0.723799,2.794331c-0.208383,1.536272 0.340285,8.496052 0.340285,8.496052s-1.015314,2.500599 -1.015314,2.891872s0.571946,2.527202 0.571946,2.527202l-0.085348,0.40014l-1.138349,-0.869003l-1.44649,0l-0.35137,0.430068l-0.89893,-0.430068l-1.525188,0.741534l-0.233877,0.391273l-1.016423,-0.391273l-1.602778,1.2503l-0.665053,0l-2.344312,1.994051l-0.938833,0l-1.52408,-0.963218l-1.290203,1.264709l-0.468862,-0.208383l-0.703848,0l-0.742643,-0.208383c0,0 -1.066302,0.127468 -1.184903,0.417875c-2.06499,-1.411021 -8.058226,-4.887031 -17.124007,-4.887031c-1.884317,0 -3.816296,0.154071 -5.815889,0.472188c-8.148008,1.801185 -11.575248,6.049766 -12.193747,6.907684l-4.961296,4.566697c-0.576379,0.354695 -0.586355,1.18712 -0.593006,1.640464c-0.007759,0.577488 -0.017735,1.732463 -0.026602,4.039089c-0.019952,4.602167 -0.039903,13.810935 -0.039903,32.221819l0.028819,1.295745l1.245866,0.005542c0.009976,0 0.018843,0 0.028819,0c0.857918,0 0.958785,-0.156287 4.374941,-5.374737c2.737802,-4.182075 9.146696,-13.977198 10.923496,-14.555794l0.218359,-0.041012c6.153957,-1.189336 6.16615,-1.415455 28.493089,5.405773c2.312168,1.053001 4.142172,1.544031 5.749383,1.544031c1.743547,0 2.961703,-0.595222 4.062366,-1.20818l3.650033,-2.05058c1.350058,-0.319225 9.463705,-2.327686 14.037053,-5.676228c4.745153,-1.512996 5.642975,-1.907594 6.996358,-5.884611c0.827991,-0.982062 1.576176,-2.058339 2.244554,-3.178953c1.552899,-2.336553 3.337458,-5.628565 4.905875,-11.219445c0.324768,-0.685005 2.020653,-4.390458 2.481756,-7.932974c1.560658,-2.543828 2.421901,-6.135114 2.458479,-6.29251l0.08424,-0.364671l-0.127468,-0.354695zm-13.891849,-28.436559c0.022168,0.005542 1.281336,0.333635 2.388649,0.659511c-0.240528,0.045445 -0.476621,0.106408 -0.707173,0.181781c-0.057638,0.023277 -5.901237,2.213518 -8.762074,2.17029c-0.005542,-0.549777 -0.028819,-1.080711 -0.089782,-1.597236c3.5536,-2.165856 7.164838,-1.414346 7.17038,-1.414346zm-14.194448,15.491302l-0.022168,-0.036578c-0.062072,-0.097541 -1.426539,-2.424118 0.681679,-6.426629c0.179564,-0.366888 0.514308,-0.726016 0.670595,-0.726016c0.038795,0 0.108625,0.044337 0.158504,0.093107c0.007759,0.006651 0.707173,0.754835 1.195987,1.464225l0.241636,0.352478l0.415658,-0.097541c0.493248,-0.115276 1.506345,-0.206166 1.808944,-0.148529c-0.417875,0.979845 -2.272265,4.249689 -5.150836,5.525482zm2.211301,-22.34024c0.812473,-1.914244 2.703441,-3.347434 3.413939,-3.885018c0.174022,-0.130794 0.289298,-0.223901 0.335852,-0.268238l0.131902,-0.121926c0.11971,-0.107517 0.263804,-0.238311 0.402357,-0.387948c0.234985,0.566403 0.402357,1.440948 0.183998,2.461805c-0.681679,3.126858 -1.963015,4.646504 -3.917162,4.646504l-0.055421,-0.001108c-0.346936,-0.201733 -1.167168,-0.867894 -0.495465,-2.44407zm0.11971,4.387133c-0.052096,0.037686 -0.1053,0.06318 -0.156287,0.107517c-0.046554,-0.017735 -0.103083,-0.029927 -0.154071,-0.047662l0.310358,-0.059855zm-1.632705,1.975207c0.22501,-0.784763 0.54756,-0.784763 0.655077,-0.784763c0.240528,0 0.501007,0.138553 0.577488,0.18954l0.452236,0.314792l0.367996,-0.411224c0.314792,-0.348044 0.635126,-0.518741 0.982062,-0.518741c0.601873,0 1.163843,0.512091 1.305721,0.745968c0.602981,1.135024 0.791413,2.318818 0.820232,3.675526l0,0.001108l0,0.001108c0.015518,0.624041 -0.002217,1.282444 -0.031036,1.996268c-0.103083,1.220372 -0.069831,2.060556 -0.011084,2.605899c-0.104192,-0.065397 -0.175131,-0.106408 -0.200624,-0.11971c-2.268939,-1.354491 -3.986993,-3.871717 -4.006944,-3.90497c-0.394598,-0.564187 -1.325672,-2.340987 -0.911123,-3.790802zm1.038591,5.967743c0.783654,0.895605 1.913136,2.010677 3.251001,2.810957c0.157396,0.088674 0.479947,0.303708 0.785871,0.569729c-0.264913,-0.115276 -0.595222,-0.177347 -1.014206,-0.177347c-0.4212,0 -0.893388,0.057638 -1.287986,0.128577c-0.495465,-0.659511 -1.043025,-1.245866 -1.086253,-1.29242c-0.397923,-0.386839 -0.791413,-0.467754 -1.053001,-0.467754c-1.041916,0 -1.67815,1.184903 -1.784559,1.407696c-0.088674,0.164046 -0.159613,0.321442 -0.234985,0.479947c0.108625,-2.174723 1.823354,-3.17452 2.424118,-3.459384zm-3.492637,7.881987c0.022168,0.996471 0.228335,1.743547 0.412333,2.206868c-0.11971,0.127468 -0.340285,0.362454 -0.762594,0.81469c-0.012193,-0.339177 -0.248286,-1.669283 -0.248286,-1.669283s0.260479,-0.466646 0.598548,-1.352274zm11.387925,24.171352l0.346936,-0.291515l0.078698,-0.443369c0.598548,-3.339675 1.739114,-4.360531 1.732463,-4.360531l0,0c0.019952,-0.013301 0.888954,-0.621825 2.669079,-1.661524c0.342502,-0.198407 0.69498,-0.293732 1.065193,-0.304816c-0.290406,0.649535 -0.580813,1.487502 -0.750402,2.531635c-0.031036,0.300382 -0.158504,0.784763 -0.257154,0.918882c-0.370213,0.462212 -1.241432,2.418576 -1.908702,4.364965l0,0l-1.565091,0.258262l-0.783654,-0.455561l-0.966544,-0.238311c0.111951,-0.110842 0.227226,-0.221684 0.339177,-0.318117zm-22.833487,-43.812585l-0.566403,-0.619608c-0.740426,-0.811365 -1.234782,-1.352274 -1.638247,-1.716945c0.937725,-0.015518 3.149026,0.031036 4.908091,0.896713c2.087158,1.027507 5.043319,2.855294 6.60841,6.85448c0.925532,2.426335 0.425634,3.602371 0.178456,3.985884l-0.099758,0c-0.278214,-0.052096 -2.519443,-0.713824 -9.390549,-9.400525zm33.592937,47.460401l-0.136336,0.25272l-0.013301,0.283756c-0.083132,1.739114 -1.450924,7.120501 -4.11557,11.606284c-0.458887,0.680571 -0.902255,1.287986 -1.319022,1.859932c-0.324768,0.443369 -0.632909,0.860135 -0.913339,1.272468l-0.154071,0.311467c-1.034157,3.099147 -1.034157,3.099147 -5.474495,4.512385l-0.386839,0.123035l-0.170697,0.129685c-4.415952,3.336349 -13.347614,5.385821 -13.43518,5.405773l-4.138847,2.264506c-0.905581,0.504332 -1.689235,0.888954 -2.840885,0.888954c-1.23589,0 -2.798765,-0.440043 -4.78284,-1.350058l-0.156287,-0.059855c-15.874816,-4.850453 -20.71751,-6.165042 -24.545999,-6.165042c-1.770149,0 -3.222182,0.281539 -5.23175,0.670595l-0.217251,0.04212c-2.244554,0.434501 -5.832515,5.389146 -12.540683,15.63983c-0.364671,0.557536 -0.733775,1.120614 -1.084036,1.651548c0.004434,-24.821996 0.046554,-30.95711 0.065397,-32.468997l4.84602,-4.460289l0.197299,-0.229443c0.027711,-0.043228 2.9218,-4.255231 10.668559,-5.968851c1.796752,-0.283756 3.596828,-0.427851 5.350352,-0.427851c10.079987,0 16.126428,4.738503 16.315968,4.889248c0.290406,0.259371 3.401746,3.019341 5.374737,4.066799c2.078291,1.10288 6.558531,1.522971 7.062863,1.5662l0.154071,0.014409l0.151854,-0.024385c7.276789,-1.148325 13.848621,0.18954 16.639627,2.120411c0.497681,0.492139 1.408804,1.869907 1.457575,3.112448c0.024385,0.586355 -0.149637,1.069627 -0.525392,1.475309c-1.36225,1.466442 -7.939625,2.537177 -13.819802,2.846427c-2.767729,0.346936 -5.394688,0.135227 -5.432375,0.131902c0,0 -6.345714,-0.464429 -8.72217,-0.678354c-1.416563,-0.062072 -4.430362,0.33031 -4.55783,0.345828l-0.200624,0.043228c-2.431877,0.73045 -4.647612,0.968761 -4.669781,0.970977c-0.686113,0.072047 -1.184903,0.687221 -1.112855,1.373335c0.067614,0.642885 0.609632,1.120614 1.242541,1.120614c0.04212,0 0.086457,-0.002217 0.130794,-0.005542c0.097541,-0.011084 2.40195,-0.256045 5.028909,-1.034157c0.887846,-0.109734 3.076979,-0.360237 3.979234,-0.319225c2.319927,0.2106 8.684484,0.677246 8.685593,0.677246c0.115276,0.011084 2.90074,0.236094 5.849141,-0.135227c2.97057,-0.155179 12.864342,-0.873436 15.432556,-3.634515c0.829099,-0.892279 1.242541,-2.026195 1.190445,-3.276495c-0.031036,-0.808039 -0.257154,-1.603886 -0.570837,-2.32436c0.254937,-0.890063 1.135024,-3.197797 3.573552,-4.15769l0.56197,-0.221684l0.176239,-0.579705c0.965435,-3.193363 2.111543,-6.790191 2.354288,-7.274572c0.343611,-0.596331 2.822042,-2.972787 4.070125,-3.430565c1.259167,-0.461103 1.759065,-0.171805 2.169181,0.160721l0.263804,0.215034c-0.036578,1.282444 -0.324768,3.590178 -1.723596,6.181668zm4.001402,-8.728821l-0.005542,-0.024385l-1.389961,0.1053c-1.18712,-0.764811 -2.560454,-0.849051 -4.179858,-0.256045c-0.458887,0.16848 -0.98317,0.469971 -1.517429,0.836858c0.259371,-1.345624 0.783654,-2.194675 0.987604,-2.481756l0.134119,-0.178456c0.012193,-0.016626 1.284661,-1.628271 3.719863,-2.381998c0.488814,-0.16183 0.945484,-0.241636 1.356708,-0.241636c1.201529,0 1.824462,0.7371 2.08605,1.169385c-0.18289,0.678354 -0.596331,2.078291 -1.191553,3.452734z" fill="#000000"/>
  </g>
 </g>
</svg>