<svg width="100" height="125" xmlns="http://www.w3.org/2000/svg">
 <title>ic-12</title>

 <desc>Created with Sketch.</desc>
 <g>
  <title>background</title>
  <rect fill="none" id="canvas_background" height="127" width="102" y="-1" x="-1"/>
 </g>
 <g>
  <title>Layer 1</title>
  <g stroke="null" id="svg_1" fill-rule="evenodd" fill="none">
   <path stroke="null" id="svg_2" fill="#46673D" d="m69.247733,60.269226c3.306741,-4.761211 4.892325,-15.507269 5.578816,-22.051095c-2.523501,3.621523 -6.926532,9.939189 -11.264858,16.164021l-4.391323,6.302852c1.263907,1.642376 2.808203,2.615161 4.464655,2.757375c2.077343,0.164929 4.067181,-0.949082 5.612709,-3.173153l0,0zm-11.771406,-2.633925l15.545257,-22.306883c-4.241576,0.534291 -11.15147,2.055192 -14.167345,6.396675c-1.545529,2.225059 -2.457563,5.2797 -2.568487,8.604944c-0.087506,2.61121 0.335234,5.138474 1.190575,7.305265l0,0zm-14.561739,-13.309862c1.981826,-5.039714 1.479592,-11.795874 -1.376679,-15.909221c-3.015876,-4.340494 -9.925153,-5.861396 -14.167345,-6.395687l15.544024,22.304908zm-6.157464,5.808066c1.656452,-0.142214 3.200748,-1.11401 4.464655,-2.756387c-5.462347,-7.838568 -12.261317,-17.595051 -15.656796,-22.467861c0.686491,6.543826 2.272075,17.290871 5.578816,22.051095c1.545529,2.224072 3.535983,3.355859 5.613326,3.173153l0,0zm41.016283,-16.14822c-0.271146,4.084707 -1.729784,21.987889 -6.82362,29.319819c-1.968885,2.83342 -4.435692,4.228896 -6.893255,4.228896c-2.396555,0 -4.779554,-1.340171 -6.691129,-3.951382c-3.771385,6.753197 -5.896179,15.553686 -5.896179,24.70576l0,17.990091l-2.546302,0l0,-31.297979c0,-9.152073 -2.124794,-17.951574 -5.896179,-24.705759c-1.911575,2.61121 -4.295189,3.952369 -6.690512,3.952369c-2.458795,0 -4.924986,-1.395477 -6.894487,-4.229884c-5.644137,-8.124972 -6.825468,-29.238836 -6.872919,-30.1336l-0.118318,-2.229997l1.396399,0.016789c0.577417,0.006913 14.196309,0.249862 19.393056,7.728944c3.937154,5.667827 4.511489,15.122105 1.517182,21.877278c3.720854,6.535925 6.032984,14.843602 6.581438,23.64903c1.093209,-3.753861 2.534593,-7.247984 4.296421,-10.34213c-2.994308,-6.755172 -2.377452,-16.133406 1.517182,-21.875303c5.485147,-8.086455 20.789455,-7.746721 20.789455,-7.746721l-0.168233,3.043778z"/>
  </g>
 </g>
</svg>