<svg width="100" height="125" xmlns="http://www.w3.org/2000/svg">
 <title>ic-12</title>

 <desc>Created with Sketch.</desc>
 <g>
  <title>background</title>
  <rect fill="none" id="canvas_background" height="127" width="102" y="-1" x="-1"/>
 </g>
 <g>
  <title>Layer 1</title>
  <g stroke="null" id="svg_1" fill-rule="evenodd" fill="none">
   <path stroke="null" id="svg_2" fill="#46673D" d="m69.247733,70.547754c3.306741,-3.69755 4.892325,-12.042924 5.578816,-17.12485c-2.523501,2.81247 -6.926532,7.718761 -11.264858,12.552957l-4.391323,4.894787c1.263907,1.275467 2.808203,2.03093 4.464655,2.141373c2.077343,0.128084 4.067181,-0.737056 5.612709,-2.464266l0,0zm-11.771406,-2.045503l15.545257,-17.323495c-4.241576,0.41493 -11.15147,1.59606 -14.167345,4.967649c-1.545529,1.727978 -2.457563,4.100208 -2.568487,6.682587c-0.087506,2.027862 0.335234,3.990532 1.190575,5.673259l0,0zm-14.561739,-10.336421c1.981826,-3.913835 1.479592,-9.16066 -1.376679,-12.355079c-3.015876,-3.370822 -9.925153,-4.551952 -14.167345,-4.966882l15.544024,17.321961zm-6.157464,4.510536c1.656452,-0.110443 3.200748,-0.865139 4.464655,-2.140606c-5.462347,-6.087421 -12.261317,-13.664293 -15.656796,-17.448511c0.686491,5.081927 2.272075,13.428067 5.578816,17.12485c1.545529,1.727211 3.535983,2.606156 5.613326,2.464266l0,0zm41.016283,-12.540686c-0.271146,3.172178 -1.729784,17.075764 -6.82362,22.769731c-1.968885,2.20043 -4.435692,3.284155 -6.893255,3.284155c-2.396555,0 -4.779554,-1.040775 -6.691129,-3.068638c-3.771385,5.244524 -5.896179,12.078971 -5.896179,19.18646l0,13.97108l-2.546302,0l0,-24.305968c0,-7.107488 -2.124794,-13.941168 -5.896179,-19.186459c-1.911575,2.027862 -4.295189,3.069404 -6.690512,3.069404c-2.458795,0 -4.924986,-1.083725 -6.894487,-3.284922c-5.644137,-6.309842 -6.825468,-22.70684 -6.872919,-23.401713l-0.118318,-1.731812l1.396399,0.013038c0.577417,0.005369 14.196309,0.194043 19.393056,6.002287c3.937154,4.401627 4.511489,11.743806 1.517182,16.989864c3.720854,5.075791 6.032984,11.527521 6.581438,18.365804c1.093209,-2.915244 2.534593,-5.628775 4.296421,-8.031684c-2.994308,-5.246058 -2.377452,-12.529181 1.517182,-16.98833c5.485147,-6.27993 20.789455,-6.016093 20.789455,-6.016093l-0.168233,2.363794z"/>
  </g>
 </g>
</svg>