<svg width="100" height="125" xmlns="http://www.w3.org/2000/svg">

 <g>
  <title>background</title>
  <rect fill="none" id="canvas_background" height="402" width="582" y="-1" x="-1"/>
 </g>
 <g>
  <title>Layer 1</title>
  <g id="svg_1">
   <path id="svg_2" d="m50.044,25.826c-13.272,0 -24.03,10.759 -24.03,24.03c0,13.272 10.759,24.03 24.03,24.03s24.031,-10.759 24.031,-24.03c0,-13.271 -10.759,-24.03 -24.031,-24.03zm0,43.971c-10.995,0 -19.94,-8.945 -19.94,-19.94s8.945,-19.94 19.94,-19.94s19.94,8.945 19.94,19.94s-8.945,19.94 -19.94,19.94z" fill="#000000"/>
   <path id="svg_3" d="m21.284,50c0,-1.133 -0.918,-2.051 -2.051,-2.051l-16.182,0c-1.133,0 -2.051,0.918 -2.051,2.051c0,1.133 0.918,2.051 2.051,2.051l16.182,0c1.133,0.001 2.051,-0.918 2.051,-2.051z" fill="#000000"/>
   <path id="svg_4" d="m96.949,47.949l-16.182,0c-1.133,0 -2.051,0.919 -2.051,2.051c0,1.133 0.918,2.051 2.051,2.051l16.182,0c1.133,0.001 2.051,-0.918 2.051,-2.051c0,-1.133 -0.918,-2.051 -2.051,-2.051z" fill="#000000"/>
   <path id="svg_5" d="m50,78.716c-1.133,0 -2.051,0.918 -2.051,2.052l0,16.182c0,1.132 0.918,2.05 2.051,2.05s2.051,-0.918 2.051,-2.051l0,-16.182c0.001,-1.133 -0.918,-2.051 -2.051,-2.051z" fill="#000000"/>
   <path id="svg_6" d="m50,21.284c1.133,0 2.051,-0.918 2.051,-2.051l0,-16.182c0.001,-1.133 -0.918,-2.051 -2.051,-2.051s-2.051,0.918 -2.051,2.052l0,16.182c0,1.132 0.918,2.05 2.051,2.05z" fill="#000000"/>
   <path id="svg_7" d="m26.794,70.305l-11.442,11.442c-0.801,0.801 -0.801,2.1 0,2.901c0.801,0.801 2.1,0.801 2.901,0l11.442,-11.442c0.801,-0.801 0.801,-2.1 0,-2.901s-2.1,-0.801 -2.901,0z" fill="#000000"/>
   <path id="svg_8" d="m73.206,29.695l11.442,-11.442c0.801,-0.801 0.801,-2.1 0,-2.901s-2.1,-0.801 -2.901,0l-11.442,11.442c-0.801,0.801 -0.801,2.1 0,2.901s2.1,0.801 2.901,0z" fill="#000000"/>
   <path id="svg_9" d="m73.206,70.305c-0.801,-0.801 -2.1,-0.801 -2.901,0c-0.801,0.801 -0.801,2.1 0,2.901l11.442,11.442c0.801,0.801 2.1,0.801 2.901,0c0.801,-0.801 0.801,-2.1 0,-2.901l-11.442,-11.442z" fill="#000000"/>
   <path id="svg_10" d="m26.794,29.695c0.801,0.801 2.1,0.801 2.901,0s0.801,-2.1 0,-2.901l-11.442,-11.442c-0.801,-0.801 -2.1,-0.801 -2.901,0c-0.801,0.801 -0.801,2.1 0,2.901l11.442,11.442z" fill="#000000"/>
  </g>
 </g>
</svg>