<svg width="100" height="125" xmlns="http://www.w3.org/2000/svg">

 <g>
  <title>background</title>
  <rect fill="none" id="canvas_background" height="402" width="582" y="-1" x="-1"/>
 </g>
 <g>
  <title>Layer 1</title>
  <g id="svg_1">
   <path fill="#5B9BA2" id="svg_2" d="m77.482613,101.486735c-2.3,1.8 -4.3,2.5 -6.6,2.6c-3.7,0.1 -7.4,0.4 -11.1,0.6c-0.6,0 -1.2,0.1 -1.7,0.2c-2.7,0.8 -5.5,0.5 -8.2,0.4c-0.8,0 -1.7,-0.4 -2.5,-0.7c-1.3,-0.5 -1.9,-1.2 -1.8,-2.9c0.1,-1.7 -0.8,-3.7 -1.8,-5.3c-2,-3.4 -3,-6.9 -2.7,-10.8c0.1,-1.2 0.7,-1.7 1.5,-2.2c0.8,-0.5 1.6,-0.3 2.4,0.2c1.1,0.7 2.2,1.3 3.4,1.8c4,1.7 7.9,3.2 11.5,5.7c1.2,0.9 2.7,1.5 4.1,2.1c4.3,2 8.3,4.4 12.1,7.3c0.4,0.5 0.8,0.7 1.4,1zm-32.5,-13.2c0.3,1.3 0.2,2.1 0.6,2.6c1.2,2.1 1.2,4.4 1.6,6.7c0.7,3.6 -0.3,3.6 4.1,3.6c3,0 5.9,-0.2 8.9,-0.2c2.7,0 5.4,0.1 8,0.1c0.5,0 0.9,-0.1 1.8,-0.3c-1.3,-0.7 -2.2,-1.2 -3.1,-1.6c-3,-1.5 -6.3,-2.7 -9.1,-4.6c-3.3,-2.2 -6.9,-3.7 -10.4,-5.3c-0.5,-0.3 -1.2,-0.5 -2.4,-1z"/>
   <path fill="#5B9BA2" id="svg_3" d="m63.382613,38.786735c-0.5,0.2 -1,0.3 -1.4,0.4c-1.2,0.1 -1.7,-0.7 -1.4,-1.8c0.1,-0.3 0.2,-0.5 0.4,-0.8c1.6,-2.5 3.2,-5 4.8,-7.5c1.5,-2.3 3.2,-4.5 4.7,-6.8c1.3,-2 3,-3.5 4.9,-4.9c0.7,-0.6 1.4,-0.6 2.1,0.2c0.5,0.7 1.2,1.3 1.7,2c2.8,4.8 5.5,9.6 8.2,14.4c1.5,2.7 2.8,5.6 4.1,8.4c0.3,0.5 0.6,1.1 0.7,1.6c0,0.6 -0.1,1.3 -0.5,1.7c-0.3,0.3 -1.2,0.5 -1.5,0.3c-2.3,-1.3 -4.9,-1.2 -7.4,-1.5c-0.6,-0.1 -1.3,-0.2 -1.9,-0.4c-2.7,-1.3 -5.6,-1.4 -8.5,-1.9c-3.3,-0.6 -6.5,-1.1 -9,-3.4zm23.3,4c0.1,-0.1 0.2,-0.3 0.3,-0.4c-1.2,-1.7 -2.5,-3.3 -3.5,-5.1c-1.4,-2.4 -3,-4.9 -3.8,-7.5c-1,-3.3 -2.5,-6.3 -3.8,-9.4c-0.1,-0.2 -0.3,-0.3 -0.5,-0.4c-1.8,1.7 -10.1,14.7 -10.8,16.9c3.7,0.8 7.5,1.4 11.2,2.4c3.7,0.9 7.3,2.3 10.9,3.5z"/>
   <path fill="#5B9BA2" id="svg_4" d="m73.782613,55.586735c-0.4,4.5 0.3,8.2 0.7,12.1c0.2,2.2 0.4,4.5 0.6,6.7c0.2,1.6 0.4,3.2 0.7,4.7c0.4,1.8 0.1,3.5 -0.6,5.1c-0.3,0.8 -0.9,1.3 -1.9,1.2c-1.6,-2.3 -4,-3.4 -6.6,-4.2c-1.9,-0.6 -3.9,-1 -5.8,-1.9c-2.3,-1 -4.8,-1.7 -7.2,-2.3c-3.7,-1 -4.7,-4.3 -2,-7.1c4.1,-3.8 8.5,-7.1 13.4,-9.8c1.8,-1 3.6,-2.2 5.4,-3.2c0.9,-0.5 2,-0.8 3.3,-1.3zm-3.7,5.1c-4.5,2.3 -14.8,9.4 -17,12.9c2.9,0.6 5.8,1 8.7,1.8c2.9,0.7 5.8,1.8 8.9,2.7c0,-2 0.1,-3.6 0,-5.3c-0.3,-3.9 -1.6,-7.8 -0.6,-12.1z"/>
   <path fill="#5B9BA2" id="svg_5" d="m82.282613,83.586735c0.2,-1.5 0.2,-3 0.5,-4.5c0.5,-2.9 0.9,-5.7 1.7,-8.5c0.8,-3 3.4,-4.6 5.8,-6.3c0.1,-0.1 0.3,-0.1 0.4,-0.1c0.1,0 0.3,0.1 0.4,0.1c0.1,0.1 0.2,0.2 0.2,0.3c0.3,5.8 2.1,11.3 2.8,17c0.4,3.4 0.4,6.9 0.6,10.4c0,1.1 0.1,2.1 0.1,3.2c0,1.5 -0.1,3 -0.3,4.6c-0.1,0.9 -0.2,2.1 -1.4,2.2c-1,0.1 -2.1,-0.2 -2.8,-1.2c-1.6,-2.2 -3.2,-4.3 -4.8,-6.5c-1.6,-2.1 -3.1,-4.2 -4.7,-6.2c-1.8,-2.4 -1.6,-3.2 1.5,-4.5zm7.6,11c0.2,-0.1 0.5,-0.1 0.7,-0.2c0,-1.1 -0.1,-2.2 -0.2,-3.4c-0.1,-0.9 -0.3,-1.9 -0.2,-2.8c0.4,-2.5 0.1,-4.9 -0.1,-7.4c0,-0.4 0,-0.9 0,-1.3c0,-2.1 0,-4.2 -0.1,-6.3c0,-0.3 -0.3,-0.7 -0.6,-1.3c-0.3,0.8 -0.5,1.2 -0.7,1.7c-1.1,2.8 -1.9,5.8 -3.4,8.5c-1.5,2.7 -1.7,4.9 0.8,7c0.4,0.3 0.6,0.8 0.9,1.2c1,1.4 2,2.8 2.9,4.3z"/>
   <path fill="#5B9BA2" id="svg_6" d="m7.682613,61.686735c-0.7,-1.2 -1.3,-2 -1.5,-2.8c-0.4,-1.8 -0.8,-3.7 -0.8,-5.5c0,-4 0.2,-7.9 0.4,-11.9c0.1,-1.2 0.3,-2.4 0.6,-3.6c0.3,-1.2 0.7,-2.3 1.2,-3.7c0.4,0.1 0.8,0.1 1.1,0.3c6.4,3.8 12.9,7.6 18.5,12.7c1.8,1.7 1.8,3.7 -0.1,5.3c-0.5,0.4 -1.1,0.7 -1.7,0.9c-1.2,0.6 -2.4,1.1 -3.5,1.6c-1.6,0.8 -3.3,1.5 -4.9,2.3c-2.2,1.1 -4.3,2.4 -6.5,3.6c-1,0.3 -2,0.5 -2.8,0.8zm1.1,-23.8c-0.5,2.7 -0.2,17.7 0.4,19.4c0.4,-0.2 0.8,-0.3 1.2,-0.5c3,-1.9 6.1,-3.7 9.5,-4.8c1.5,-0.5 3,-1.4 4.3,-2.9c-1.4,-1.1 -2.8,-2.3 -4.2,-3.3c-2.8,-2 -6,-3.5 -8.5,-6c-0.7,-0.8 -1.6,-1.2 -2.7,-1.9z"/>
   <path fill="#5B9BA2" id="svg_7" d="m57.782613,53.086735c0,2.1 -0.3,2.8 -1.9,3c-3.6,0.5 -7.1,1.6 -10.6,2.3c-4.2,0.8 -8.2,1.9 -12,3.8c-0.6,0.3 -1.2,0.6 -1.8,0.7c-1.5,0.3 -2.4,-0.8 -1.8,-2.2c0.4,-1 0.9,-2 1.4,-2.9c3.1,-5 6.2,-10 9.3,-15c0.7,-1.1 1.3,-2.3 2,-3.4c0.9,-1.4 2.2,-1.5 3.4,-0.1c0.6,0.7 1.1,1.4 1.8,1.9c3.9,2.9 6.7,6.9 9.7,10.6c0.3,0.3 0.4,1.1 0.5,1.3zm-22.6,3.3c0.2,0.1 0.3,0.3 0.5,0.4c5.4,-2.7 11.6,-2.4 17.8,-4.1c-3.7,-4.1 -5.7,-8.8 -9.3,-12.8c-1.5,4.2 -3.7,7.7 -6,11.1c-1.2,1.6 -2,3.5 -3,5.4z"/>
   <path fill="#5B9BA2" id="svg_8" d="m29.882613,40.886735c-1.7,-1.8 -3.4,-3.3 -4.4,-5.5c-2,-4.4 -4.4,-8.7 -6.6,-13c-0.2,-0.5 -0.5,-0.9 -0.8,-1.3c-1.3,-2 -0.6,-3.1 1.8,-3.4c4.1,-0.5 8.1,-0.1 12.2,-0.2c4.3,-0.1 8.7,0.1 13,-0.8c1.3,-0.3 2.4,-0.1 3.3,1.1c-0.3,1.4 -1.1,2.6 -2,3.7c-1.4,1.6 -2.9,3.2 -4.3,5c-1,1.2 -1.7,2.7 -2.6,4c-0.6,0.9 -1.2,1.8 -2,2.6c-2.1,2.3 -4.3,4.5 -6.4,6.8c-0.3,0.3 -0.7,0.6 -1.2,1zm-8.7,-19.8c1,1.6 2.1,3.2 3,4.8c1,1.7 2,3.4 3,5.1c0.9,1.6 1.8,3.2 2.8,5c6.3,-4.9 10.7,-11.3 16.4,-17c-2.5,0.2 -4.5,0.5 -6.4,0.6c-1.8,0 -3.6,0.3 -5.4,0.6c-2.3,0.3 -4.7,1.1 -7.1,0.3c-0.9,-0.3 -2,-0.2 -3,-0.3c-1.1,-0.1 -2.1,0.1 -3.3,0.9z"/>
   <path fill="#5B9BA2" id="svg_9" d="m14.082613,104.286735c-2.1,0 -4.2,0.1 -6.3,0c-1.9,-0.1 -2,-0.2 -2.3,-2.1c-0.2,-1.6 -0.4,-3.2 -0.5,-4.7c-0.1,-1.2 -0.2,-2.3 -0.1,-3.5c0.1,-1.5 0.3,-3 0.8,-4.4c0.3,-1.5 1.1,-1.8 2.4,-1.3c2.2,0.8 4.4,1.6 6.4,2.7c3.4,1.8 6.8,3.7 10.1,5.6c2.2,1.3 4.3,2.9 6.5,4.4c0.7,0.5 1.1,1.2 0.9,2.1c-0.3,1 -1.2,0.9 -2,0.9c-0.7,0 -1.4,-0.3 -2.1,-0.3c-0.9,-0.1 -2,-0.3 -2.8,0c-3.6,1.2 -7.3,0.8 -11,0.6zm8.9,-3.5c0,-0.1 0,-0.3 0,-0.4c-2.7,-1.5 -5.3,-3.2 -8.2,-4.4c-2.9,-1.2 -4.7,-4.1 -7.9,-5.2c0.3,3.5 0.7,6.8 1,10.3c5.2,-0.7 10.2,0.3 15.1,-0.3z"/>
   <path fill="#5B9BA2" id="svg_10" d="m5.382613,81.086735c0.2,-0.4 0.5,-1.3 1.1,-2c2.2,-2.7 4.5,-5.3 6.9,-7.9c1.2,-1.3 2.7,-2.4 4.1,-3.5c0.8,-0.6 1.7,-0.7 2.7,-0.4c3.7,1.3 7.4,2.6 11.1,4c1.1,0.4 2.1,1.3 3.2,1.9c0.7,0.4 1.3,0.9 1.1,1.6c-0.2,0.5 -0.9,1 -1.4,1.2c-3,0.9 -6,1.6 -9,2.4c-4.1,1.1 -8.2,2.3 -12.3,3.5c-1.4,0.4 -2.7,1.1 -4,1.7c-2.2,1 -3.5,0.2 -3.5,-2.5zm23.2,-7c-3.1,-1.1 -5.8,-2.1 -8.5,-3.1c-1.3,-0.5 -2.4,-0.5 -3.1,1c-0.2,0.5 -0.9,0.7 -1.3,1.1c-0.5,0.4 -1.1,0.8 -1.5,1.3c-0.9,1.1 -1.8,2.3 -2.6,3.5c-0.2,0.3 -0.3,0.7 -0.6,1.4c5.9,-1.8 11.5,-3.5 17.6,-5.2z"/>
  </g>
 </g>
</svg>