<svg width="100.00000000000001" height="100.00000000000001" xmlns="http://www.w3.org/2000/svg">

 <g>
  <title>background</title>
  <rect fill="none" id="canvas_background" height="102" width="102" y="-1" x="-1"/>
 </g>
 <g>
  <title>Layer 1</title>
  <g id="svg_1">
   <path id="svg_2" d="m2.433,92.025c-0.417,0 -0.834,-0.154 -1.159,-0.465c-0.673,-0.641 -0.698,-1.705 -0.057,-2.377l23.786,-24.967c0.64,-0.672 1.706,-0.695 2.376,-0.057c0.672,0.639 0.698,1.705 0.058,2.377l-23.786,24.968c-0.33,0.348 -0.774,0.521 -1.218,0.521l0,0z"/>
   <path id="svg_3" d="m50.004,92.025c-0.928,0 -1.682,-0.752 -1.682,-1.682l0,-24.62c0,-0.93 0.753,-1.682 1.682,-1.682c0.929,0 1.682,0.752 1.682,1.682l0,24.621c0.001,0.929 -0.753,1.681 -1.682,1.681l0,0z"/>
   <path id="svg_4" d="m97.576,92.025c-0.441,0 -0.881,-0.172 -1.21,-0.514l-24.066,-24.966c-0.646,-0.67 -0.626,-1.734 0.042,-2.379c0.67,-0.643 1.735,-0.625 2.379,0.043l24.066,24.967c0.644,0.67 0.624,1.734 -0.044,2.379c-0.326,0.314 -0.748,0.47 -1.167,0.47l0,0z"/>
   <path id="svg_5" d="m81.865,92.025c-0.538,0 -1.067,-0.26 -1.393,-0.738l-16.747,-24.75c-0.521,-0.77 -0.32,-1.814 0.45,-2.334c0.768,-0.521 1.814,-0.32 2.334,0.451l16.746,24.748c0.522,0.77 0.319,1.814 -0.449,2.334c-0.288,0.196 -0.616,0.289 -0.941,0.289l0,0z"/>
   <path id="svg_6" d="m66.306,92.025c-0.688,0 -1.334,-0.426 -1.58,-1.109l-8.951,-24.73c-0.315,-0.873 0.136,-1.838 1.01,-2.154c0.872,-0.312 1.837,0.137 2.152,1.01l8.951,24.732c0.316,0.871 -0.136,1.836 -1.01,2.15c-0.189,0.068 -0.382,0.101 -0.572,0.101l0,0z"/>
   <g id="svg_7">
    <g id="svg_8">
     <path id="svg_9" d="m73.604,24.426l0.011,-0.006l-0.002,-0.004l1.776,-0.873c3.145,-1.357 6.829,-0.034 8.339,3.08c1.502,3.095 0.281,6.778 -2.692,8.425l2.285,4.707l-1.832,0.889l-7.885,-16.218z"/>
     <path id="svg_10" d="m77.703,36.694c-3.167,1.457 -6.931,0.131 -8.458,-3.02c-1.518,-3.125 -0.258,-6.867 2.798,-8.476l-0.001,0l0.012,-0.006c0.019,-0.011 0.035,-0.021 0.054,-0.031l5.595,11.533z"/>
    </g>
   </g>
   <path id="svg_11" d="m25.619,43.068l-6.772,0l0,-33.445c0,-0.911 -0.738,-1.649 -1.649,-1.649c-0.911,0 -1.649,0.738 -1.649,1.649l0,33.445l-6.766,0l-0.006,10.996c0,0 0.022,3.562 2.297,6.23c2.583,3.029 6.13,3.801 6.13,3.801s3.535,-0.771 6.117,-3.801c2.276,-2.668 2.307,-6.225 2.307,-6.225l-0.009,-11.001z"/>
  </g>
  <g id="svg_12">
   <path id="svg_13" d="m31.418,71.539l0,-3.939l-14.557,21.81c-0.516,0.771 -0.307,1.816 0.465,2.332c0.288,0.189 0.611,0.283 0.933,0.283c0.542,0 1.076,-0.264 1.4,-0.748l11.976,-17.947c-0.139,-0.566 -0.217,-1.16 -0.217,-1.791z"/>
   <path id="svg_14" d="m66.523,54.691l-6.978,-7.116l7.045,-10.312c1.228,-1.866 1.495,-5.441 -0.333,-7.63c-1.49,-1.785 -9.822,-8.021 -20.608,-3.049c-7.565,3.487 -11.657,10.348 -11.657,17.513l0,27.1c0,1.438 0.5,2.639 1.5,3.613c0.999,0.965 2.185,1.449 3.562,1.449c1.437,0 2.656,-0.484 3.655,-1.449c0.999,-0.975 1.5,-2.176 1.5,-3.613l0,-23.008c0,0 -0.21,-6.39 7.721,-8.823c2.615,-0.802 5.21,0.063 5.709,0.319l-4.967,7.268c-0.594,1.272 -0.305,2.78 0.718,3.741l8.692,8.725c0.626,0.59 1.424,0.881 2.22,0.881c0.865,0 1.727,-0.342 2.365,-1.023c1.228,-1.304 1.163,-3.359 -0.144,-4.586z"/>
   <path id="svg_15" d="m39.029,78.82c-0.909,0 -1.759,-0.143 -2.559,-0.412l-4.118,11.363c-0.316,0.873 0.135,1.838 1.008,2.152c0.189,0.068 0.383,0.102 0.573,0.102c0.687,0 1.332,-0.426 1.581,-1.109l4.4,-12.139c-0.289,0.026 -0.582,0.043 -0.885,0.043z"/>
  </g>
 </g>
</svg>