<svg width="100" height="125" xmlns="http://www.w3.org/2000/svg">

 <g>
  <title>background</title>
  <rect fill="none" id="canvas_background" height="26.365836" width="21.492669" y="-1" x="-1"/>
 </g>
 <g>
  <title>Layer 1</title>
  <g id="svg_1">
   <circle id="svg_2" r="5.297" cy="54.583102" cx="49.402" fill="#000000"/>
   <path id="svg_3" d="m92.87,47.709102c0,0 -17.459,-6.066 -31.068,-13.411s-28.263,-18.609 -28.263,-18.609c-2.26,0.162 -1.981,3.67 -1.981,3.67c-2.623,11.813 -8.953,22.021 -8.953,22.021s-5.059,10.894 -13.494,19.571c0,0 -3.085,1.691 -1.981,3.67c0,0 17.459,6.066 31.068,13.41c3.444,1.859 6.954,3.969 10.277,6.084l3.189,-0.434l3.412,-3.414l8.517,-0.705l1.146,-5.312l6.083,0.729l-1.058,-5.754l7.68,1.619c0.542,-1.137 5.493,-11.285 13.444,-19.464c0.001,-0.001 3.086,-1.693 1.982,-3.671zm-31.482,11.902c0.698,2.786 -0.994,5.612 -3.78,6.309c-2.708,0.68 -5.452,-0.9 -6.246,-3.549l-0.011,0.006c0.548,2.709 -1.126,5.395 -3.834,6.072c-2.785,0.699 -5.61,-0.994 -6.309,-3.779c-0.494,-1.971 0.209,-3.959 1.647,-5.204c-0.198,0.076 -0.401,0.143 -0.612,0.196c-2.786,0.699 -5.611,-0.994 -6.31,-3.78s0.994,-5.611 3.78,-6.31c1.205,-0.303 2.416,-0.157 3.461,0.33c-0.318,-0.479 -0.563,-1.021 -0.711,-1.611c-0.699,-2.786 0.993,-5.611 3.779,-6.31c2.787,-0.699 5.611,0.994 6.311,3.78c0.191,0.766 0.202,1.534 0.06,2.261c0.692,-1.024 1.749,-1.808 3.043,-2.132c2.786,-0.699 5.611,0.994 6.31,3.78c0.699,2.786 -0.994,5.61 -3.779,6.31c-0.018,0.004 -0.035,0.007 -0.053,0.012c1.56,0.574 2.818,1.884 3.254,3.619z" fill="#000000"/>
   <circle id="svg_4" r="2.625" cy="84.115102" cx="63.736" fill="#000000"/>
   <circle id="svg_5" r="2.625" cy="90.357102" cx="68.985" fill="#000000"/>
   <circle id="svg_6" r="2.625" cy="84.115102" cx="73.71" fill="#000000"/>
   <circle id="svg_7" r="2.625" cy="95.000102" cx="77.386" fill="#000000"/>
   <circle id="svg_8" r="2.625" cy="99.248102" cx="65.049" fill="#000000"/>
   <circle id="svg_9" r="2.625" cy="92.375102" cx="58.23" fill="#000000"/>
   <circle id="svg_10" r="2.625" cy="99.248102" cx="49.831" fill="#000000"/>
  </g>
 </g>
</svg>