<svg width="100" height="125" xmlns="http://www.w3.org/2000/svg">
 <g>
  <title>background</title>
  <rect x="-1" y="-1" width="21.492669" height="26.365836" id="canvas_background" fill="none"/>
 </g>

 <g>
  <title>Layer 1</title>
  <g id="svg_1">
   <path fill="#845335" d="m17,10.331115l0,100l66,0l0,-100l-66,0zm46.53,49.047c0,1.069 -0.866,1.936 -1.935,1.936s-7.258,-0.866 -7.258,-1.936c0,-1.068 6.189,-1.935 7.258,-1.935s1.935,0.867 1.935,1.935zm-4.24,7.357c0.724,0.786 0.672,2.011 -0.114,2.733c-0.788,0.724 -2.013,0.672 -2.735,-0.114c-0.723,-0.787 -4.273,-5.93 -3.487,-6.653c0.786,-0.724 5.613,3.247 6.336,4.034zm-2.36,-17.046c0.768,-0.745 1.993,-0.727 2.737,0.04c0.744,0.768 0.727,1.992 -0.041,2.736c-0.766,0.744 -5.811,4.434 -6.556,3.667c-0.744,-0.766 3.094,-5.698 3.86,-6.443zm-18.219,-26.358l6.764,0c0.319,-2 1.955,-3.317 3.929,-3.317s3.608,1.317 3.929,3.317l6.3,0c1.577,0 2.854,1.426 2.854,3s-1.276,3 -2.854,3l-20.922,0c-1.575,0 -2.852,-1.426 -2.852,-3s1.277,-3 2.852,-3zm11.082,38.331c-1.261,0 -2.283,-1.022 -2.283,-2.283c0,-1.262 1.022,-2.284 2.283,-2.284s2.283,1.022 2.283,2.284c0,1.261 -1.022,2.283 -2.283,2.283zm2.064,9.519c0,1.068 -0.866,1.936 -1.935,1.936s-1.936,-0.867 -1.936,-1.936s0.867,-7.258 1.936,-7.258s1.935,6.189 1.935,7.258zm-3.87,-23.56c0,-1.068 0.867,-1.935 1.936,-1.935s1.935,0.866 1.935,1.935c0,1.069 -0.866,7.258 -1.935,7.258s-1.936,-6.189 -1.936,-7.258zm-2.738,11.695c0,1.07 -6.189,1.937 -7.259,1.937c-1.068,0 -1.935,-0.866 -1.935,-1.937c0,-1.068 0.866,-1.935 1.935,-1.935c1.07,0.001 7.259,0.867 7.259,1.935zm-5.137,-9.688c0.764,-0.746 1.99,-0.731 2.736,0.033c0.747,0.766 4.45,5.798 3.687,6.545c-0.765,0.746 -5.709,-3.076 -6.456,-3.841c-0.746,-0.764 -0.731,-1.99 0.033,-2.737zm0.004,16.666c0.767,-0.744 5.811,-4.434 6.556,-3.667c0.744,0.768 -3.094,5.699 -3.859,6.444c-0.767,0.744 -1.991,0.726 -2.735,-0.041c-0.747,-0.765 -0.728,-1.992 0.038,-2.736zm26.177,32.037l-32.149,0c-0.971,0 -1.759,-0.896 -1.759,-2s0.788,-2 1.759,-2l32.149,0c0.971,0 1.759,0.896 1.759,2s-0.788,2 -1.759,2zm1.645,-11l-35.53,0c-1.168,0 -2.114,-0.896 -2.114,-2s0.946,-2 2.114,-2l35.529,0c1.168,0 2.114,0.896 2.114,2s-0.946,2 -2.113,2z" id="svg_2"/>
  </g>
 </g>
</svg>